<?xml version="1.0" encoding="utf-8"?>
<!-- Generator: Adobe Illustrator 17.1.0, SVG Export Plug-In . SVG Version: 6.00 Build 0)  -->
<!DOCTYPE svg PUBLIC "-//W3C//DTD SVG 1.1//EN" "http://www.w3.org/Graphics/SVG/1.1/DTD/svg11.dtd">
<svg version="1.1" id="Layer_1" xmlns="http://www.w3.org/2000/svg" xmlns:xlink="http://www.w3.org/1999/xlink" x="0px" y="0px"
	 viewBox="398 0 400.3 402" enable-background="new 398 0 400.3 402" xml:space="preserve">
<g>
	<path fill="#D0D9F2" d="M682.7,44.1h-70.3V11.6H517v32.5h-70.3v51.3h236V44.1z M542.2,37.3h44.8v6.8h-44.8V37.3z"/>
	<path fill="#D0D9F2" d="M660.2,194.8l4.8-73.8H464.4l16,247.9h96.3c-12.6-18-19.9-39.9-19.9-63.6
		C556.7,246.2,602.6,197.8,660.2,194.8z"/>
	<path fill="#D0D9F2" d="M665.8,220.3c-46.2,0-83.8,38.1-83.8,85c0,46.8,37.6,85.1,83.8,85.1s83.8-38.1,83.8-85
		C749.6,258.5,712,220.3,665.8,220.3z M711.5,333.5l-17.9,18.1l-27.8-28.2L638,351.6l-17.9-18.1l27.8-28.2l-27.8-28.2L638,259
		l27.8,28.2l27.8-28.2l17.9,18.1l-27.8,28.2L711.5,333.5z"/>
</g>
</svg>
