<?xml version="1.0" encoding="utf-8"?>
<!-- Generator: Adobe Illustrator 17.1.0, SVG Export Plug-In . SVG Version: 6.00 Build 0)  -->
<!DOCTYPE svg PUBLIC "-//W3C//DTD SVG 1.1//EN" "http://www.w3.org/Graphics/SVG/1.1/DTD/svg11.dtd">
<svg version="1.1" id="Layer_1" xmlns="http://www.w3.org/2000/svg" xmlns:xlink="http://www.w3.org/1999/xlink" x="0px" y="0px"
	 viewBox="398 0 400 400" enable-background="new 398 0 400 400" xml:space="preserve">
<g>
	<path fill="#FF004D" d="M682.1,43.9h-70V11.5h-94.9v32.3h-70v51h234.8V43.9z M542.3,37.1h44.6v6.8h-44.6V37.1z"/>
	<path fill="#FF004D" d="M659.7,193.8l4.8-73.4H464.9l15.9,246.7h95.8c-12.5-17.9-19.8-39.7-19.8-63.3
		C556.8,245,602.4,196.8,659.7,193.8z"/>
	<path fill="#FF004D" d="M665.3,219.2c-46,0-83.4,37.9-83.4,84.6c0,46.6,37.4,84.7,83.4,84.7s83.4-37.9,83.4-84.6
		S711.3,219.2,665.3,219.2z M710.8,331.8l-17.8,18l-27.7-28.1l-27.7,28.1l-17.8-18l27.7-28.1l-27.7-28.1l17.8-18l27.7,28.1
		l27.7-28.1l17.8,18l-27.7,28.1L710.8,331.8z"/>
</g>
</svg>
