<?xml version="1.0" encoding="utf-8"?>
<!-- Generator: Adobe Illustrator 17.1.0, SVG Export Plug-In . SVG Version: 6.00 Build 0)  -->
<!DOCTYPE svg PUBLIC "-//W3C//DTD SVG 1.1//EN" "http://www.w3.org/Graphics/SVG/1.1/DTD/svg11.dtd">
<svg version="1.1" id="Layer_1" xmlns="http://www.w3.org/2000/svg" xmlns:xlink="http://www.w3.org/1999/xlink" x="0px" y="0px"
	 viewBox="398 0 400.3 402" enable-background="new 398 0 400.3 402" xml:space="preserve">
<path fill="#6A3DF7" d="M684.4,41.1c-62,61.7-124,123.5-186,185.2c24.4,24.3,50.7,50.5,75.1,74.8c62-61.7,124-123.5,186-185.2
	C733.3,89.7,708.9,65.4,684.4,41.1z"/>
<path fill="#6A3DF7" d="M485.3,239.3c-3.8,3.7-5.6,5.6-9.4,9.4c0,0-1.9,1.9-1.9,3.7c0,22.4,0,44.9,0,65.5c0,3.7,1.9,5.6,5.6,5.6
	c22.5,0,45.1,0,65.8,0c1.9,0,1.9,0,3.8,0c3.8-3.7,7.5-7.5,11.3-11.2C536,288,509.7,263.7,485.3,239.3z"/>
<path fill="#6A3DF7" d="M697.6,28c24.4,24.3,50.7,50.5,75.1,74.8c3.8-3.7,5.6-5.6,9.4-9.4c5.6-7.5,5.6-18.7-1.9-28.1
	c-16.9-15-31.9-29.9-47-44.9l-1.9-1.9c-5.6-3.7-13.2-5.6-20.7-1.9C705.1,18.6,701.3,24.2,697.6,28z"/>
<path fill="#6A3DF7" d="M656.2,13c-1.9,1.9-3.8,3.7-7.5,7.5c-7.5,7.5-15,15-22.5,22.4c-1.9,1.9-1.9,1.9-3.8,1.9
	c-60.1,0-118.4,0-178.5,0c-1.9,0-1.9,0-3.8,0c0,102.9,0,207.6,0,310.5c103.3,0,208.5,0,311.9,0v-1.9c0-59.9,0-117.9,0-177.7
	c0-1.9,0-3.7,1.9-3.7c9.4-9.4,18.8-18.7,28.2-28.1c3.8,0,3.8,0,3.8-1.9c0,73,0,145.9,0,218.9c0,0,0,0,0,1.9
	c-1.9,13.1-9.4,20.6-20.7,24.3c-1.9,0-3.8,0-5.6,1.9c-107.1,0-214.2,0-321.3,0c0,0,0,0-1.9,0c-13.2-1.9-20.7-9.4-24.4-22.4
	c0-1.9,0-3.7-1.9-3.7c0-108.5,0-215.1,0-321.8c0,0,0,0,0-1.9c1.9-13.1,9.4-20.6,22.5-24.3c1.9,0,3.8,0,3.8-1.9
	C509.7,13,583,13,656.2,13z"/>
</svg>
