<svg width="39" height="39" viewBox="0 0 39 39" fill="none" xmlns="http://www.w3.org/2000/svg">
<rect x="0.63208" y="0.902344" width="37.8369" height="37.8369" rx="1" fill="#1A73E8"/>
<rect x="20.3987" y="23.9658" width="5.05956" height="5.05956" transform="rotate(135 20.3987 23.9658)" fill="white"/>
<rect x="19.5513" y="9.50781" width="3.82742" height="3.82742" transform="rotate(135 19.5513 9.50781)" fill="white"/>
<rect x="13.2056" y="23.9414" width="5.05956" height="5.05956" transform="rotate(135 13.2056 23.9414)" fill="white"/>
<rect x="13.2056" y="9.50781" width="5.05956" height="5.05956" transform="rotate(135 13.2056 9.50781)" fill="white"/>
<rect x="19.3118" y="31.2197" width="3.52244" height="3.52244" transform="rotate(135 19.3118 31.2197)" fill="white"/>
<rect x="19.5269" y="16.7617" width="3.8268" height="3.8268" transform="rotate(135 19.5269 16.7617)" fill="white"/>
<rect x="12.0647" y="31.1572" width="3.44492" height="3.44492" transform="rotate(135 12.0647 31.1572)" fill="white"/>
<rect x="13.2056" y="16.7236" width="5.05956" height="5.05956" transform="rotate(135 13.2056 16.7236)" fill="white"/>
<rect x="24.9133" y="23.9912" width="1.27597" height="1.27597" transform="rotate(135 24.9133 23.9912)" fill="white"/>
<rect x="25.8157" y="9.55762" width="2.5517" height="2.5517" transform="rotate(135 25.8157 9.55762)" fill="white"/>
<rect x="32.1494" y="23.9912" width="1.27597" height="1.27597" transform="rotate(135 32.1494 23.9912)" fill="white"/>
<rect x="28.541" y="27.5801" width="1.27597" height="1.27597" transform="rotate(135 28.541 27.5801)" fill="white"/>
<rect x="22.2266" y="27.5801" width="1.27597" height="1.27597" transform="rotate(135 22.2266 27.5801)" fill="white"/>
<rect x="33.0322" y="9.55762" width="2.5243" height="2.5243" transform="rotate(135 33.0322 9.55762)" fill="white"/>
<rect x="24.9133" y="31.1885" width="1.27597" height="1.27597" transform="rotate(135 24.9133 31.1885)" fill="white"/>
<rect x="25.8347" y="16.7549" width="2.57911" height="2.57911" transform="rotate(135 25.8347 16.7549)" fill="white"/>
<rect x="32.1494" y="31.1885" width="1.27597" height="1.27597" transform="rotate(135 32.1494 31.1885)" fill="white"/>
<rect x="33.0515" y="16.7549" width="2.5517" height="2.5517" transform="rotate(135 33.0515 16.7549)" fill="white"/>
<rect x="29.4431" y="13.1455" width="2.5517" height="2.5517" transform="rotate(135 29.4431 13.1455)" fill="white"/>
<rect x="29.4431" y="20.3633" width="2.5517" height="2.5517" transform="rotate(135 29.4431 20.3633)" fill="white"/>
<rect x="23.1284" y="20.3633" width="2.5517" height="2.5517" transform="rotate(135 23.1284 20.3633)" fill="white"/>
<rect x="22.2266" y="13.1455" width="2.5517" height="2.5517" transform="rotate(135 22.2266 13.1455)" fill="white"/>
</svg>
