<svg width="21" height="20" viewBox="0 0 21 20" fill="none" xmlns="http://www.w3.org/2000/svg">
<path opacity="0.4" d="M19.6942 7.29071C19.2404 6.57669 18.7221 5.90578 18.1458 5.28641L14.5646 8.86756C14.6786 9.21903 14.7451 9.59899 14.7451 9.99795C14.7451 12.1257 13.0257 13.8356 10.9074 13.8356C10.5084 13.8356 10.1285 13.7691 9.77698 13.6551L6.49023 16.9418C7.87713 17.7207 9.37801 18.1292 10.9074 18.1292C12.5983 18.1292 14.2416 17.6352 15.7425 16.7138C17.2434 15.7829 18.5923 14.4245 19.6942 12.6957C20.6441 11.2138 20.6441 8.78207 19.6942 7.29071V7.29071Z" fill="#9DA6B2"/>
<path d="M12.8241 8.079L8.98641 11.9166C8.50195 11.4227 8.18848 10.7387 8.18848 9.99782C8.18848 8.50646 9.40438 7.28108 10.9053 7.28108C11.6462 7.28108 12.3302 7.59455 12.8241 8.079Z" fill="#9DA6B2"/>
<path opacity="0.4" d="M16.8425 4.06093L13.6223 7.28112C13.267 6.92265 12.8436 6.63883 12.3771 6.44634C11.9105 6.25385 11.4102 6.15657 10.9055 6.16023C8.77767 6.16023 7.06781 7.87956 7.06781 9.99786C7.06781 11.0618 7.49527 12.0212 8.18872 12.7146L4.97797 15.9348H4.96847C3.91405 15.0799 2.94513 13.9875 2.11869 12.6956C1.16877 11.2042 1.16877 8.78198 2.11869 7.29062C3.22061 5.56179 4.5695 4.20342 6.07039 3.27251C7.57127 2.3606 9.21464 1.85715 10.9055 1.85715C13.0238 1.85715 15.0757 2.63607 16.8425 4.06093Z" fill="#9DA6B2"/>
<path d="M13.6204 9.99591C13.6204 11.4873 12.4045 12.7126 10.9036 12.7126C10.8466 12.7126 10.7991 12.7126 10.7421 12.6936L13.6014 9.83442C13.6204 9.89142 13.6204 9.93891 13.6204 9.99591ZM18.587 2.31485C18.302 2.02988 17.8366 2.02988 17.5516 2.31485L3.14244 16.9611C2.85747 17.2461 2.85747 17.7115 3.14244 17.9965C3.21007 18.0639 3.29042 18.1172 3.37883 18.1532C3.46723 18.1893 3.56192 18.2074 3.65739 18.2065C3.75286 18.2056 3.8472 18.1858 3.93492 18.1481C4.02265 18.1104 4.102 18.0556 4.16836 17.987L18.587 3.34075C18.8815 3.05578 18.8815 2.59982 18.587 2.31485Z" fill="#9DA6B2"/>
</svg>
