<svg width="21" height="20" viewBox="0 0 21 20" fill="none" xmlns="http://www.w3.org/2000/svg">
<path opacity="0.4" d="M19.6937 7.28967C17.4992 3.84117 14.2882 1.85567 10.9062 1.85567C9.21525 1.85567 7.57175 2.34967 6.07075 3.27117C4.56975 4.20217 3.22075 5.56067 2.11875 7.28967C1.16875 8.78117 1.16875 11.2037 2.11875 12.6952C4.31325 16.1532 7.52425 18.1292 10.9062 18.1292C12.5972 18.1292 14.2407 17.6352 15.7417 16.7137C17.2427 15.7827 18.5917 14.4242 19.6937 12.6952C20.6437 11.2132 20.6437 8.78117 19.6937 7.28967V7.28967ZM10.9062 13.8352C8.77825 13.8352 7.06825 12.1157 7.06825 9.99717C7.06825 7.87867 8.77825 6.15917 10.9062 6.15917C13.0342 6.15917 14.7443 7.87867 14.7443 9.99717C14.7443 12.1157 13.0342 13.8352 10.9062 13.8352Z" fill="#9DA6B2"/>
<path opacity="0.5" d="M10.9037 7.2802C10.1843 7.2802 9.49445 7.56595 8.98581 8.0746C8.47716 8.58324 8.19141 9.27311 8.19141 9.99245C8.19141 10.7118 8.47716 11.4017 8.98581 11.9103C9.49445 12.4189 10.1843 12.7047 10.9037 12.7047C12.3952 12.7047 13.6207 11.4887 13.6207 9.9972C13.6207 8.5057 12.3952 7.2802 10.9037 7.2802Z" fill="white"/>
</svg>
