<?xml version="1.0" encoding="iso-8859-1"?>
<!-- Generator: Adobe Illustrator 21.0.0, SVG Export Plug-In . SVG Version: 6.00 Build 0)  -->
<svg version="1.1" id="Layer_1" xmlns="http://www.w3.org/2000/svg" xmlns:xlink="http://www.w3.org/1999/xlink" x="0px" y="0px"
	 viewBox="-49 141 512 512" style="enable-background:new -49 141 512 512;" xml:space="preserve">
<g>
	<linearGradient id="XMLID_2_" gradientUnits="userSpaceOnUse" x1="29.5991" y1="402.9588" x2="389.7553" y2="402.9588">
		<stop  offset="0" style="stop-color:#5F97FF"/>
		<stop  offset="1" style="stop-color:#7057EA"/>
	</linearGradient>
	<circle id="XMLID_11_" style="fill:url(#XMLID_2_);" cx="209.677" cy="402.959" r="180.078"/>
</g>
<g>
	<path style="fill:#FFFFFF;" d="M186.721,283.889c6.099,0,10.89,4.792,10.89,10.89v70.568c0,25.266-20.474,45.74-45.739,45.74
		s-45.739-20.474-45.739-45.74c0-6.098,4.792-10.89,10.89-10.89s10.89,4.792,10.89,10.89c0,13.286,10.672,23.959,23.958,23.959
		s23.958-10.673,23.958-23.959v-70.568C175.831,288.681,180.622,283.889,186.721,283.889z"/>
</g>
<g>
	<path style="fill:#FFFFFF;" d="M264.025,521.452c-35.938,0-63.164-28.968-63.164-64.034s27.226-64.034,63.164-64.034
		c22.434,0,43.561,12.632,54.669,31.582c3.049,5.227,1.307,11.761-3.921,14.811c-5.227,3.049-11.979,1.307-14.811-3.921
		c-7.405-12.197-20.474-20.691-35.938-20.691c-22.869,0-41.383,18.949-41.383,42.254s18.514,42.254,41.383,42.254
		c15.464,0,28.532-8.494,35.938-20.691c2.832-5.228,9.584-6.97,14.811-3.921c5.228,3.05,6.97,9.584,3.921,14.812
		C307.586,508.819,286.459,521.452,264.025,521.452z"/>
</g>
</svg>
