<?xml version="1.0" encoding="utf-8"?>
<!-- Generator: Adobe Illustrator 17.1.0, SVG Export Plug-In . SVG Version: 6.00 Build 0)  -->
<!DOCTYPE svg PUBLIC "-//W3C//DTD SVG 1.1//EN" "http://www.w3.org/Graphics/SVG/1.1/DTD/svg11.dtd">
<svg version="1.1" id="Layer_1" xmlns="http://www.w3.org/2000/svg" xmlns:xlink="http://www.w3.org/1999/xlink" x="0px" y="0px"
	 viewBox="-23.5 -23.5 71 71" enable-background="new -23.5 -23.5 71 71" xml:space="preserve">
<rect x="-23.5" y="-23.5" fill="none" width="71" height="71"/>
<path fill="#FF004D" d="M19,11.5h-1.7c0,0.7-0.2,1.4-0.4,2.1l1.2,1.2C18.7,13.8,19,12.7,19,11.5z M15,11.7c0-0.1,0-0.1,0-0.2v-6
	c0-1.7-1.3-3-3-3s-3,1.3-3,3v0.2L15,11.7z M4.3,3.5L3,4.8l6,6v0.7c0,1.7,1.3,3,3,3c0.2,0,0.4,0,0.6-0.1l1.7,1.7
	c-0.7,0.3-1.5,0.5-2.3,0.5c-2.8,0-5.3-2.1-5.3-5.1H5c0,3.4,2.7,6.2,6,6.7v3.3h2v-3.3c0.9-0.1,1.8-0.5,2.5-0.9l4.2,4.2l1.3-1.3
	L4.3,3.5z"/>
</svg>
