<?xml version="1.0" encoding="utf-8"?>
<!-- Generator: Adobe Illustrator 17.1.0, SVG Export Plug-In . SVG Version: 6.00 Build 0)  -->
<!DOCTYPE svg PUBLIC "-//W3C//DTD SVG 1.1//EN" "http://www.w3.org/Graphics/SVG/1.1/DTD/svg11.dtd">
<svg version="1.1" id="Layer_1" xmlns="http://www.w3.org/2000/svg" xmlns:xlink="http://www.w3.org/1999/xlink" x="0px" y="0px"
	 viewBox="0 0 11 11" enable-background="new 0 0 11 11" xml:space="preserve">
<path fill="#FFFFFF" d="M10.3,0.3H0.8c-0.2,0-0.3,0.1-0.4,0.2C0.3,0.7,0.3,0.8,0.4,1l3.5,4.8c0,0,0,0,0,0C4,5.9,4.1,6.1,4.1,6.3v3.9
	c0,0.1,0,0.2,0.1,0.3c0.1,0.1,0.2,0.1,0.3,0.1c0.1,0,0.1,0,0.2,0l2-0.7C6.8,9.9,7,9.7,7,9.5V6.3C7,6.1,7,5.9,7.2,5.8c0,0,0,0,0,0
	L10.6,1c0.1-0.1,0.1-0.3,0-0.5C10.6,0.4,10.4,0.3,10.3,0.3z"/>
</svg>
