<svg width="252" height="210" viewBox="0 0 252 210" fill="none" xmlns="http://www.w3.org/2000/svg">
<path d="M0 8C0 3.58172 3.58172 0 8 0H243.507C247.925 0 251.507 3.58172 251.507 8V42H0V8Z" fill="#0B3B55"/>
<path d="M19.94 27V15.8H24.02C24.7667 15.8 25.4173 15.8853 25.972 16.056C26.5267 16.2267 26.9853 16.472 27.348 16.792C27.7107 17.1013 27.9773 17.4747 28.148 17.912C28.3293 18.3493 28.42 18.8347 28.42 19.368C28.42 19.9013 28.3293 20.3867 28.148 20.824C27.9773 21.2613 27.7107 21.64 27.348 21.96C26.9853 22.2693 26.5267 22.5093 25.972 22.68C25.4173 22.8507 24.7667 22.936 24.02 22.936H21.908V27H19.94ZM21.908 21.272H23.86C24.34 21.272 24.7453 21.2293 25.076 21.144C25.4067 21.048 25.6733 20.92 25.876 20.76C26.0787 20.6 26.2227 20.4027 26.308 20.168C26.404 19.9227 26.452 19.656 26.452 19.368C26.452 19.0693 26.404 18.8027 26.308 18.568C26.2227 18.3333 26.0787 18.136 25.876 17.976C25.6733 17.816 25.4067 17.6933 25.076 17.608C24.7453 17.512 24.34 17.464 23.86 17.464H21.908V21.272ZM33.8663 27.176C33.3009 27.176 32.7676 27.0907 32.2662 26.92C31.7649 26.7387 31.3223 26.472 30.9382 26.12C30.5649 25.7573 30.2662 25.304 30.0422 24.76C29.8182 24.2053 29.7062 23.5653 29.7062 22.84V22.52C29.7062 21.8267 29.8182 21.224 30.0422 20.712C30.2662 20.1893 30.5649 19.752 30.9382 19.4C31.3223 19.048 31.7649 18.7867 32.2662 18.616C32.7676 18.4347 33.3009 18.344 33.8663 18.344C34.4316 18.344 34.9649 18.4347 35.4662 18.616C35.9676 18.7867 36.4049 19.048 36.7783 19.4C37.1623 19.752 37.4663 20.1893 37.6903 20.712C37.9143 21.224 38.0262 21.8267 38.0262 22.52V22.84C38.0262 23.5653 37.9143 24.2 37.6903 24.744C37.4663 25.288 37.1623 25.7413 36.7783 26.104C36.4049 26.4667 35.9676 26.7387 35.4662 26.92C34.9649 27.0907 34.4316 27.176 33.8663 27.176ZM33.8663 25.64C34.1756 25.64 34.4743 25.5867 34.7622 25.48C35.0503 25.3627 35.3009 25.192 35.5143 24.968C35.7276 24.744 35.8983 24.456 36.0263 24.104C36.1543 23.752 36.2183 23.3307 36.2183 22.84V22.52C36.2183 22.072 36.1543 21.6827 36.0263 21.352C35.8983 21.0213 35.7276 20.7493 35.5143 20.536C35.3009 20.312 35.0503 20.1467 34.7622 20.04C34.4743 19.9333 34.1756 19.88 33.8663 19.88C33.5569 19.88 33.2583 19.9333 32.9703 20.04C32.6823 20.1467 32.4316 20.312 32.2183 20.536C32.0049 20.7493 31.8342 21.0213 31.7062 21.352C31.5783 21.6827 31.5143 22.072 31.5143 22.52V22.84C31.5143 23.3307 31.5783 23.752 31.7062 24.104C31.8342 24.456 32.0049 24.7493 32.2183 24.984C32.4316 25.208 32.6823 25.3733 32.9703 25.48C33.2583 25.5867 33.5569 25.64 33.8663 25.64ZM43.46 27.176C42.884 27.176 42.3507 27.0907 41.86 26.92C41.38 26.7387 40.9587 26.4667 40.596 26.104C40.244 25.7413 39.9667 25.288 39.764 24.744C39.5613 24.2 39.46 23.5653 39.46 22.84V22.52C39.46 21.8373 39.5667 21.2347 39.78 20.712C40.004 20.1893 40.2973 19.7573 40.66 19.416C41.0227 19.064 41.444 18.7973 41.924 18.616C42.4147 18.4347 42.9267 18.344 43.46 18.344C44.004 18.344 44.4893 18.4187 44.916 18.568C45.3533 18.7173 45.7213 18.9253 46.02 19.192C46.3293 19.448 46.5747 19.752 46.756 20.104C46.948 20.456 47.076 20.8347 47.14 21.24H45.332C45.268 21.0373 45.1827 20.856 45.076 20.696C44.98 20.5253 44.8573 20.3813 44.708 20.264C44.5587 20.1467 44.3827 20.056 44.18 19.992C43.9773 19.9173 43.7373 19.88 43.46 19.88C43.172 19.88 42.8947 19.9333 42.628 20.04C42.3613 20.1467 42.1267 20.3067 41.924 20.52C41.7213 20.7227 41.5613 20.9947 41.444 21.336C41.3267 21.6667 41.268 22.0613 41.268 22.52V22.84C41.268 23.3307 41.3267 23.7573 41.444 24.12C41.5613 24.472 41.716 24.76 41.908 24.984C42.1107 25.208 42.3453 25.3733 42.612 25.48C42.8787 25.5867 43.1613 25.64 43.46 25.64C43.9293 25.64 44.324 25.5227 44.644 25.288C44.9747 25.0427 45.204 24.7067 45.332 24.28H47.14C47.0653 24.728 46.9213 25.1333 46.708 25.496C46.5053 25.848 46.244 26.152 45.924 26.408C45.604 26.6533 45.236 26.8453 44.82 26.984C44.404 27.112 43.9507 27.176 43.46 27.176ZM52.495 27.176C51.919 27.176 51.3857 27.0907 50.895 26.92C50.415 26.7387 49.9937 26.4667 49.631 26.104C49.279 25.7413 49.0017 25.288 48.799 24.744C48.5963 24.2 48.495 23.5653 48.495 22.84V22.52C48.495 21.8373 48.6017 21.2347 48.815 20.712C49.039 20.1893 49.3323 19.7573 49.695 19.416C50.0577 19.064 50.479 18.7973 50.959 18.616C51.4497 18.4347 51.9617 18.344 52.495 18.344C53.039 18.344 53.5243 18.4187 53.951 18.568C54.3883 18.7173 54.7563 18.9253 55.055 19.192C55.3643 19.448 55.6097 19.752 55.791 20.104C55.983 20.456 56.111 20.8347 56.175 21.24H54.367C54.303 21.0373 54.2177 20.856 54.111 20.696C54.015 20.5253 53.8923 20.3813 53.743 20.264C53.5937 20.1467 53.4177 20.056 53.215 19.992C53.0123 19.9173 52.7723 19.88 52.495 19.88C52.207 19.88 51.9297 19.9333 51.663 20.04C51.3963 20.1467 51.1617 20.3067 50.959 20.52C50.7563 20.7227 50.5963 20.9947 50.479 21.336C50.3617 21.6667 50.303 22.0613 50.303 22.52V22.84C50.303 23.3307 50.3617 23.7573 50.479 24.12C50.5963 24.472 50.751 24.76 50.943 24.984C51.1457 25.208 51.3803 25.3733 51.647 25.48C51.9137 25.5867 52.1963 25.64 52.495 25.64C52.9643 25.64 53.359 25.5227 53.679 25.288C54.0097 25.0427 54.239 24.7067 54.367 24.28H56.175C56.1003 24.728 55.9563 25.1333 55.743 25.496C55.5403 25.848 55.279 26.152 54.959 26.408C54.639 26.6533 54.271 26.8453 53.855 26.984C53.439 27.112 52.9857 27.176 52.495 27.176ZM58.01 27V18.52H59.754V24.488L63.866 18.52H65.53V27H63.786V21.032L59.674 27H58.01ZM67.9356 27V18.52H69.6796V24.488L73.7916 18.52H75.4556V27H73.7116V21.032L69.5996 27H67.9356ZM71.6956 17.528C71.2476 17.528 70.8583 17.4853 70.5276 17.4C70.2076 17.304 69.941 17.1653 69.7276 16.984C69.525 16.792 69.3756 16.5627 69.2796 16.296C69.1836 16.0187 69.1356 15.704 69.1356 15.352H70.7836C70.7836 15.7147 70.8583 15.9813 71.0076 16.152C71.157 16.312 71.3863 16.392 71.6956 16.392C72.005 16.392 72.2396 16.312 72.3996 16.152C72.5596 15.9813 72.6396 15.7147 72.6396 15.352H74.2556C74.2556 15.704 74.2076 16.0187 74.1116 16.296C74.0156 16.5627 73.861 16.792 73.6476 16.984C73.445 17.1653 73.1783 17.304 72.8476 17.4C72.5276 17.4853 72.1436 17.528 71.6956 17.528ZM81.3812 27.176C80.8052 27.176 80.2719 27.0907 79.7812 26.92C79.3012 26.7387 78.8799 26.4667 78.5172 26.104C78.1652 25.7413 77.8879 25.288 77.6852 24.744C77.4826 24.2 77.3812 23.5653 77.3812 22.84V22.52C77.3812 21.8373 77.4879 21.2347 77.7012 20.712C77.9252 20.1893 78.2186 19.7573 78.5812 19.416C78.9439 19.064 79.3652 18.7973 79.8452 18.616C80.3359 18.4347 80.8479 18.344 81.3812 18.344C81.9252 18.344 82.4106 18.4187 82.8372 18.568C83.2746 18.7173 83.6426 18.9253 83.9412 19.192C84.2506 19.448 84.4959 19.752 84.6772 20.104C84.8692 20.456 84.9972 20.8347 85.0612 21.24H83.2532C83.1892 21.0373 83.1039 20.856 82.9972 20.696C82.9012 20.5253 82.7786 20.3813 82.6292 20.264C82.4799 20.1467 82.3039 20.056 82.1012 19.992C81.8986 19.9173 81.6586 19.88 81.3812 19.88C81.0932 19.88 80.8159 19.9333 80.5492 20.04C80.2826 20.1467 80.0479 20.3067 79.8452 20.52C79.6426 20.7227 79.4826 20.9947 79.3652 21.336C79.2479 21.6667 79.1892 22.0613 79.1892 22.52V22.84C79.1892 23.3307 79.2479 23.7573 79.3652 24.12C79.4826 24.472 79.6372 24.76 79.8292 24.984C80.0319 25.208 80.2666 25.3733 80.5332 25.48C80.7999 25.5867 81.0826 25.64 81.3812 25.64C81.8506 25.64 82.2452 25.5227 82.5652 25.288C82.8959 25.0427 83.1252 24.7067 83.2532 24.28H85.0612C84.9866 24.728 84.8426 25.1333 84.6292 25.496C84.4266 25.848 84.1652 26.152 83.8452 26.408C83.5252 26.6533 83.1572 26.8453 82.7412 26.984C82.3252 27.112 81.8719 27.176 81.3812 27.176ZM86.8963 27V18.52H88.6563V21.96H89.6163L92.5123 18.52H94.5283L91.0243 22.552L94.6883 27H92.5123L89.6163 23.4H88.6563V27H86.8963ZM98.6304 27.176C98.1717 27.176 97.761 27.112 97.3984 26.984C97.0357 26.8453 96.7317 26.6587 96.4864 26.424C96.241 26.1787 96.0544 25.896 95.9264 25.576C95.7984 25.256 95.7344 24.904 95.7344 24.52C95.7344 24.104 95.7984 23.7413 95.9264 23.432C96.0544 23.1227 96.241 22.8667 96.4864 22.664C96.7317 22.4613 97.041 22.312 97.4144 22.216C97.7877 22.1093 98.2144 22.056 98.6944 22.056H101.334V21.56C101.334 21.2293 101.297 20.9573 101.222 20.744C101.148 20.52 101.036 20.344 100.886 20.216C100.737 20.0773 100.55 19.9813 100.326 19.928C100.113 19.864 99.8624 19.832 99.5744 19.832C99.3077 19.832 99.073 19.8587 98.8704 19.912C98.6784 19.9653 98.5184 20.0347 98.3904 20.12C98.2624 20.2053 98.1664 20.312 98.1024 20.44C98.0384 20.5573 97.9957 20.6907 97.9744 20.84H96.2144C96.2357 20.488 96.3264 20.1627 96.4864 19.864C96.657 19.5547 96.8864 19.288 97.1744 19.064C97.473 18.84 97.8304 18.664 98.2464 18.536C98.6624 18.408 99.1317 18.344 99.6544 18.344C100.177 18.344 100.646 18.4027 101.062 18.52C101.489 18.6373 101.852 18.824 102.15 19.08C102.449 19.3253 102.678 19.6507 102.838 20.056C103.009 20.4507 103.094 20.936 103.094 21.512V24.84C103.094 25.288 103.1 25.6827 103.11 26.024C103.121 26.3547 103.148 26.68 103.19 27H101.59C101.558 26.776 101.537 26.568 101.526 26.376C101.516 26.184 101.51 25.96 101.51 25.704C101.393 25.9173 101.244 26.1147 101.062 26.296C100.881 26.4667 100.668 26.6213 100.422 26.76C100.188 26.888 99.9157 26.9893 99.6064 27.064C99.3077 27.1387 98.9824 27.176 98.6304 27.176ZM99.0944 25.752C99.4037 25.752 99.6917 25.7093 99.9584 25.624C100.236 25.528 100.476 25.4 100.678 25.24C100.881 25.0693 101.041 24.8667 101.158 24.632C101.276 24.3867 101.334 24.1093 101.334 23.8V23.304H99.0144C98.545 23.304 98.1824 23.4053 97.9264 23.608C97.6704 23.8107 97.5424 24.104 97.5424 24.488C97.5424 24.8507 97.665 25.1547 97.9104 25.4C98.1557 25.6347 98.5504 25.752 99.0944 25.752ZM104.859 27L107.115 23.72C106.433 23.5387 105.937 23.24 105.627 22.824C105.329 22.408 105.179 21.88 105.179 21.24C105.179 20.824 105.243 20.4507 105.371 20.12C105.499 19.7787 105.702 19.4907 105.979 19.256C106.257 19.0213 106.603 18.84 107.019 18.712C107.446 18.584 107.953 18.52 108.539 18.52H112.379V27H110.619V23.896H108.779L106.795 27H104.859ZM108.459 22.456H110.619V20.024H108.459C107.937 20.024 107.553 20.1307 107.307 20.344C107.062 20.5467 106.939 20.8453 106.939 21.24C106.939 21.6453 107.062 21.9493 107.307 22.152C107.553 22.3547 107.937 22.456 108.459 22.456ZM123.762 27.48V26.376C122.941 26.376 122.2 26.2587 121.538 26.024C120.888 25.7893 120.333 25.4533 119.874 25.016C119.426 24.5787 119.08 24.056 118.834 23.448C118.589 22.8293 118.466 22.1467 118.466 21.4V21.08C118.466 20.408 118.589 19.7893 118.834 19.224C119.08 18.6587 119.426 18.168 119.874 17.752C120.333 17.336 120.888 17.0107 121.538 16.776C122.2 16.5413 122.941 16.424 123.762 16.424V15.32H125.698V16.424C126.52 16.424 127.256 16.5413 127.906 16.776C128.568 17.0107 129.128 17.336 129.586 17.752C130.045 18.168 130.392 18.6587 130.626 19.224C130.872 19.7893 130.994 20.408 130.994 21.08V21.4C130.994 22.1467 130.872 22.8293 130.626 23.448C130.392 24.056 130.045 24.5787 129.586 25.016C129.128 25.4533 128.568 25.7893 127.906 26.024C127.256 26.2587 126.52 26.376 125.698 26.376V27.48H123.762ZM125.698 24.68C126.221 24.68 126.685 24.6107 127.09 24.472C127.496 24.3227 127.832 24.1093 128.098 23.832C128.376 23.5547 128.584 23.2133 128.722 22.808C128.872 22.392 128.946 21.9227 128.946 21.4V21.08C128.946 20.632 128.872 20.2267 128.722 19.864C128.584 19.5013 128.376 19.192 128.098 18.936C127.821 18.6693 127.48 18.4667 127.074 18.328C126.68 18.1893 126.221 18.12 125.698 18.12V24.68ZM123.762 24.68V18.12C123.24 18.12 122.776 18.1893 122.37 18.328C121.976 18.4667 121.64 18.6693 121.362 18.936C121.085 19.192 120.877 19.5013 120.738 19.864C120.6 20.2267 120.53 20.632 120.53 21.08V21.4C120.53 21.9227 120.6 22.392 120.738 22.808C120.877 23.2133 121.08 23.5547 121.346 23.832C121.624 24.1093 121.965 24.3227 122.37 24.472C122.776 24.6107 123.24 24.68 123.762 24.68ZM136.783 27.176C136.207 27.176 135.663 27.0907 135.151 26.92C134.65 26.7493 134.207 26.4827 133.823 26.12C133.45 25.7573 133.151 25.304 132.927 24.76C132.703 24.216 132.591 23.576 132.591 22.84V22.52C132.591 21.816 132.698 21.208 132.911 20.696C133.125 20.1733 133.413 19.736 133.775 19.384C134.149 19.032 134.575 18.7707 135.055 18.6C135.546 18.4293 136.069 18.344 136.623 18.344C137.914 18.344 138.906 18.6907 139.599 19.384C140.293 20.0773 140.639 21.0693 140.639 22.36V23.256H134.367C134.378 23.6933 134.453 24.0667 134.591 24.376C134.73 24.6747 134.911 24.92 135.135 25.112C135.37 25.304 135.626 25.448 135.903 25.544C136.191 25.6293 136.485 25.672 136.783 25.672C137.37 25.672 137.823 25.576 138.143 25.384C138.463 25.192 138.687 24.9307 138.815 24.6H140.479C140.394 25.0267 140.245 25.4 140.031 25.72C139.818 26.04 139.551 26.312 139.231 26.536C138.911 26.7493 138.543 26.9093 138.127 27.016C137.711 27.1227 137.263 27.176 136.783 27.176ZM134.383 21.944H138.959C138.949 21.5493 138.885 21.2187 138.767 20.952C138.65 20.6853 138.49 20.472 138.287 20.312C138.085 20.152 137.845 20.0347 137.567 19.96C137.29 19.8853 137.002 19.848 136.703 19.848C136.405 19.848 136.117 19.8907 135.839 19.976C135.562 20.0507 135.317 20.1733 135.103 20.344C134.89 20.5147 134.714 20.7333 134.575 21C134.447 21.256 134.383 21.5707 134.383 21.944ZM141.602 29V25.496H142.594C142.712 25.336 142.813 25.112 142.898 24.824C142.994 24.5253 143.074 24.1787 143.138 23.784C143.213 23.3787 143.266 22.936 143.298 22.456C143.33 21.9653 143.346 21.4533 143.346 20.92V18.52H149.602V25.496H150.722V29H149.138V27H143.202V29H141.602ZM144.37 25.496H147.842V20.024H145.01V21.24C145.01 21.6667 144.994 22.088 144.962 22.504C144.941 22.9093 144.904 23.2933 144.85 23.656C144.797 24.008 144.728 24.344 144.642 24.664C144.568 24.9733 144.477 25.2507 144.37 25.496ZM156.072 27.176C155.496 27.176 154.952 27.0907 154.44 26.92C153.939 26.7493 153.496 26.4827 153.112 26.12C152.739 25.7573 152.44 25.304 152.216 24.76C151.992 24.216 151.88 23.576 151.88 22.84V22.52C151.88 21.816 151.987 21.208 152.2 20.696C152.413 20.1733 152.701 19.736 153.064 19.384C153.437 19.032 153.864 18.7707 154.344 18.6C154.835 18.4293 155.357 18.344 155.912 18.344C157.203 18.344 158.195 18.6907 158.888 19.384C159.581 20.0773 159.928 21.0693 159.928 22.36V23.256H153.656C153.667 23.6933 153.741 24.0667 153.88 24.376C154.019 24.6747 154.2 24.92 154.424 25.112C154.659 25.304 154.915 25.448 155.192 25.544C155.48 25.6293 155.773 25.672 156.072 25.672C156.659 25.672 157.112 25.576 157.432 25.384C157.752 25.192 157.976 24.9307 158.104 24.6H159.768C159.683 25.0267 159.533 25.4 159.32 25.72C159.107 26.04 158.84 26.312 158.52 26.536C158.2 26.7493 157.832 26.9093 157.416 27.016C157 27.1227 156.552 27.176 156.072 27.176ZM153.672 21.944H158.248C158.237 21.5493 158.173 21.2187 158.056 20.952C157.939 20.6853 157.779 20.472 157.576 20.312C157.373 20.152 157.133 20.0347 156.856 19.96C156.579 19.8853 156.291 19.848 155.992 19.848C155.693 19.848 155.405 19.8907 155.128 19.976C154.851 20.0507 154.605 20.1733 154.392 20.344C154.179 20.5147 154.003 20.7333 153.864 21C153.736 21.256 153.672 21.5707 153.672 21.944ZM161.848 30.2V18.52H163.48V19.976C163.619 19.72 163.779 19.496 163.96 19.304C164.152 19.1013 164.371 18.9307 164.616 18.792C164.861 18.6427 165.128 18.5307 165.416 18.456C165.715 18.3813 166.029 18.344 166.36 18.344C166.915 18.344 167.411 18.4347 167.848 18.616C168.296 18.7867 168.675 19.048 168.984 19.4C169.293 19.7413 169.528 20.1733 169.688 20.696C169.848 21.2187 169.928 21.8267 169.928 22.52V22.84C169.928 23.5547 169.843 24.184 169.672 24.728C169.501 25.272 169.256 25.7253 168.936 26.088C168.627 26.4507 168.253 26.7227 167.816 26.904C167.379 27.0853 166.893 27.176 166.36 27.176C165.72 27.176 165.165 27.032 164.696 26.744C164.227 26.456 163.864 26.0827 163.608 25.624V30.2H161.848ZM165.96 25.672C166.269 25.672 166.557 25.6133 166.824 25.496C167.091 25.368 167.32 25.1867 167.512 24.952C167.715 24.7173 167.869 24.424 167.976 24.072C168.093 23.7093 168.152 23.2987 168.152 22.84V22.52C168.152 22.0827 168.093 21.6987 167.976 21.368C167.869 21.0373 167.715 20.76 167.512 20.536C167.32 20.312 167.091 20.1413 166.824 20.024C166.557 19.9067 166.269 19.848 165.96 19.848C165.619 19.848 165.299 19.9067 165 20.024C164.712 20.1307 164.467 20.2853 164.264 20.488C164.061 20.68 163.901 20.92 163.784 21.208C163.667 21.4853 163.608 21.7893 163.608 22.12V23.24C163.608 23.6027 163.667 23.9387 163.784 24.248C163.901 24.5467 164.061 24.8027 164.264 25.016C164.467 25.2187 164.712 25.3787 165 25.496C165.299 25.6133 165.619 25.672 165.96 25.672ZM174.348 27.176C173.889 27.176 173.479 27.112 173.116 26.984C172.753 26.8453 172.449 26.6587 172.204 26.424C171.959 26.1787 171.772 25.896 171.644 25.576C171.516 25.256 171.452 24.904 171.452 24.52C171.452 24.104 171.516 23.7413 171.644 23.432C171.772 23.1227 171.959 22.8667 172.204 22.664C172.449 22.4613 172.759 22.312 173.132 22.216C173.505 22.1093 173.932 22.056 174.412 22.056H177.052V21.56C177.052 21.2293 177.015 20.9573 176.94 20.744C176.865 20.52 176.753 20.344 176.604 20.216C176.455 20.0773 176.268 19.9813 176.044 19.928C175.831 19.864 175.58 19.832 175.292 19.832C175.025 19.832 174.791 19.8587 174.588 19.912C174.396 19.9653 174.236 20.0347 174.108 20.12C173.98 20.2053 173.884 20.312 173.82 20.44C173.756 20.5573 173.713 20.6907 173.692 20.84H171.932C171.953 20.488 172.044 20.1627 172.204 19.864C172.375 19.5547 172.604 19.288 172.892 19.064C173.191 18.84 173.548 18.664 173.964 18.536C174.38 18.408 174.849 18.344 175.372 18.344C175.895 18.344 176.364 18.4027 176.78 18.52C177.207 18.6373 177.569 18.824 177.868 19.08C178.167 19.3253 178.396 19.6507 178.556 20.056C178.727 20.4507 178.812 20.936 178.812 21.512V24.84C178.812 25.288 178.817 25.6827 178.828 26.024C178.839 26.3547 178.865 26.68 178.908 27H177.308C177.276 26.776 177.255 26.568 177.244 26.376C177.233 26.184 177.228 25.96 177.228 25.704C177.111 25.9173 176.961 26.1147 176.78 26.296C176.599 26.4667 176.385 26.6213 176.14 26.76C175.905 26.888 175.633 26.9893 175.324 27.064C175.025 27.1387 174.7 27.176 174.348 27.176ZM174.812 25.752C175.121 25.752 175.409 25.7093 175.676 25.624C175.953 25.528 176.193 25.4 176.396 25.24C176.599 25.0693 176.759 24.8667 176.876 24.632C176.993 24.3867 177.052 24.1093 177.052 23.8V23.304H174.732C174.263 23.304 173.9 23.4053 173.644 23.608C173.388 23.8107 173.26 24.104 173.26 24.488C173.26 24.8507 173.383 25.1547 173.628 25.4C173.873 25.6347 174.268 25.752 174.812 25.752ZM181.137 27V18.52H182.897V25.496H186.577V18.52H188.337V25.496H189.617V29H188.033V27H181.137ZM191.266 27V18.52H193.01V24.488L197.122 18.52H198.786V27H197.042V21.032L192.93 27H191.266ZM200.631 27L202.887 23.72C202.205 23.5387 201.709 23.24 201.399 22.824C201.101 22.408 200.951 21.88 200.951 21.24C200.951 20.824 201.015 20.4507 201.143 20.12C201.271 19.7787 201.474 19.4907 201.751 19.256C202.029 19.0213 202.375 18.84 202.791 18.712C203.218 18.584 203.725 18.52 204.311 18.52H208.151V27H206.391V23.896H204.551L202.567 27H200.631ZM204.231 22.456H206.391V20.024H204.231C203.709 20.024 203.325 20.1307 203.079 20.344C202.834 20.5467 202.711 20.8453 202.711 21.24C202.711 21.6453 202.834 21.9493 203.079 22.152C203.325 22.3547 203.709 22.456 204.231 22.456Z" fill="#F8F8F8"/>
<path d="M221.5 23.182L222.889 24.5706L228.641 18.8177L227.253 17.4292L221.5 23.182Z" fill="#F8F8F8"/>
<path d="M231.617 24.5706L233.006 23.182L227.253 17.4292L225.864 18.8177L231.617 24.5706Z" fill="#F8F8F8"/>
<rect width="251.507" height="42" transform="translate(0 42)" fill="#0B3B55"/>
<path d="M19.94 69V57.8H21.972L25.492 64.44L29.012 57.8H30.98V69H29.012V61.208L26.1 66.68H24.82L21.908 61.208V69H19.94ZM37.3819 69.176C36.8165 69.176 36.2832 69.0907 35.7819 68.92C35.2805 68.7387 34.8379 68.472 34.4539 68.12C34.0805 67.7573 33.7819 67.304 33.5579 66.76C33.3339 66.2053 33.2219 65.5653 33.2219 64.84V64.52C33.2219 63.8267 33.3339 63.224 33.5579 62.712C33.7819 62.1893 34.0805 61.752 34.4539 61.4C34.8379 61.048 35.2805 60.7867 35.7819 60.616C36.2832 60.4347 36.8165 60.344 37.3819 60.344C37.9472 60.344 38.4805 60.4347 38.9819 60.616C39.4832 60.7867 39.9205 61.048 40.2939 61.4C40.6779 61.752 40.9819 62.1893 41.2059 62.712C41.4299 63.224 41.5419 63.8267 41.5419 64.52V64.84C41.5419 65.5653 41.4299 66.2 41.2059 66.744C40.9819 67.288 40.6779 67.7413 40.2939 68.104C39.9205 68.4667 39.4832 68.7387 38.9819 68.92C38.4805 69.0907 37.9472 69.176 37.3819 69.176ZM37.3819 67.64C37.6912 67.64 37.9899 67.5867 38.2779 67.48C38.5659 67.3627 38.8165 67.192 39.0299 66.968C39.2432 66.744 39.4139 66.456 39.5419 66.104C39.6699 65.752 39.7339 65.3307 39.7339 64.84V64.52C39.7339 64.072 39.6699 63.6827 39.5419 63.352C39.4139 63.0213 39.2432 62.7493 39.0299 62.536C38.8165 62.312 38.5659 62.1467 38.2779 62.04C37.9899 61.9333 37.6912 61.88 37.3819 61.88C37.0725 61.88 36.7739 61.9333 36.4859 62.04C36.1979 62.1467 35.9472 62.312 35.7339 62.536C35.5205 62.7493 35.3499 63.0213 35.2219 63.352C35.0939 63.6827 35.0299 64.072 35.0299 64.52V64.84C35.0299 65.3307 35.0939 65.752 35.2219 66.104C35.3499 66.456 35.5205 66.7493 35.7339 66.984C35.9472 67.208 36.1979 67.3733 36.4859 67.48C36.7739 67.5867 37.0725 67.64 37.3819 67.64ZM46.9756 69.176C46.3996 69.176 45.8663 69.0907 45.3756 68.92C44.8956 68.7387 44.4743 68.4667 44.1116 68.104C43.7596 67.7413 43.4823 67.288 43.2796 66.744C43.077 66.2 42.9756 65.5653 42.9756 64.84V64.52C42.9756 63.8373 43.0823 63.2347 43.2956 62.712C43.5196 62.1893 43.813 61.7573 44.1756 61.416C44.5383 61.064 44.9596 60.7973 45.4396 60.616C45.9303 60.4347 46.4423 60.344 46.9756 60.344C47.5196 60.344 48.005 60.4187 48.4316 60.568C48.869 60.7173 49.237 60.9253 49.5356 61.192C49.845 61.448 50.0903 61.752 50.2716 62.104C50.4636 62.456 50.5916 62.8347 50.6556 63.24H48.8476C48.7836 63.0373 48.6983 62.856 48.5916 62.696C48.4956 62.5253 48.373 62.3813 48.2236 62.264C48.0743 62.1467 47.8983 62.056 47.6956 61.992C47.493 61.9173 47.253 61.88 46.9756 61.88C46.6876 61.88 46.4103 61.9333 46.1436 62.04C45.877 62.1467 45.6423 62.3067 45.4396 62.52C45.237 62.7227 45.077 62.9947 44.9596 63.336C44.8423 63.6667 44.7836 64.0613 44.7836 64.52V64.84C44.7836 65.3307 44.8423 65.7573 44.9596 66.12C45.077 66.472 45.2316 66.76 45.4236 66.984C45.6263 67.208 45.861 67.3733 46.1276 67.48C46.3943 67.5867 46.677 67.64 46.9756 67.64C47.445 67.64 47.8396 67.5227 48.1596 67.288C48.4903 67.0427 48.7196 66.7067 48.8476 66.28H50.6556C50.581 66.728 50.437 67.1333 50.2236 67.496C50.021 67.848 49.7596 68.152 49.4396 68.408C49.1196 68.6533 48.7516 68.8453 48.3356 68.984C47.9196 69.112 47.4663 69.176 46.9756 69.176ZM52.4906 69V60.52H54.2506V63.96H55.2106L58.1066 60.52H60.1226L56.6186 64.552L60.2826 69H58.1066L55.2106 65.4H54.2506V69H52.4906ZM61.885 69V60.52H65.853C66.3863 60.52 66.845 60.5787 67.229 60.696C67.6237 60.8027 67.9437 60.9627 68.189 61.176C68.4343 61.3787 68.6157 61.6187 68.733 61.896C68.861 62.1733 68.925 62.4773 68.925 62.808C68.925 63.0107 68.893 63.2027 68.829 63.384C68.765 63.5653 68.6743 63.736 68.557 63.896C68.4503 64.056 68.317 64.2 68.157 64.328C67.997 64.4453 67.8157 64.536 67.613 64.6C68.1357 64.728 68.5357 64.9733 68.813 65.336C69.101 65.688 69.245 66.104 69.245 66.584C69.245 67.32 68.9943 67.9067 68.493 68.344C67.9917 68.7813 67.2183 69 66.173 69H61.885ZM63.645 67.544H65.965C66.5197 67.544 66.909 67.4533 67.133 67.272C67.3677 67.0907 67.485 66.824 67.485 66.472C67.485 66.1093 67.3677 65.832 67.133 65.64C66.909 65.448 66.5197 65.352 65.965 65.352H63.645V67.544ZM63.645 64.008H65.709C65.9863 64.008 66.2157 63.9867 66.397 63.944C66.589 63.8907 66.7383 63.8213 66.845 63.736C66.9623 63.64 67.0423 63.528 67.085 63.4C67.1383 63.272 67.165 63.128 67.165 62.968C67.165 62.808 67.1383 62.6693 67.085 62.552C67.0423 62.424 66.9623 62.3173 66.845 62.232C66.7383 62.1467 66.589 62.0827 66.397 62.04C66.2157 61.9973 65.9863 61.976 65.709 61.976H63.645V64.008ZM73.666 69.176C73.2073 69.176 72.7967 69.112 72.434 68.984C72.0713 68.8453 71.7673 68.6587 71.522 68.424C71.2767 68.1787 71.09 67.896 70.962 67.576C70.834 67.256 70.77 66.904 70.77 66.52C70.77 66.104 70.834 65.7413 70.962 65.432C71.09 65.1227 71.2767 64.8667 71.522 64.664C71.7673 64.4613 72.0767 64.312 72.45 64.216C72.8233 64.1093 73.25 64.056 73.73 64.056H76.37V63.56C76.37 63.2293 76.3327 62.9573 76.258 62.744C76.1833 62.52 76.0713 62.344 75.922 62.216C75.7727 62.0773 75.586 61.9813 75.362 61.928C75.1487 61.864 74.898 61.832 74.61 61.832C74.3433 61.832 74.1087 61.8587 73.906 61.912C73.714 61.9653 73.554 62.0347 73.426 62.12C73.298 62.2053 73.202 62.312 73.138 62.44C73.074 62.5573 73.0313 62.6907 73.01 62.84H71.25C71.2713 62.488 71.362 62.1627 71.522 61.864C71.6927 61.5547 71.922 61.288 72.21 61.064C72.5087 60.84 72.866 60.664 73.282 60.536C73.698 60.408 74.1673 60.344 74.69 60.344C75.2127 60.344 75.682 60.4027 76.098 60.52C76.5247 60.6373 76.8873 60.824 77.186 61.08C77.4847 61.3253 77.714 61.6507 77.874 62.056C78.0447 62.4507 78.13 62.936 78.13 63.512V66.84C78.13 67.288 78.1353 67.6827 78.146 68.024C78.1567 68.3547 78.1833 68.68 78.226 69H76.626C76.594 68.776 76.5727 68.568 76.562 68.376C76.5513 68.184 76.546 67.96 76.546 67.704C76.4287 67.9173 76.2793 68.1147 76.098 68.296C75.9167 68.4667 75.7033 68.6213 75.458 68.76C75.2233 68.888 74.9513 68.9893 74.642 69.064C74.3433 69.1387 74.018 69.176 73.666 69.176ZM74.13 67.752C74.4393 67.752 74.7273 67.7093 74.994 67.624C75.2713 67.528 75.5113 67.4 75.714 67.24C75.9167 67.0693 76.0767 66.8667 76.194 66.632C76.3113 66.3867 76.37 66.1093 76.37 65.8V65.304H74.05C73.5807 65.304 73.218 65.4053 72.962 65.608C72.706 65.8107 72.578 66.104 72.578 66.488C72.578 66.8507 72.7007 67.1547 72.946 67.4C73.1913 67.6347 73.586 67.752 74.13 67.752Z" fill="#F8F8F8"/>
<rect width="251.507" height="42" transform="translate(0 84)" fill="#074462"/>
<path d="M19.94 111V99.8H21.972L25.492 106.44L29.012 99.8H30.98V111H29.012V103.208L26.1 108.68H24.82L21.908 103.208V111H19.94ZM37.3819 111.176C36.8165 111.176 36.2832 111.091 35.7819 110.92C35.2805 110.739 34.8379 110.472 34.4539 110.12C34.0805 109.757 33.7819 109.304 33.5579 108.76C33.3339 108.205 33.2219 107.565 33.2219 106.84V106.52C33.2219 105.827 33.3339 105.224 33.5579 104.712C33.7819 104.189 34.0805 103.752 34.4539 103.4C34.8379 103.048 35.2805 102.787 35.7819 102.616C36.2832 102.435 36.8165 102.344 37.3819 102.344C37.9472 102.344 38.4805 102.435 38.9819 102.616C39.4832 102.787 39.9205 103.048 40.2939 103.4C40.6779 103.752 40.9819 104.189 41.2059 104.712C41.4299 105.224 41.5419 105.827 41.5419 106.52V106.84C41.5419 107.565 41.4299 108.2 41.2059 108.744C40.9819 109.288 40.6779 109.741 40.2939 110.104C39.9205 110.467 39.4832 110.739 38.9819 110.92C38.4805 111.091 37.9472 111.176 37.3819 111.176ZM37.3819 109.64C37.6912 109.64 37.9899 109.587 38.2779 109.48C38.5659 109.363 38.8165 109.192 39.0299 108.968C39.2432 108.744 39.4139 108.456 39.5419 108.104C39.6699 107.752 39.7339 107.331 39.7339 106.84V106.52C39.7339 106.072 39.6699 105.683 39.5419 105.352C39.4139 105.021 39.2432 104.749 39.0299 104.536C38.8165 104.312 38.5659 104.147 38.2779 104.04C37.9899 103.933 37.6912 103.88 37.3819 103.88C37.0725 103.88 36.7739 103.933 36.4859 104.04C36.1979 104.147 35.9472 104.312 35.7339 104.536C35.5205 104.749 35.3499 105.021 35.2219 105.352C35.0939 105.683 35.0299 106.072 35.0299 106.52V106.84C35.0299 107.331 35.0939 107.752 35.2219 108.104C35.3499 108.456 35.5205 108.749 35.7339 108.984C35.9472 109.208 36.1979 109.373 36.4859 109.48C36.7739 109.587 37.0725 109.64 37.3819 109.64ZM46.9756 111.176C46.3996 111.176 45.8663 111.091 45.3756 110.92C44.8956 110.739 44.4743 110.467 44.1116 110.104C43.7596 109.741 43.4823 109.288 43.2796 108.744C43.077 108.2 42.9756 107.565 42.9756 106.84V106.52C42.9756 105.837 43.0823 105.235 43.2956 104.712C43.5196 104.189 43.813 103.757 44.1756 103.416C44.5383 103.064 44.9596 102.797 45.4396 102.616C45.9303 102.435 46.4423 102.344 46.9756 102.344C47.5196 102.344 48.005 102.419 48.4316 102.568C48.869 102.717 49.237 102.925 49.5356 103.192C49.845 103.448 50.0903 103.752 50.2716 104.104C50.4636 104.456 50.5916 104.835 50.6556 105.24H48.8476C48.7836 105.037 48.6983 104.856 48.5916 104.696C48.4956 104.525 48.373 104.381 48.2236 104.264C48.0743 104.147 47.8983 104.056 47.6956 103.992C47.493 103.917 47.253 103.88 46.9756 103.88C46.6876 103.88 46.4103 103.933 46.1436 104.04C45.877 104.147 45.6423 104.307 45.4396 104.52C45.237 104.723 45.077 104.995 44.9596 105.336C44.8423 105.667 44.7836 106.061 44.7836 106.52V106.84C44.7836 107.331 44.8423 107.757 44.9596 108.12C45.077 108.472 45.2316 108.76 45.4236 108.984C45.6263 109.208 45.861 109.373 46.1276 109.48C46.3943 109.587 46.677 109.64 46.9756 109.64C47.445 109.64 47.8396 109.523 48.1596 109.288C48.4903 109.043 48.7196 108.707 48.8476 108.28H50.6556C50.581 108.728 50.437 109.133 50.2236 109.496C50.021 109.848 49.7596 110.152 49.4396 110.408C49.1196 110.653 48.7516 110.845 48.3356 110.984C47.9196 111.112 47.4663 111.176 46.9756 111.176ZM52.4906 111V102.52H54.2506V105.96H55.2106L58.1066 102.52H60.1226L56.6186 106.552L60.2826 111H58.1066L55.2106 107.4H54.2506V111H52.4906ZM61.885 111V102.52H65.853C66.3863 102.52 66.845 102.579 67.229 102.696C67.6237 102.803 67.9437 102.963 68.189 103.176C68.4343 103.379 68.6157 103.619 68.733 103.896C68.861 104.173 68.925 104.477 68.925 104.808C68.925 105.011 68.893 105.203 68.829 105.384C68.765 105.565 68.6743 105.736 68.557 105.896C68.4503 106.056 68.317 106.2 68.157 106.328C67.997 106.445 67.8157 106.536 67.613 106.6C68.1357 106.728 68.5357 106.973 68.813 107.336C69.101 107.688 69.245 108.104 69.245 108.584C69.245 109.32 68.9943 109.907 68.493 110.344C67.9917 110.781 67.2183 111 66.173 111H61.885ZM63.645 109.544H65.965C66.5197 109.544 66.909 109.453 67.133 109.272C67.3677 109.091 67.485 108.824 67.485 108.472C67.485 108.109 67.3677 107.832 67.133 107.64C66.909 107.448 66.5197 107.352 65.965 107.352H63.645V109.544ZM63.645 106.008H65.709C65.9863 106.008 66.2157 105.987 66.397 105.944C66.589 105.891 66.7383 105.821 66.845 105.736C66.9623 105.64 67.0423 105.528 67.085 105.4C67.1383 105.272 67.165 105.128 67.165 104.968C67.165 104.808 67.1383 104.669 67.085 104.552C67.0423 104.424 66.9623 104.317 66.845 104.232C66.7383 104.147 66.589 104.083 66.397 104.04C66.2157 103.997 65.9863 103.976 65.709 103.976H63.645V106.008ZM73.666 111.176C73.2073 111.176 72.7967 111.112 72.434 110.984C72.0713 110.845 71.7673 110.659 71.522 110.424C71.2767 110.179 71.09 109.896 70.962 109.576C70.834 109.256 70.77 108.904 70.77 108.52C70.77 108.104 70.834 107.741 70.962 107.432C71.09 107.123 71.2767 106.867 71.522 106.664C71.7673 106.461 72.0767 106.312 72.45 106.216C72.8233 106.109 73.25 106.056 73.73 106.056H76.37V105.56C76.37 105.229 76.3327 104.957 76.258 104.744C76.1833 104.52 76.0713 104.344 75.922 104.216C75.7727 104.077 75.586 103.981 75.362 103.928C75.1487 103.864 74.898 103.832 74.61 103.832C74.3433 103.832 74.1087 103.859 73.906 103.912C73.714 103.965 73.554 104.035 73.426 104.12C73.298 104.205 73.202 104.312 73.138 104.44C73.074 104.557 73.0313 104.691 73.01 104.84H71.25C71.2713 104.488 71.362 104.163 71.522 103.864C71.6927 103.555 71.922 103.288 72.21 103.064C72.5087 102.84 72.866 102.664 73.282 102.536C73.698 102.408 74.1673 102.344 74.69 102.344C75.2127 102.344 75.682 102.403 76.098 102.52C76.5247 102.637 76.8873 102.824 77.186 103.08C77.4847 103.325 77.714 103.651 77.874 104.056C78.0447 104.451 78.13 104.936 78.13 105.512V108.84C78.13 109.288 78.1353 109.683 78.146 110.024C78.1567 110.355 78.1833 110.68 78.226 111H76.626C76.594 110.776 76.5727 110.568 76.562 110.376C76.5513 110.184 76.546 109.96 76.546 109.704C76.4287 109.917 76.2793 110.115 76.098 110.296C75.9167 110.467 75.7033 110.621 75.458 110.76C75.2233 110.888 74.9513 110.989 74.642 111.064C74.3433 111.139 74.018 111.176 73.666 111.176ZM74.13 109.752C74.4393 109.752 74.7273 109.709 74.994 109.624C75.2713 109.528 75.5113 109.4 75.714 109.24C75.9167 109.069 76.0767 108.867 76.194 108.632C76.3113 108.387 76.37 108.109 76.37 107.8V107.304H74.05C73.5807 107.304 73.218 107.405 72.962 107.608C72.706 107.811 72.578 108.104 72.578 108.488C72.578 108.851 72.7007 109.155 72.946 109.4C73.1913 109.635 73.586 109.752 74.13 109.752Z" fill="#F8F8F8"/>
<rect width="251.507" height="42" transform="translate(0 126)" fill="#0B3B55"/>
<path d="M19.94 153V141.8H21.972L25.492 148.44L29.012 141.8H30.98V153H29.012V145.208L26.1 150.68H24.82L21.908 145.208V153H19.94ZM37.3819 153.176C36.8165 153.176 36.2832 153.091 35.7819 152.92C35.2805 152.739 34.8379 152.472 34.4539 152.12C34.0805 151.757 33.7819 151.304 33.5579 150.76C33.3339 150.205 33.2219 149.565 33.2219 148.84V148.52C33.2219 147.827 33.3339 147.224 33.5579 146.712C33.7819 146.189 34.0805 145.752 34.4539 145.4C34.8379 145.048 35.2805 144.787 35.7819 144.616C36.2832 144.435 36.8165 144.344 37.3819 144.344C37.9472 144.344 38.4805 144.435 38.9819 144.616C39.4832 144.787 39.9205 145.048 40.2939 145.4C40.6779 145.752 40.9819 146.189 41.2059 146.712C41.4299 147.224 41.5419 147.827 41.5419 148.52V148.84C41.5419 149.565 41.4299 150.2 41.2059 150.744C40.9819 151.288 40.6779 151.741 40.2939 152.104C39.9205 152.467 39.4832 152.739 38.9819 152.92C38.4805 153.091 37.9472 153.176 37.3819 153.176ZM37.3819 151.64C37.6912 151.64 37.9899 151.587 38.2779 151.48C38.5659 151.363 38.8165 151.192 39.0299 150.968C39.2432 150.744 39.4139 150.456 39.5419 150.104C39.6699 149.752 39.7339 149.331 39.7339 148.84V148.52C39.7339 148.072 39.6699 147.683 39.5419 147.352C39.4139 147.021 39.2432 146.749 39.0299 146.536C38.8165 146.312 38.5659 146.147 38.2779 146.04C37.9899 145.933 37.6912 145.88 37.3819 145.88C37.0725 145.88 36.7739 145.933 36.4859 146.04C36.1979 146.147 35.9472 146.312 35.7339 146.536C35.5205 146.749 35.3499 147.021 35.2219 147.352C35.0939 147.683 35.0299 148.072 35.0299 148.52V148.84C35.0299 149.331 35.0939 149.752 35.2219 150.104C35.3499 150.456 35.5205 150.749 35.7339 150.984C35.9472 151.208 36.1979 151.373 36.4859 151.48C36.7739 151.587 37.0725 151.64 37.3819 151.64ZM46.9756 153.176C46.3996 153.176 45.8663 153.091 45.3756 152.92C44.8956 152.739 44.4743 152.467 44.1116 152.104C43.7596 151.741 43.4823 151.288 43.2796 150.744C43.077 150.2 42.9756 149.565 42.9756 148.84V148.52C42.9756 147.837 43.0823 147.235 43.2956 146.712C43.5196 146.189 43.813 145.757 44.1756 145.416C44.5383 145.064 44.9596 144.797 45.4396 144.616C45.9303 144.435 46.4423 144.344 46.9756 144.344C47.5196 144.344 48.005 144.419 48.4316 144.568C48.869 144.717 49.237 144.925 49.5356 145.192C49.845 145.448 50.0903 145.752 50.2716 146.104C50.4636 146.456 50.5916 146.835 50.6556 147.24H48.8476C48.7836 147.037 48.6983 146.856 48.5916 146.696C48.4956 146.525 48.373 146.381 48.2236 146.264C48.0743 146.147 47.8983 146.056 47.6956 145.992C47.493 145.917 47.253 145.88 46.9756 145.88C46.6876 145.88 46.4103 145.933 46.1436 146.04C45.877 146.147 45.6423 146.307 45.4396 146.52C45.237 146.723 45.077 146.995 44.9596 147.336C44.8423 147.667 44.7836 148.061 44.7836 148.52V148.84C44.7836 149.331 44.8423 149.757 44.9596 150.12C45.077 150.472 45.2316 150.76 45.4236 150.984C45.6263 151.208 45.861 151.373 46.1276 151.48C46.3943 151.587 46.677 151.64 46.9756 151.64C47.445 151.64 47.8396 151.523 48.1596 151.288C48.4903 151.043 48.7196 150.707 48.8476 150.28H50.6556C50.581 150.728 50.437 151.133 50.2236 151.496C50.021 151.848 49.7596 152.152 49.4396 152.408C49.1196 152.653 48.7516 152.845 48.3356 152.984C47.9196 153.112 47.4663 153.176 46.9756 153.176ZM52.4906 153V144.52H54.2506V147.96H55.2106L58.1066 144.52H60.1226L56.6186 148.552L60.2826 153H58.1066L55.2106 149.4H54.2506V153H52.4906ZM61.885 153V144.52H65.853C66.3863 144.52 66.845 144.579 67.229 144.696C67.6237 144.803 67.9437 144.963 68.189 145.176C68.4343 145.379 68.6157 145.619 68.733 145.896C68.861 146.173 68.925 146.477 68.925 146.808C68.925 147.011 68.893 147.203 68.829 147.384C68.765 147.565 68.6743 147.736 68.557 147.896C68.4503 148.056 68.317 148.2 68.157 148.328C67.997 148.445 67.8157 148.536 67.613 148.6C68.1357 148.728 68.5357 148.973 68.813 149.336C69.101 149.688 69.245 150.104 69.245 150.584C69.245 151.32 68.9943 151.907 68.493 152.344C67.9917 152.781 67.2183 153 66.173 153H61.885ZM63.645 151.544H65.965C66.5197 151.544 66.909 151.453 67.133 151.272C67.3677 151.091 67.485 150.824 67.485 150.472C67.485 150.109 67.3677 149.832 67.133 149.64C66.909 149.448 66.5197 149.352 65.965 149.352H63.645V151.544ZM63.645 148.008H65.709C65.9863 148.008 66.2157 147.987 66.397 147.944C66.589 147.891 66.7383 147.821 66.845 147.736C66.9623 147.64 67.0423 147.528 67.085 147.4C67.1383 147.272 67.165 147.128 67.165 146.968C67.165 146.808 67.1383 146.669 67.085 146.552C67.0423 146.424 66.9623 146.317 66.845 146.232C66.7383 146.147 66.589 146.083 66.397 146.04C66.2157 145.997 65.9863 145.976 65.709 145.976H63.645V148.008ZM73.666 153.176C73.2073 153.176 72.7967 153.112 72.434 152.984C72.0713 152.845 71.7673 152.659 71.522 152.424C71.2767 152.179 71.09 151.896 70.962 151.576C70.834 151.256 70.77 150.904 70.77 150.52C70.77 150.104 70.834 149.741 70.962 149.432C71.09 149.123 71.2767 148.867 71.522 148.664C71.7673 148.461 72.0767 148.312 72.45 148.216C72.8233 148.109 73.25 148.056 73.73 148.056H76.37V147.56C76.37 147.229 76.3327 146.957 76.258 146.744C76.1833 146.52 76.0713 146.344 75.922 146.216C75.7727 146.077 75.586 145.981 75.362 145.928C75.1487 145.864 74.898 145.832 74.61 145.832C74.3433 145.832 74.1087 145.859 73.906 145.912C73.714 145.965 73.554 146.035 73.426 146.12C73.298 146.205 73.202 146.312 73.138 146.44C73.074 146.557 73.0313 146.691 73.01 146.84H71.25C71.2713 146.488 71.362 146.163 71.522 145.864C71.6927 145.555 71.922 145.288 72.21 145.064C72.5087 144.84 72.866 144.664 73.282 144.536C73.698 144.408 74.1673 144.344 74.69 144.344C75.2127 144.344 75.682 144.403 76.098 144.52C76.5247 144.637 76.8873 144.824 77.186 145.08C77.4847 145.325 77.714 145.651 77.874 146.056C78.0447 146.451 78.13 146.936 78.13 147.512V150.84C78.13 151.288 78.1353 151.683 78.146 152.024C78.1567 152.355 78.1833 152.68 78.226 153H76.626C76.594 152.776 76.5727 152.568 76.562 152.376C76.5513 152.184 76.546 151.96 76.546 151.704C76.4287 151.917 76.2793 152.115 76.098 152.296C75.9167 152.467 75.7033 152.621 75.458 152.76C75.2233 152.888 74.9513 152.989 74.642 153.064C74.3433 153.139 74.018 153.176 73.666 153.176ZM74.13 151.752C74.4393 151.752 74.7273 151.709 74.994 151.624C75.2713 151.528 75.5113 151.4 75.714 151.24C75.9167 151.069 76.0767 150.867 76.194 150.632C76.3113 150.387 76.37 150.109 76.37 149.8V149.304H74.05C73.5807 149.304 73.218 149.405 72.962 149.608C72.706 149.811 72.578 150.104 72.578 150.488C72.578 150.851 72.7007 151.155 72.946 151.4C73.1913 151.635 73.586 151.752 74.13 151.752Z" fill="#F8F8F8"/>
<path d="M0 168H251.507V202C251.507 206.418 247.925 210 243.507 210H7.99999C3.58171 210 0 206.418 0 202V168Z" fill="#0B3B55"/>
<path d="M22.564 195V185.464H18.82V183.8H28.26V185.464H24.516V195H22.564ZM30.9635 195.176C30.5048 195.176 30.0942 195.112 29.7315 194.984C29.3688 194.845 29.0648 194.659 28.8195 194.424C28.5742 194.179 28.3875 193.896 28.2595 193.576C28.1315 193.256 28.0675 192.904 28.0675 192.52C28.0675 192.104 28.1315 191.741 28.2595 191.432C28.3875 191.123 28.5742 190.867 28.8195 190.664C29.0648 190.461 29.3742 190.312 29.7475 190.216C30.1208 190.109 30.5475 190.056 31.0275 190.056H33.6675V189.56C33.6675 189.229 33.6302 188.957 33.5555 188.744C33.4808 188.52 33.3688 188.344 33.2195 188.216C33.0702 188.077 32.8835 187.981 32.6595 187.928C32.4462 187.864 32.1955 187.832 31.9075 187.832C31.6408 187.832 31.4062 187.859 31.2035 187.912C31.0115 187.965 30.8515 188.035 30.7235 188.12C30.5955 188.205 30.4995 188.312 30.4355 188.44C30.3715 188.557 30.3288 188.691 30.3075 188.84H28.5475C28.5688 188.488 28.6595 188.163 28.8195 187.864C28.9902 187.555 29.2195 187.288 29.5075 187.064C29.8062 186.84 30.1635 186.664 30.5795 186.536C30.9955 186.408 31.4648 186.344 31.9875 186.344C32.5102 186.344 32.9795 186.403 33.3955 186.52C33.8222 186.637 34.1848 186.824 34.4835 187.08C34.7822 187.325 35.0115 187.651 35.1715 188.056C35.3422 188.451 35.4275 188.936 35.4275 189.512V192.84C35.4275 193.288 35.4328 193.683 35.4435 194.024C35.4542 194.355 35.4808 194.68 35.5235 195H33.9235C33.8915 194.776 33.8702 194.568 33.8595 194.376C33.8488 194.184 33.8435 193.96 33.8435 193.704C33.7262 193.917 33.5768 194.115 33.3955 194.296C33.2142 194.467 33.0008 194.621 32.7555 194.76C32.5208 194.888 32.2488 194.989 31.9395 195.064C31.6408 195.139 31.3155 195.176 30.9635 195.176ZM31.4275 193.752C31.7368 193.752 32.0248 193.709 32.2915 193.624C32.5688 193.528 32.8088 193.4 33.0115 193.24C33.2142 193.069 33.3742 192.867 33.4915 192.632C33.6088 192.387 33.6675 192.109 33.6675 191.8V191.304H31.3475C30.8782 191.304 30.5155 191.405 30.2595 191.608C30.0035 191.811 29.8755 192.104 29.8755 192.488C29.8755 192.851 29.9982 193.155 30.2435 193.4C30.4888 193.635 30.8835 193.752 31.4275 193.752ZM39.5962 195V188.024H36.7962V186.52H44.1562V188.024H41.3562V195H39.5962ZM47.9085 195.176C47.4498 195.176 47.0392 195.112 46.6765 194.984C46.3138 194.845 46.0098 194.659 45.7645 194.424C45.5192 194.179 45.3325 193.896 45.2045 193.576C45.0765 193.256 45.0125 192.904 45.0125 192.52C45.0125 192.104 45.0765 191.741 45.2045 191.432C45.3325 191.123 45.5192 190.867 45.7645 190.664C46.0098 190.461 46.3192 190.312 46.6925 190.216C47.0658 190.109 47.4925 190.056 47.9725 190.056H50.6125V189.56C50.6125 189.229 50.5752 188.957 50.5005 188.744C50.4258 188.52 50.3138 188.344 50.1645 188.216C50.0152 188.077 49.8285 187.981 49.6045 187.928C49.3912 187.864 49.1405 187.832 48.8525 187.832C48.5858 187.832 48.3512 187.859 48.1485 187.912C47.9565 187.965 47.7965 188.035 47.6685 188.12C47.5405 188.205 47.4445 188.312 47.3805 188.44C47.3165 188.557 47.2738 188.691 47.2525 188.84H45.4925C45.5138 188.488 45.6045 188.163 45.7645 187.864C45.9352 187.555 46.1645 187.288 46.4525 187.064C46.7512 186.84 47.1085 186.664 47.5245 186.536C47.9405 186.408 48.4098 186.344 48.9325 186.344C49.4552 186.344 49.9245 186.403 50.3405 186.52C50.7672 186.637 51.1298 186.824 51.4285 187.08C51.7272 187.325 51.9565 187.651 52.1165 188.056C52.2872 188.451 52.3725 188.936 52.3725 189.512V192.84C52.3725 193.288 52.3778 193.683 52.3885 194.024C52.3992 194.355 52.4258 194.68 52.4685 195H50.8685C50.8365 194.776 50.8152 194.568 50.8045 194.376C50.7938 194.184 50.7885 193.96 50.7885 193.704C50.6712 193.917 50.5218 194.115 50.3405 194.296C50.1592 194.467 49.9458 194.621 49.7005 194.76C49.4658 194.888 49.1938 194.989 48.8845 195.064C48.5858 195.139 48.2605 195.176 47.9085 195.176ZM48.3725 193.752C48.6818 193.752 48.9698 193.709 49.2365 193.624C49.5138 193.528 49.7538 193.4 49.9565 193.24C50.1592 193.069 50.3192 192.867 50.4365 192.632C50.5538 192.387 50.6125 192.109 50.6125 191.8V191.304H48.2925C47.8232 191.304 47.4605 191.405 47.2045 191.608C46.9485 191.811 46.8205 192.104 46.8205 192.488C46.8205 192.851 46.9432 193.155 47.1885 193.4C47.4338 193.635 47.8285 193.752 48.3725 193.752ZM54.6975 198.2V186.52H56.3295V187.976C56.4682 187.72 56.6282 187.496 56.8095 187.304C57.0015 187.101 57.2202 186.931 57.4655 186.792C57.7108 186.643 57.9775 186.531 58.2655 186.456C58.5642 186.381 58.8788 186.344 59.2095 186.344C59.7642 186.344 60.2602 186.435 60.6975 186.616C61.1455 186.787 61.5242 187.048 61.8335 187.4C62.1428 187.741 62.3775 188.173 62.5375 188.696C62.6975 189.219 62.7775 189.827 62.7775 190.52V190.84C62.7775 191.555 62.6922 192.184 62.5215 192.728C62.3508 193.272 62.1055 193.725 61.7855 194.088C61.4762 194.451 61.1028 194.723 60.6655 194.904C60.2282 195.085 59.7428 195.176 59.2095 195.176C58.5695 195.176 58.0148 195.032 57.5455 194.744C57.0762 194.456 56.7135 194.083 56.4575 193.624V198.2H54.6975ZM58.8095 193.672C59.1188 193.672 59.4068 193.613 59.6735 193.496C59.9402 193.368 60.1695 193.187 60.3615 192.952C60.5642 192.717 60.7188 192.424 60.8255 192.072C60.9428 191.709 61.0015 191.299 61.0015 190.84V190.52C61.0015 190.083 60.9428 189.699 60.8255 189.368C60.7188 189.037 60.5642 188.76 60.3615 188.536C60.1695 188.312 59.9402 188.141 59.6735 188.024C59.4068 187.907 59.1188 187.848 58.8095 187.848C58.4682 187.848 58.1482 187.907 57.8495 188.024C57.5615 188.131 57.3162 188.285 57.1135 188.488C56.9108 188.68 56.7508 188.92 56.6335 189.208C56.5162 189.485 56.4575 189.789 56.4575 190.12V191.24C56.4575 191.603 56.5162 191.939 56.6335 192.248C56.7508 192.547 56.9108 192.803 57.1135 193.016C57.3162 193.219 57.5615 193.379 57.8495 193.496C58.1482 193.613 58.4682 193.672 58.8095 193.672ZM68.2212 195.176C67.6452 195.176 67.1119 195.091 66.6212 194.92C66.1412 194.739 65.7199 194.467 65.3572 194.104C65.0052 193.741 64.7279 193.288 64.5252 192.744C64.3226 192.2 64.2212 191.565 64.2212 190.84V190.52C64.2212 189.837 64.3279 189.235 64.5412 188.712C64.7652 188.189 65.0586 187.757 65.4212 187.416C65.7839 187.064 66.2052 186.797 66.6852 186.616C67.1759 186.435 67.6879 186.344 68.2212 186.344C68.7652 186.344 69.2506 186.419 69.6772 186.568C70.1146 186.717 70.4826 186.925 70.7812 187.192C71.0906 187.448 71.3359 187.752 71.5172 188.104C71.7092 188.456 71.8372 188.835 71.9012 189.24H70.0932C70.0292 189.037 69.9439 188.856 69.8372 188.696C69.7412 188.525 69.6186 188.381 69.4692 188.264C69.3199 188.147 69.1439 188.056 68.9412 187.992C68.7386 187.917 68.4986 187.88 68.2212 187.88C67.9332 187.88 67.6559 187.933 67.3892 188.04C67.1226 188.147 66.8879 188.307 66.6852 188.52C66.4826 188.723 66.3226 188.995 66.2052 189.336C66.0879 189.667 66.0292 190.061 66.0292 190.52V190.84C66.0292 191.331 66.0879 191.757 66.2052 192.12C66.3226 192.472 66.4772 192.76 66.6692 192.984C66.8719 193.208 67.1066 193.373 67.3732 193.48C67.6399 193.587 67.9226 193.64 68.2212 193.64C68.6906 193.64 69.0852 193.523 69.4052 193.288C69.7359 193.043 69.9652 192.707 70.0932 192.28H71.9012C71.8266 192.728 71.6826 193.133 71.4692 193.496C71.2666 193.848 71.0052 194.152 70.6852 194.408C70.3652 194.653 69.9972 194.845 69.5812 194.984C69.1652 195.112 68.7119 195.176 68.2212 195.176ZM75.7362 195V188.024H72.9362V186.52H80.2962V188.024H77.4962V195H75.7362ZM84.0485 195.176C83.5898 195.176 83.1792 195.112 82.8165 194.984C82.4538 194.845 82.1498 194.659 81.9045 194.424C81.6592 194.179 81.4725 193.896 81.3445 193.576C81.2165 193.256 81.1525 192.904 81.1525 192.52C81.1525 192.104 81.2165 191.741 81.3445 191.432C81.4725 191.123 81.6592 190.867 81.9045 190.664C82.1498 190.461 82.4592 190.312 82.8325 190.216C83.2058 190.109 83.6325 190.056 84.1125 190.056H86.7525V189.56C86.7525 189.229 86.7152 188.957 86.6405 188.744C86.5658 188.52 86.4538 188.344 86.3045 188.216C86.1552 188.077 85.9685 187.981 85.7445 187.928C85.5312 187.864 85.2805 187.832 84.9925 187.832C84.7258 187.832 84.4912 187.859 84.2885 187.912C84.0965 187.965 83.9365 188.035 83.8085 188.12C83.6805 188.205 83.5845 188.312 83.5205 188.44C83.4565 188.557 83.4138 188.691 83.3925 188.84H81.6325C81.6538 188.488 81.7445 188.163 81.9045 187.864C82.0752 187.555 82.3045 187.288 82.5925 187.064C82.8912 186.84 83.2485 186.664 83.6645 186.536C84.0805 186.408 84.5498 186.344 85.0725 186.344C85.5952 186.344 86.0645 186.403 86.4805 186.52C86.9072 186.637 87.2698 186.824 87.5685 187.08C87.8672 187.325 88.0965 187.651 88.2565 188.056C88.4272 188.451 88.5125 188.936 88.5125 189.512V192.84C88.5125 193.288 88.5178 193.683 88.5285 194.024C88.5392 194.355 88.5658 194.68 88.6085 195H87.0085C86.9765 194.776 86.9552 194.568 86.9445 194.376C86.9338 194.184 86.9285 193.96 86.9285 193.704C86.8112 193.917 86.6618 194.115 86.4805 194.296C86.2992 194.467 86.0858 194.621 85.8405 194.76C85.6058 194.888 85.3338 194.989 85.0245 195.064C84.7258 195.139 84.4005 195.176 84.0485 195.176ZM84.5125 193.752C84.8218 193.752 85.1098 193.709 85.3765 193.624C85.6538 193.528 85.8938 193.4 86.0965 193.24C86.2992 193.069 86.4592 192.867 86.5765 192.632C86.6938 192.387 86.7525 192.109 86.7525 191.8V191.304H84.4325C83.9632 191.304 83.6005 191.405 83.3445 191.608C83.0885 191.811 82.9605 192.104 82.9605 192.488C82.9605 192.851 83.0832 193.155 83.3285 193.4C83.5738 193.635 83.9685 193.752 84.5125 193.752ZM90.8375 195V186.52H92.5975V189.928H96.5975V186.52H98.3575V195H96.5975V191.432H92.5975V195H90.8375Z" fill="#F8F8F8"/>
</svg>
