<svg width="139" height="15" viewBox="0 0 139 15" fill="none" xmlns="http://www.w3.org/2000/svg">
<path d="M62.4734 8.96279C62.3074 10.7056 61.7265 12.0334 60.6477 13.0292C59.5688 14.0251 58.158 14.523 56.4982 14.523C54.4235 14.523 53.0127 13.8591 51.8509 12.6143C50.689 11.2865 50.1081 9.54371 50.1081 7.30301C50.1081 5.1453 50.689 3.48553 51.8509 2.15771C53.0127 0.746899 54.5065 0 56.6642 0C58.158 0 59.3198 0.331955 60.4817 1.16184C61.5605 1.99173 62.2245 3.07058 62.3074 4.39841H60.4817C60.3157 3.48553 59.8178 2.73863 59.0709 2.2407C58.324 1.65978 57.4941 1.4938 56.4982 1.4938C54.9214 1.4938 53.8426 2.07472 53.0957 3.15357C52.2658 4.23243 51.9338 5.64324 51.9338 7.13703C51.9338 8.8798 52.4318 10.2906 53.2617 11.2865C54.0916 12.2823 55.3364 12.8633 56.5812 12.8633C57.7431 12.8633 58.7389 12.5313 59.3198 11.8674C59.9838 11.2035 60.3987 10.2076 60.6477 8.8798L62.4734 8.96279C62.4734 8.96279 62.4734 9.04578 62.4734 8.96279Z" fill="white"/>
<path d="M70.5234 0.0830078C72.6811 0.0830078 74.2579 0.746918 75.4197 2.15773C76.5815 3.48555 77.1625 5.14532 77.1625 7.30303C77.1625 9.46074 76.5815 11.2035 75.4197 12.6143C74.2579 14.0251 72.6811 14.772 70.5234 14.772C69.4445 14.772 68.4486 14.606 67.6188 14.1911C66.7889 13.8591 66.042 13.2782 65.461 12.5313C64.8801 11.7844 64.5482 11.0375 64.2992 10.1247C64.0502 9.21177 63.8013 8.2989 63.8013 7.38602C63.8013 5.14532 64.4652 3.48555 65.627 2.24072C66.9548 0.663929 68.5316 0.0830078 70.5234 0.0830078ZM70.5234 1.65979C68.9466 1.65979 67.8677 2.24072 67.0378 3.31957C66.2079 4.39842 65.71 5.80923 65.71 7.30303C65.71 9.0458 66.2079 10.3736 67.0378 11.4525C67.8677 12.5313 69.1126 13.0293 70.5234 13.0293C71.9342 13.0293 73.096 12.4483 73.9259 11.4525C74.8388 10.4566 75.2537 8.96281 75.2537 7.38602C75.2537 5.64326 74.7558 4.31544 73.9259 3.31957C73.179 2.07474 71.9342 1.65979 70.5234 1.65979Z" fill="white"/>
<path d="M79.4861 0.414917H81.5608L88.8639 11.6184V0.414917H90.6066V14.1911H88.4489L81.1459 3.15355V14.274H79.4031L79.4861 0.414917Z" fill="white"/>
<path d="M103.055 0.414917V1.9917H98.4075V14.1911H96.5818V1.9917H91.9344V0.414917H103.055Z" fill="white"/>
<path d="M108.615 0.414917L114.009 14.1911H111.935L110.358 9.95863H104.549L102.972 14.1911H101.063L106.54 0.414917C106.54 0.414917 108.615 0.414917 108.615 0.414917ZM109.86 8.46483L107.453 2.07469L105.047 8.46483H109.86Z" fill="white"/>
<path d="M127.039 8.96279C126.873 10.7056 126.292 12.0334 125.213 13.0292C124.134 14.0251 122.723 14.523 121.064 14.523C118.989 14.523 117.578 13.8591 116.416 12.6143C115.254 11.2865 114.673 9.54371 114.673 7.30301C114.673 5.1453 115.254 3.48553 116.416 2.15771C117.578 0.746899 119.072 0 121.229 0C122.723 0 123.885 0.331955 125.047 1.16184C126.126 1.99173 126.79 3.07058 126.873 4.39841H125.047C124.881 3.48553 124.383 2.73863 123.636 2.2407C122.889 1.65978 122.059 1.4938 121.064 1.4938C119.487 1.4938 118.408 2.07472 117.661 3.15357C116.831 4.23243 116.499 5.64324 116.499 7.13703C116.499 8.8798 116.997 10.2906 117.827 11.2865C118.657 12.2823 119.902 12.8633 121.146 12.8633C122.308 12.8633 123.304 12.5313 123.885 11.8674C124.632 11.2035 124.964 10.2076 125.213 8.8798L127.039 8.96279C127.039 8.96279 127.039 9.04578 127.039 8.96279Z" fill="white"/>
<path d="M138.906 0.414917V1.9917H134.259V14.1911H132.433V1.9917H127.786V0.414917H138.906Z" fill="white"/>
<path d="M9.9481 6.03979V7.56132C9.8652 9.75908 8.04138 11.3651 5.96886 11.3651C4.55954 11.3651 3.23313 10.5198 2.65282 9.33643L0 10.9425C1.24351 13.0557 3.39894 14.4082 6.05176 14.4082C9.8652 14.4082 13.0154 11.3651 13.0983 7.39226V6.03979H9.9481Z" fill="white"/>
<path d="M22.1944 0.582153C18.3719 0.582153 15.2814 3.75401 15.2814 7.67709C15.2814 11.6002 18.3719 14.772 22.1944 14.772C26.0169 14.772 29.1074 11.6002 29.1074 7.67709C29.1074 3.75401 26.0169 0.582153 22.1944 0.582153ZM22.1944 11.6002C19.9985 11.6002 18.2906 9.76383 18.2906 7.59362C18.2906 5.4234 20.0798 3.58707 22.1944 3.58707C24.309 3.58707 26.0982 5.4234 26.0982 7.59362C26.0982 9.76383 24.309 11.6002 22.1944 11.6002Z" fill="white"/>
<path d="M12.7345 0.582153H9.82373V3.4929H12.7345V0.582153Z" fill="white"/>
<path d="M35.7581 9.67817H38.7196C38.9735 9.18028 39.3119 8.68239 39.3119 8.68239L44.3888 0.218262H41.2581L37.112 6.77381L32.9659 0.218262H29.8351L35.0812 8.51643L35.7581 9.67817Z" fill="white"/>
<path d="M38.7386 11.8674H35.834V14.772H38.7386V11.8674Z" fill="white"/>
</svg>
