<?xml version="1.0" encoding="utf-8"?>
<!-- Generator: Adobe Illustrator 17.1.0, SVG Export Plug-In . SVG Version: 6.00 Build 0)  -->
<!DOCTYPE svg PUBLIC "-//W3C//DTD SVG 1.1//EN" "http://www.w3.org/Graphics/SVG/1.1/DTD/svg11.dtd">
<svg version="1.1" id="Layer_1" xmlns="http://www.w3.org/2000/svg" xmlns:xlink="http://www.w3.org/1999/xlink" x="0px" y="0px"
	 viewBox="-23.5 -23.5 71 71" enable-background="new -23.5 -23.5 71 71" xml:space="preserve">
<rect x="-23.5" y="-23.5" fill="none" width="71" height="71"/>
<path fill="#44498D" d="M12,14c1.7,0,3-1.3,3-3l0-6c0-1.7-1.3-3-3-3S9,3.3,9,5v6C9,12.7,10.3,14,12,14z M17.3,11
	c0,3-2.5,5.1-5.3,5.1S6.7,14,6.7,11H5c0,3.4,2.7,6.2,6,6.7V21h2v-3.3c3.3-0.5,6-3.3,6-6.7H17.3z"/>
</svg>
