<?xml version="1.0" encoding="utf-8"?>
<!-- Generator: Adobe Illustrator 17.1.0, SVG Export Plug-In . SVG Version: 6.00 Build 0)  -->
<!DOCTYPE svg PUBLIC "-//W3C//DTD SVG 1.1//EN" "http://www.w3.org/Graphics/SVG/1.1/DTD/svg11.dtd">
<svg version="1.1" id="Layer_1" xmlns="http://www.w3.org/2000/svg" xmlns:xlink="http://www.w3.org/1999/xlink" x="0px" y="0px"
	 viewBox="0 0.2 44.4 14.6" enable-background="new 0 0.2 44.4 14.6" xml:space="preserve">
<path fill="#FFFFFF" d="M9.9,6v1.5C9.9,9.8,8,11.4,6,11.4c-1.4,0-2.7-0.8-3.3-2L0,10.9c1.2,2.1,3.4,3.5,6.1,3.5c3.8,0,7-3,7-7V6H9.9
	z"/>
<path fill="#FFFFFF" d="M22.2,0.6c-3.8,0-6.9,3.2-6.9,7.1c0,3.9,3.1,7.1,6.9,7.1s6.9-3.2,6.9-7.1C29.1,3.8,26,0.6,22.2,0.6z
	 M22.2,11.6c-2.2,0-3.9-1.8-3.9-4c0-2.2,1.8-4,3.9-4s3.9,1.8,3.9,4C26.1,9.8,24.3,11.6,22.2,11.6z"/>
<path fill="#FFFFFF" d="M12.7,0.6H9.8v2.9h2.9V0.6z"/>
<path fill="#FFFFFF" d="M35.8,9.7h3c0.3-0.5,0.6-1,0.6-1l5.1-8.5h-3.1l-4.1,6.6L33,0.2h-3.1l5.2,8.3L35.8,9.7z"/>
<path fill="#FFFFFF" d="M38.7,11.9h-2.9v2.9h2.9V11.9z"/>
</svg>
