<?xml version="1.0" encoding="utf-8"?>
<!-- Generator: Adobe Illustrator 17.1.0, SVG Export Plug-In . SVG Version: 6.00 Build 0)  -->
<!DOCTYPE svg PUBLIC "-//W3C//DTD SVG 1.1//EN" "http://www.w3.org/Graphics/SVG/1.1/DTD/svg11.dtd">
<svg version="1.1" id="Layer_1" xmlns="http://www.w3.org/2000/svg" xmlns:xlink="http://www.w3.org/1999/xlink" x="0px" y="0px"
	 viewBox="403.3 64 274.7 274.7" enable-background="new 403.3 64 274.7 274.7" xml:space="preserve">
<g>
	<path fill="#44498D" d="M560,223h-8.7l-1.7-1.7c8.7-12.1,15.6-27.8,15.6-43.4c0-36.4-29.5-65.9-65.9-65.9s-65.9,29.5-65.9,65.9
		s29.5,65.9,65.9,65.9c15.6,0,31.2-5.2,43.4-15.6l3.5,3.5v8.7l50.3,50.3l15.6-15.6L560,223z M499.2,223c-26,0-45.1-20.8-45.1-45.1
		s19.1-45.1,45.1-45.1c26,0,45.1,20.8,45.1,45.1S525.3,223,499.2,223z"/>
</g>
</svg>
