<?xml version="1.0" encoding="utf-8"?>
<!-- Generator: Adobe Illustrator 17.1.0, SVG Export Plug-In . SVG Version: 6.00 Build 0)  -->
<!DOCTYPE svg PUBLIC "-//W3C//DTD SVG 1.1//EN" "http://www.w3.org/Graphics/SVG/1.1/DTD/svg11.dtd">
<svg version="1.1" id="Layer_1" xmlns="http://www.w3.org/2000/svg" xmlns:xlink="http://www.w3.org/1999/xlink" x="0px" y="0px"
	 viewBox="0 0 60.4 60.4" enable-background="new 0 0 60.4 60.4" xml:space="preserve">
<g>
	<path fill="#F0F3FF" d="M30.2,59.9c-5.7,0-11.3-1.7-16.1-4.8L14,55.1L0.5,59.9l4.8-13.5l-0.1-0.1C-2.4,34.6-0.8,19.1,9,9.3l0.4-0.4
		C15,3.4,22.4,0.3,30.2,0.3c7.9,0,15.2,3.1,20.8,8.6l0.4,0.4c11.5,11.5,11.5,30.1,0,41.6L51,51.3C45.5,56.9,38.1,59.9,30.2,59.9
		C30.2,59.9,30.2,59.9,30.2,59.9z"/>
	<path fill="#BECAED" d="M30.2,0.6c7.8,0,15.1,3,20.6,8.5l0.4,0.4c11.3,11.3,11.3,29.8,0,41.1l-0.4,0.4c-5.5,5.5-12.8,8.5-20.6,8.5
		c-5.7,0-11.2-1.6-15.9-4.7l-0.2-0.2l-0.3,0.1L1,59.4l4.5-12.8l0.1-0.3l-0.2-0.2C-2,34.6-0.5,19.2,9.2,9.5l0.4-0.4
		C15.2,3.6,22.5,0.6,30.2,0.6 M30.2,0C22.6,0,15,2.9,9.2,8.7L8.8,9.1C-1.3,19.2-2.6,34.9,5,46.4l-5,14l14-5
		c4.9,3.2,10.6,4.8,16.3,4.8c7.6,0,15.2-2.9,21-8.7l0.4-0.4c11.6-11.6,11.6-30.4,0-42l-0.4-0.4C45.4,2.9,37.8,0,30.2,0L30.2,0z"/>
</g>
<g>
	<path fill="#44498D" d="M35.3,22.6l8.4,8.8l-8.4,8.4l-2.6-2.8l5.3-5.6l-5.3-5.9L35.3,22.6z"/>
	
		<rect x="19.7" y="25" transform="matrix(0.7071 0.7071 -0.7071 0.7071 29.5175 -9.123)" fill="#FF004D" width="12.1" height="12.1"/>
</g>
</svg>
