<svg width="77" height="84" viewBox="0 0 77 84" fill="none" xmlns="http://www.w3.org/2000/svg">
<path fill-rule="evenodd" clip-rule="evenodd" d="M46.451 17.8432C45.7631 17.2401 44.7739 17.2539 44.2063 17.4289C44.578 16.9726 45.4443 16.5981 45.6992 16.5527C45.8934 16.6256 46.451 17.1983 46.451 17.8432ZM48.6474 15.3458C48.1949 12.9258 42.5711 14.5295 39.7389 13.5016C39.6847 14.2071 40.6109 15.3374 41.4968 15.7556C39.9826 17.07 38.6231 19.718 38.3485 22.9531C38.0751 19.718 36.7155 17.07 35.2013 15.7557C36.0871 15.3376 37.0141 14.2072 36.959 13.5019C34.1269 14.5298 28.503 12.9262 28.0498 15.3462C27.9545 15.8586 28.2009 16.6389 28.467 16.8635C28.5147 16.7011 28.7633 16.1701 29.5473 16.0511C33.5094 15.4524 36.8175 21.559 33.8314 24.028C33.7859 24.066 33.8116 24.135 33.8731 24.135H42.8257C42.8864 24.135 42.9122 24.0658 42.8673 24.0282C39.8805 21.5593 43.1885 15.4527 47.1508 16.0514C47.9352 16.1704 48.1832 16.7013 48.231 16.8636C48.4972 16.6391 48.7434 15.8582 48.6474 15.3458ZM49.6111 9.79192C49.5398 9.56327 51.8632 9.55751 51.8632 11.0118C51.8632 11.9862 50.4734 12.4477 50.4734 13.4591C50.4734 13.93 50.9801 14.2754 51.1356 14.2754C50.7776 12.6519 52.2576 13.5016 52.6574 13.805C51.8632 11.6217 53.6509 11.6354 53.4749 10.6343C53.3525 9.93485 51.7984 10.146 51.2361 9.79192C50.238 9.16379 49.0573 6.71906 48.2793 9.16379C49.7298 10.5103 48.8857 12.4926 47.0443 12.4926C47.0443 12.4926 47.0341 12.7832 47.0509 12.8062C49.2473 12.6988 50.0129 11.0845 49.6111 9.79192ZM23.9869 13.805C24.3866 13.5016 25.8665 12.6519 25.5093 14.2754C25.6641 14.2754 26.1708 13.93 26.1708 13.4591C26.1708 12.4477 24.781 11.9862 24.781 11.0118C24.781 9.55751 27.1042 9.56327 27.0331 9.79192C26.6319 11.0846 27.3975 12.699 29.5939 12.8062C29.6101 12.7832 29.5999 12.4925 29.5999 12.4925C27.7592 12.4925 26.9152 10.5103 28.3649 9.16363C27.5869 6.71906 26.4062 9.16363 25.4081 9.79177C24.8457 10.146 23.2916 9.9347 23.1693 10.6343C22.994 11.6357 24.781 11.6217 23.9869 13.805ZM30.2232 17.8432C30.9117 17.2401 31.9013 17.2539 32.468 17.4289C32.0978 16.9726 31.2299 16.5981 30.9756 16.5527C30.7814 16.6256 30.2232 17.1983 30.2232 17.8432ZM39.3934 4.30634L38.3223 3L37.2508 4.30634L38.3219 5.68096L39.3934 4.30634ZM45.5094 8.25617L44.7478 7.32793L43.9864 8.25617L44.7476 9.16348L45.5094 8.25617ZM51.6891 35.0904L50.7236 34.0684L49.7577 35.0902L50.7236 35.9869L51.6891 35.0904ZM32.6584 8.25617L31.8967 7.32793L31.1355 8.25617L31.8969 9.16348L32.6584 8.25617ZM30.4761 12.8064H33.3179C35.7071 12.8064 36.7821 11.3398 37.1069 10.0681H39.538C39.863 11.3398 40.9374 12.8062 43.3273 12.8062H46.1691C46.1691 12.8062 46.6662 12.1318 46.7909 11.7979C47.2397 10.5962 46.6662 10.0356 45.8294 10.0356L44.7476 11.016L43.6661 10.0359C42.8294 10.0359 42.2558 10.5962 42.7046 11.798C42.762 11.9516 42.8992 12.1773 43.029 12.3758C42.0207 12.2373 40.7334 11.5469 40.4512 10.0681C40.4512 10.0681 41.1962 8.88461 41.3834 8.40562C42.0551 6.6831 41.1971 5.9791 39.9424 5.9791L38.3224 7.88324L36.7024 5.9791C35.4477 5.9791 34.5898 6.6831 35.2623 8.40562C35.4484 8.88461 36.1943 10.0682 36.1943 10.0682C35.9114 11.5469 34.6244 12.2373 33.6161 12.3759C33.7466 12.1772 33.8831 11.9516 33.9402 11.7979C34.3882 10.5962 33.8162 10.0357 32.9788 10.0357L31.897 11.0162L30.8153 10.036C29.978 10.036 29.406 10.5964 29.8541 11.7982C29.9788 12.132 30.4761 12.8064 30.4761 12.8064ZM59.8557 21.6149C59.3072 21.8925 56.0893 23.3999 51.9672 22.8423C52.01 22.6457 52.0462 22.4478 52.0759 22.2488C54.8193 21.9206 57.0494 21.4552 58.4706 20.6648C60.0905 19.7631 60.7989 17.6106 59.9813 16.0094C59.9601 15.9691 59.9013 15.9618 59.8721 15.9958C59.4239 16.5116 56.6065 19.5765 52.1675 20.5293C52.1562 20.2993 52.1352 20.0699 52.1046 19.8417C54.2606 18.6191 56.3653 17.2103 57.3679 15.9222C58.8827 13.9746 58.7434 11.4903 57.3017 10.2237C57.2943 10.2174 57.2856 10.2126 57.2763 10.2099C57.2669 10.2072 57.257 10.2064 57.2474 10.2078C57.2377 10.2092 57.2285 10.2126 57.2202 10.2178C57.212 10.223 57.2049 10.23 57.1996 10.2381C56.7435 10.9907 52.474 17.8911 47.7866 20.8704C47.7295 20.9069 47.6718 20.9427 47.6137 20.9778C47.4792 21.0594 47.4645 21.2342 47.5788 21.3378C48.1195 21.8276 48.4553 22.5091 48.4553 23.2659C48.4553 24.5818 47.4412 25.6761 46.1005 25.9135C45.4193 26.0455 44.4361 26.0071 43.4913 25.6947C43.4489 25.6811 43.4049 25.7091 43.4049 25.7518V29.9187C43.4049 29.9858 43.5068 30.0025 43.5308 29.9384C44.1052 28.4169 45.8241 28.0938 46.5759 28.0938C46.8464 29.7197 47.3296 31.0664 47.9573 31.7913C48.9796 32.9691 50.6489 32.9526 51.3726 32.1383C51.3785 32.1316 51.3828 32.1237 51.3852 32.1151C51.3876 32.1066 51.388 32.0976 51.3864 32.0889C51.3849 32.0801 51.3813 32.0718 51.3762 32.0646C51.371 32.0574 51.3642 32.0515 51.3564 32.0472C50.9311 31.803 48.4979 30.3089 48.0109 27.8609C48.2021 27.796 48.389 27.7191 48.5704 27.6307C49.3559 28.9305 50.4992 30.0882 51.4195 30.5305C52.9656 31.2719 54.3809 30.9113 55.0085 29.8257C55.0313 29.7875 55.0034 29.7398 54.9573 29.7356C54.0009 29.6593 51.0662 28.8181 49.8166 26.7689C49.9611 26.6377 50.0991 26.4994 50.2302 26.3547C51.538 27.3503 53.3866 28.2303 54.7103 28.41C56.2591 28.6206 58.0139 28.1262 58.0564 26.3253C58.0571 26.2893 58.0248 26.2597 57.9866 26.2619C57.4358 26.2952 53.7907 26.4538 51.1931 24.9628C51.2834 24.7912 51.3676 24.6166 51.4455 24.4391C51.4455 24.4391 55.3703 25.3668 57.2299 25.0596C59.0779 24.7546 60.1603 23.377 59.9514 21.663C59.9453 21.6205 59.8954 21.5947 59.8557 21.6149ZM25.1992 24.4384C25.2773 24.616 25.3617 24.7907 25.4521 24.9623C22.8554 26.4526 19.2117 26.2952 18.6585 26.2614C18.6197 26.2593 18.5872 26.2902 18.5881 26.3256C18.6314 28.1259 20.3856 28.6201 21.9344 28.4095C23.2574 28.2299 25.1069 27.3499 26.4143 26.3544C26.5456 26.4989 26.6836 26.6372 26.8279 26.7686C25.5777 28.8177 22.6434 29.659 21.6872 29.7353C21.641 29.7398 21.614 29.7873 21.636 29.8256C22.2636 30.9111 23.6789 31.2718 25.2257 30.5303C26.1452 30.088 27.2884 28.9304 28.0736 27.6306C28.2553 27.7187 28.4423 27.7956 28.6335 27.8607C28.1464 30.3088 25.7132 31.8025 25.2879 32.0472C25.2802 32.0515 25.2735 32.0575 25.2683 32.0647C25.2632 32.0719 25.2597 32.0802 25.2581 32.0889C25.2566 32.0976 25.257 32.1066 25.2593 32.1151C25.2617 32.1237 25.2659 32.1316 25.2717 32.1383C25.9954 32.9524 27.6653 32.969 28.6876 31.7911C29.3153 31.0662 29.7979 29.7195 30.0683 28.0936C30.8209 28.0936 32.5391 28.4168 33.1134 29.9381C33.1381 30.0023 33.2401 29.9856 33.2401 29.9184V25.7516C33.2401 25.7091 33.1953 25.6809 33.1529 25.6946C32.2084 26.0071 31.2249 26.045 30.5444 25.913C29.2032 25.6759 28.1889 24.5817 28.1889 23.2659C28.1889 22.5094 28.5257 21.8271 29.0653 21.3375C29.1806 21.2343 29.165 21.0596 29.0316 20.9779C28.973 20.9429 28.9148 20.9071 28.8571 20.8707C24.1725 17.8931 19.9054 10.9974 19.4454 10.24C19.44 10.2316 19.4328 10.2245 19.4244 10.2191C19.4161 10.2137 19.4066 10.2102 19.3968 10.2087C19.3869 10.2073 19.3769 10.208 19.3673 10.2107C19.3577 10.2135 19.3488 10.2183 19.3413 10.2248C17.9017 11.4921 17.7618 13.9754 19.2768 15.9225C20.2794 17.2106 22.3841 18.6194 24.5393 19.842C24.509 20.0701 24.4882 20.2994 24.4771 20.5293C20.0418 19.5774 17.2265 16.5177 16.7741 15.9982C16.7438 15.9627 16.6838 15.9698 16.6634 16.0103C15.8471 17.6125 16.5556 19.7632 18.1739 20.6649C19.5953 21.4554 21.8255 21.9207 24.5688 22.2489C24.5984 22.4479 24.6346 22.6459 24.6773 22.8425C20.5595 23.3993 17.3432 21.8954 16.7903 21.6156C16.7494 21.5947 16.6996 21.6206 16.6945 21.6639C16.4861 23.3777 17.5678 24.754 19.4158 25.0591C21.2748 25.3664 25.1992 24.4384 25.1992 24.4384ZM50.7237 37.3031L49.2936 36.1779C48.7228 36.5178 48.3034 37.0573 48.1405 37.6899C47.2802 37.8102 44.9351 37.2893 45.1632 36.9438C47.7334 33.3287 45.7675 31.1762 43.4047 31.2961V33.7236C43.4047 34.5035 42.7242 35.1354 41.8859 35.1354H40.2543C39.0839 35.1354 38.3219 36.3119 38.3219 36.3119C38.3219 36.3119 37.56 35.1353 36.3896 35.1353H34.7581C33.9191 35.1353 33.2401 34.5034 33.2401 33.7236V31.2961C30.8773 31.1762 28.9099 33.3286 31.4809 36.9437C31.7069 37.2857 29.2963 37.8331 28.1657 37.6947C27.8677 37.3858 27.438 37.191 26.9569 37.191C26.7523 37.1911 26.5494 37.2276 26.3576 37.2987C26.3576 37.2987 21.9145 33.0919 21.8332 33.0508L21.8696 32.9658C22.123 32.4924 21.7356 31.9765 21.4908 32.013C21.7752 31.6716 21.7884 30.1779 20.2102 29.8322C20.2565 30.1323 20.28 30.7447 20.28 30.7447C20.28 30.7447 19.062 30.0862 18.4502 30.6546C17.9128 31.2908 18.6585 32.4449 18.6585 32.4449C18.6585 32.4449 18.0352 32.4601 17.728 32.434C18.1797 33.9619 19.6948 33.8537 20.0225 33.5522C20.0013 33.795 20.549 34.1413 21.0133 33.8637L21.2172 33.7651C21.2532 33.8132 25.5805 37.9017 25.5805 37.9017C25.3817 38.1966 25.2872 38.5586 25.3524 38.9446C25.4551 39.5477 25.9574 40.0477 26.5991 40.1775C27.0523 40.2686 27.4784 40.1806 27.8201 39.9806L28.9656 41.0437C29.0672 41.1363 29.2053 41.1939 29.3592 41.183C29.6394 41.1642 29.8492 40.9372 29.828 40.6767C29.8189 40.5591 29.7588 40.4582 29.676 40.3816C29.6578 40.3616 28.5092 39.2953 28.5092 39.2953C29.4567 38.6312 31.222 38.1631 32.6871 38.1631C32.9444 38.1631 33.0655 37.9452 32.9769 37.7317C32.3131 36.1356 33.74 34.9792 35.2163 35.9205C35.8602 36.3309 36.5143 37.1394 37.0071 38.4884C34.5851 39.0748 31.544 40.6905 30.9287 42.4541C30.6917 43.1351 31.4743 44.0633 32.4247 44.2501C32.4331 44.2519 32.4417 44.2521 32.45 44.2506C32.4584 44.2491 32.4664 44.2459 32.4736 44.2413C32.4807 44.2366 32.4869 44.2306 32.4917 44.2236C32.4965 44.2166 32.4999 44.2087 32.5017 44.2003C32.9981 41.5675 35.8296 39.6055 37.3028 39.2723C37.3767 39.4706 37.3526 39.4065 37.4266 39.604C35.822 40.3629 34.2659 41.9633 33.8217 43.8662C33.6176 44.7376 34.5894 45.5231 35.3916 45.7381C35.4319 45.7487 35.4715 45.7208 35.4738 45.6819C35.6263 43.2756 36.6888 41.2319 37.6407 40.3022C37.6668 40.4841 37.6864 40.6668 37.6994 40.85C37.6994 40.85 36.7247 43.5655 36.7247 45.5469C36.7247 46.4688 38.0948 47.1122 38.2971 47.2022C38.55 47.1122 39.919 46.4688 39.919 45.5469C39.919 43.5654 38.9446 40.8498 38.9446 40.8498C38.9579 40.6666 38.9778 40.4839 39.0041 40.3021C39.9554 41.2322 41.0185 43.2748 41.1704 45.6812C41.1713 45.6906 41.1742 45.6998 41.179 45.708C41.1838 45.7162 41.1904 45.7232 41.1982 45.7286C41.206 45.7341 41.2148 45.7377 41.2242 45.7393C41.2336 45.741 41.2432 45.7405 41.2523 45.7381C42.0556 45.5231 43.0265 44.7376 42.8233 43.8662C42.3781 41.9636 40.8228 40.3629 39.2183 39.604C39.2916 39.4065 39.2673 39.4705 39.3415 39.2722C40.8155 39.6054 43.6459 41.5673 44.1425 44.2002C44.1462 44.217 44.1563 44.2316 44.1707 44.2409C44.1852 44.2502 44.2027 44.2534 44.2195 44.2498C45.1693 44.0632 45.9531 43.1346 45.7147 42.4538C45.101 40.6902 42.0591 39.0745 39.6366 38.4881C40.1303 37.1393 40.7846 36.3306 41.4285 35.9202C42.9039 34.9789 44.331 36.1351 43.6672 37.7314C43.5786 37.9449 43.6987 38.1628 43.957 38.1628C45.6143 38.1628 47.656 38.7613 48.4639 39.5643C48.9803 40.339 49.9341 40.8345 51.0108 40.7284C52.234 40.6086 53.2314 39.6897 53.3692 38.5536C53.4895 37.5583 52.9747 36.6647 52.1542 36.1776L50.7237 37.3031ZM40.1834 30.0519C40.6929 29.8629 41.4916 30.0158 41.4645 30.7514C41.4579 30.9183 41.6917 30.9183 41.7087 30.7479C41.8612 29.6464 41.117 29.3293 40.3381 29.4582C40.2413 29.0795 40.1621 28.7485 40.0719 28.4204C40 28.1549 39.9736 27.6564 40.2809 27.6564C40.4465 27.6564 40.3799 28.12 40.3643 28.3198C40.3507 28.4951 40.4136 28.6011 40.5559 28.6061C40.6445 28.6098 40.7553 28.4966 40.8214 28.4215C41.2672 27.9173 41.3707 27.1369 40.8485 26.7604C40.4115 26.4444 39.3173 26.6796 39.0165 27.1297C38.971 26.9601 38.7541 26.6802 38.65 26.5583C38.5488 26.4392 38.5225 26.3578 38.6624 26.2534C38.7284 26.2027 38.9279 26.0042 38.9279 25.7994C38.9279 25.6783 38.8339 25.4547 38.5356 25.4547C38.3001 25.4547 38.0384 25.6176 38.0384 25.9812C38.0384 26.062 38.0581 26.1485 38.1101 26.2417C37.9615 26.2171 37.5573 26.2271 37.3497 26.2784L40.2193 34.1529C41.0407 33.7475 41.6429 33.1055 41.6429 32.4165C41.6429 31.8294 40.7781 32.0242 40.3581 32.4822C40.223 31.7377 40.1029 31.0503 39.9715 30.3651C39.9357 30.176 40.0317 30.1088 40.1834 30.0519ZM36.1257 24.7026L36.7287 26.3776C36.2125 26.5005 35.3823 26.8768 35.3823 27.3752C35.3823 28.0389 36.5566 28.471 37.2355 28.4191C37.2018 28.5705 37.2406 28.7054 37.3462 28.8287C37.0998 28.8287 36.6349 28.9434 36.4823 29.1079C36.1223 28.7726 35.5591 28.6505 35.2913 28.8545C35.0223 29.0603 35.0142 29.4086 35.2951 29.8025C35.4908 30.0751 35.5642 30.3441 35.3442 30.66C36.1625 30.66 35.8611 29.5961 36.1817 29.5961C36.1397 29.8025 36.1653 30.0412 36.2585 30.3059C36.3201 30.4819 36.3201 30.6069 36.2145 30.7763C35.9505 31.1984 35.5399 32.1676 35.5955 33.0442C35.3272 33.0427 35.1908 32.9772 35.2853 32.6106C35.3205 32.4744 35.2363 32.3769 35.1248 32.5451C35.0016 32.7305 34.9421 33.0473 34.9421 33.1826C34.9421 33.9631 35.8722 34.1203 36.2269 33.9552C37.2537 34.949 39.2705 34.6838 39.9457 34.3504L36.3949 24.6078C36.3224 24.4237 36.062 24.5114 36.1257 24.7026ZM36.0028 32.728C35.9294 32.327 36.4875 31.6101 37.1974 30.9183C37.0463 31.3692 37.1402 32.146 37.4365 32.4137C36.9215 32.4137 36.3101 32.5103 36.0028 32.728Z" fill="#E7B668"/>
<path fill-rule="evenodd" clip-rule="evenodd" d="M23.6943 75.2779C24.657 76.2146 26.0198 76.6829 27.7826 76.6829C29.2878 76.6829 30.5353 76.2501 31.5252 75.3844C32.5286 74.5045 33.0303 73.2201 33.0303 71.5313V71.3184H30.5895V71.5313C30.5895 72.4538 30.298 73.1563 29.7149 73.6388C29.1318 74.1071 28.4809 74.3413 27.7623 74.3413C26.7453 74.3413 25.9791 74.1 25.4638 73.6175C24.9486 73.1208 24.6909 72.4112 24.6909 71.4887V66.3371C24.6909 65.4146 24.9486 64.7121 25.4638 64.2296C25.9791 63.7329 26.7453 63.4845 27.7623 63.4845C28.4809 63.4845 29.1318 63.7258 29.7149 64.2083C30.298 64.6766 30.5895 65.372 30.5895 66.2945V66.5074H33.0303V66.2945C33.0303 64.6057 32.5286 63.3213 31.5252 62.4414C30.5353 61.5757 29.2878 61.1429 27.7826 61.1429C26.0198 61.1429 24.657 61.6112 23.6943 62.5479C22.7315 63.4845 22.2501 64.8044 22.2501 66.5074V71.3184C22.2501 73.0214 22.7315 74.3413 23.6943 75.2779ZM54.4082 76.3926C54.9954 76.5883 55.6246 76.6862 56.2957 76.6862C57.0997 76.6862 57.8338 76.5464 58.4979 76.2667C59.1621 75.9871 59.7668 75.5851 60.3121 75.0608C60.6687 74.6973 60.9483 74.3162 61.151 73.9178C61.3538 73.5193 61.5006 73.0823 61.5915 72.6069C61.6824 72.1246 61.7348 71.5827 61.7488 70.9815C61.7628 70.3803 61.7698 69.6917 61.7698 68.9157C61.7698 68.1257 61.7628 67.4266 61.7488 66.8184C61.7348 66.2101 61.6824 65.6718 61.5915 65.2034C61.5006 64.728 61.3538 64.2981 61.151 63.9136C60.9483 63.5221 60.6687 63.1411 60.3121 62.7705C59.7668 62.2392 59.1621 61.8372 58.4979 61.5646C57.8338 61.2849 57.0997 61.1451 56.2957 61.1451C55.6106 61.1451 54.9709 61.257 54.3767 61.4807C53.7825 61.6974 53.2476 62.005 52.7722 62.4035C52.3038 62.795 51.9053 63.2704 51.5768 63.8297C51.2482 64.382 51.0105 64.9972 50.8637 65.6753H53.3385C53.5483 65.0112 53.8943 64.4764 54.3767 64.0709C54.8591 63.6654 55.4918 63.4627 56.2748 63.4627C56.7502 63.4627 57.1801 63.543 57.5646 63.7038C57.9491 63.8576 58.2847 64.0779 58.5713 64.3645C58.7461 64.5323 58.8859 64.714 58.9908 64.9098C59.1027 65.1055 59.19 65.3328 59.253 65.5914C59.3159 65.8431 59.3613 66.1507 59.3893 66.5142C59.4173 66.8708 59.4312 67.3042 59.4312 67.8146H54.2404V69.8804H59.4312C59.4312 70.3978 59.4173 70.8452 59.3893 71.2227C59.3613 71.6002 59.3194 71.9253 59.2635 72.198C59.2075 72.4706 59.1201 72.7083 59.0013 72.911C58.8894 73.1138 58.7461 73.299 58.5713 73.4668C58.2847 73.7535 57.9491 73.9772 57.5646 74.138C57.1801 74.2918 56.7502 74.3687 56.2748 74.3687C55.5058 74.3687 54.8835 74.1799 54.4082 73.8024C53.9328 73.4249 53.5832 72.918 53.3595 72.2819H50.9056C51.0524 72.974 51.2936 73.5962 51.6292 74.1485C51.9648 74.6938 52.3633 75.1552 52.8247 75.5327C53.2931 75.9032 53.8209 76.1898 54.4082 76.3926ZM64.2293 74.3687H62.8345V80H65.0262V76.5604H74.4537V80H76.6454V74.3687H74.8417V61.271H66.1064C66.1064 63.2425 66.0679 64.9168 65.991 66.2941C65.9211 67.6713 65.8057 68.8528 65.645 69.8385C65.4911 70.8243 65.2954 71.6702 65.0577 72.3763C64.827 73.0754 64.5509 73.7395 64.2293 74.3687ZM72.5242 63.4627V74.3687H66.7041C66.9628 73.8234 67.19 73.2397 67.3857 72.6175C67.5885 71.9953 67.7563 71.2647 67.8891 70.4258C68.0289 69.5868 68.1338 68.6081 68.2037 67.4895C68.2806 66.364 68.319 65.0217 68.319 63.4627H72.5242ZM0 61.271H9.18627V63.4627H2.31754V76.5604H0V61.271ZM44.4982 76.6829C42.7354 76.6829 41.3726 76.2146 40.4098 75.2779C39.4471 74.3413 38.9657 73.0214 38.9657 71.3184V66.5074C38.9657 64.8044 39.4471 63.4845 40.4098 62.5479C41.3726 61.6112 42.7354 61.1429 44.4982 61.1429C46.0034 61.1429 47.2509 61.5757 48.2408 62.4414C49.2442 63.3213 49.7459 64.6057 49.7459 66.2945V66.5074H47.3051V66.2945C47.3051 65.372 47.0136 64.6766 46.4305 64.2083C45.8474 63.7258 45.1965 63.4845 44.4779 63.4845C43.4609 63.4845 42.6947 63.7329 42.1794 64.2296C41.6642 64.7121 41.4065 65.4146 41.4065 66.3371V71.4887C41.4065 72.4112 41.6642 73.1208 42.1794 73.6175C42.6947 74.1 43.4609 74.3413 44.4779 74.3413C45.1965 74.3413 45.8474 74.1071 46.4305 73.6388C47.0136 73.1563 47.3051 72.4538 47.3051 71.5313V71.3184H49.7459V71.5313C49.7459 73.2201 49.2442 74.5045 48.2408 75.3844C47.2509 76.2501 46.0034 76.6829 44.4982 76.6829ZM18.7492 66.3797V71.4461C18.7492 72.3118 18.4803 73.0143 17.9424 73.5536C17.4045 74.0787 16.6567 74.3413 15.699 74.3413C14.7412 74.3413 13.9934 74.0787 13.4555 73.5536C12.9176 73.0143 12.6487 72.3118 12.6487 71.4461V66.3797C12.6487 65.514 12.9176 64.8186 13.4555 64.2935C13.9934 63.7542 14.7412 63.4845 15.699 63.4845C16.6567 63.4845 17.4045 63.7542 17.9424 64.2935C18.4803 64.8186 18.7492 65.514 18.7492 66.3797ZM10.2872 66.5074V71.3184C10.2872 72.9789 10.7726 74.2916 11.7434 75.2566C12.7143 76.2075 14.0328 76.6829 15.699 76.6829C17.3651 76.6829 18.6836 76.2075 19.6545 75.2566C20.6253 74.2916 21.1107 72.9789 21.1107 71.3184V66.5074C21.1107 64.8469 20.6253 63.5413 19.6545 62.5904C18.6836 61.6254 17.3651 61.1429 15.699 61.1429C14.0328 61.1429 12.7143 61.6254 11.7434 62.5904C10.7726 63.5413 10.2872 64.8469 10.2872 66.5074Z" fill="#F3F4F8"/>
</svg>
