<svg width="205" height="152" viewBox="0 0 205 152" fill="none" xmlns="http://www.w3.org/2000/svg">
<path d="M204 133.347L1 134.347" stroke="#E3EDF8"/>
<rect x="12.6533" y="103.978" width="20" height="30" rx="4" fill="#CCD9EC"/>
<rect x="52.6533" y="85.5356" width="20" height="48.4418" rx="4" fill="#CCD9EC"/>
<rect x="92.6533" y="63.1797" width="20" height="70.7976" rx="4" fill="#CCD9EC"/>
<rect x="132.653" y="63.1797" width="20" height="70.7976" rx="4" fill="#CCD9EC"/>
<rect x="172.653" y="39.2817" width="20" height="94.6959" rx="4" fill="#4377EB"/>
<path opacity="0.8" d="M22.6724 149.427C22.4004 149.427 22.1417 149.381 21.8964 149.291C21.6564 149.2 21.4457 149.045 21.2644 148.827C21.083 148.603 20.939 148.307 20.8324 147.939C20.7257 147.565 20.6724 147.101 20.6724 146.547V146.387C20.6724 145.869 20.7257 145.437 20.8324 145.091C20.939 144.744 21.083 144.467 21.2644 144.259C21.4457 144.045 21.6564 143.893 21.8964 143.803C22.1417 143.712 22.4004 143.667 22.6724 143.667C22.9444 143.667 23.2004 143.712 23.4404 143.803C23.6857 143.893 23.899 144.045 24.0804 144.259C24.2617 144.467 24.4057 144.744 24.5124 145.091C24.619 145.437 24.6724 145.869 24.6724 146.387V146.547C24.6724 147.101 24.619 147.565 24.5124 147.939C24.4057 148.307 24.2617 148.603 24.0804 148.827C23.899 149.045 23.6857 149.2 23.4404 149.291C23.2004 149.381 22.9444 149.427 22.6724 149.427ZM22.6724 148.771C22.8377 148.771 22.995 148.741 23.1444 148.683C23.299 148.619 23.4324 148.507 23.5444 148.347C23.6617 148.181 23.7524 147.955 23.8164 147.667C23.8857 147.379 23.9204 147.005 23.9204 146.547V146.387C23.9204 145.971 23.8857 145.629 23.8164 145.363C23.7524 145.096 23.6617 144.885 23.5444 144.731C23.4324 144.576 23.299 144.469 23.1444 144.411C22.995 144.352 22.8377 144.323 22.6724 144.323C22.5017 144.323 22.3417 144.352 22.1924 144.411C22.043 144.469 21.9097 144.576 21.7924 144.731C21.6804 144.885 21.5897 145.096 21.5204 145.363C21.4564 145.629 21.4244 145.971 21.4244 146.387V146.547C21.4244 147.005 21.4564 147.379 21.5204 147.667C21.5897 147.955 21.6804 148.181 21.7924 148.347C21.9097 148.507 22.043 148.619 22.1924 148.683C22.3417 148.741 22.5017 148.771 22.6724 148.771Z" fill="#CCD9EC"/>
<path opacity="0.8" d="M59.8327 149.427C59.5287 149.427 59.2647 149.387 59.0407 149.307C58.8167 149.221 58.6274 149.112 58.4727 148.979C58.3234 148.84 58.2087 148.685 58.1287 148.515C58.0487 148.344 58.0034 148.168 57.9927 147.987H58.7447C58.7714 148.189 58.878 148.368 59.0647 148.523C59.2567 148.677 59.5127 148.755 59.8327 148.755C60.1954 148.755 60.4807 148.643 60.6887 148.419C60.8967 148.189 61.0007 147.872 61.0007 147.467C61.0007 147.237 60.966 147.04 60.8967 146.875C60.8327 146.709 60.7447 146.576 60.6327 146.475C60.526 146.373 60.4034 146.299 60.2647 146.251C60.126 146.203 59.982 146.179 59.8327 146.179C59.5447 146.179 59.318 146.232 59.1527 146.339C58.9927 146.445 58.87 146.568 58.7847 146.707H58.1127V143.747H61.4327V144.403H58.8647V145.963C59.142 145.659 59.5047 145.507 59.9527 145.507C60.5074 145.507 60.9447 145.675 61.2647 146.011C61.59 146.347 61.7527 146.832 61.7527 147.467C61.7527 147.765 61.7047 148.037 61.6087 148.283C61.518 148.523 61.3874 148.728 61.2167 148.899C61.0514 149.069 60.8487 149.2 60.6087 149.291C60.374 149.381 60.1154 149.427 59.8327 149.427Z" fill="#CCD9EC"/>
<path opacity="0.8" d="M94.7496 148.691H96.0856V144.571L94.7496 145.523V144.707L96.1016 143.747H96.8536V148.691H97.9496V149.347H94.7496V148.691ZM100.672 149.427C100.4 149.427 100.142 149.381 99.8964 149.291C99.6564 149.2 99.4457 149.045 99.2644 148.827C99.083 148.603 98.939 148.307 98.8324 147.939C98.7257 147.565 98.6724 147.101 98.6724 146.547V146.387C98.6724 145.869 98.7257 145.437 98.8324 145.091C98.939 144.744 99.083 144.467 99.2644 144.259C99.4457 144.045 99.6564 143.893 99.8964 143.803C100.142 143.712 100.4 143.667 100.672 143.667C100.944 143.667 101.2 143.712 101.44 143.803C101.686 143.893 101.899 144.045 102.08 144.259C102.262 144.467 102.406 144.744 102.512 145.091C102.619 145.437 102.672 145.869 102.672 146.387V146.547C102.672 147.101 102.619 147.565 102.512 147.939C102.406 148.307 102.262 148.603 102.08 148.827C101.899 149.045 101.686 149.2 101.44 149.291C101.2 149.381 100.944 149.427 100.672 149.427ZM100.672 148.771C100.838 148.771 100.995 148.741 101.144 148.683C101.299 148.619 101.432 148.507 101.544 148.347C101.662 148.181 101.752 147.955 101.816 147.667C101.886 147.379 101.92 147.005 101.92 146.547V146.387C101.92 145.971 101.886 145.629 101.816 145.363C101.752 145.096 101.662 144.885 101.544 144.731C101.432 144.576 101.299 144.469 101.144 144.411C100.995 144.352 100.838 144.323 100.672 144.323C100.502 144.323 100.342 144.352 100.192 144.411C100.043 144.469 99.9097 144.576 99.7924 144.731C99.6804 144.885 99.5897 145.096 99.5204 145.363C99.4564 145.629 99.4244 145.971 99.4244 146.387V146.547C99.4244 147.005 99.4564 147.379 99.5204 147.667C99.5897 147.955 99.6804 148.181 99.7924 148.347C99.9097 148.507 100.043 148.619 100.192 148.683C100.342 148.741 100.502 148.771 100.672 148.771Z" fill="#CCD9EC"/>
<path opacity="0.8" d="M136.07 148.691H137.406V144.571L136.07 145.523V144.707L137.422 143.747H138.174V148.691H139.27V149.347H136.07V148.691ZM141.833 149.427C141.529 149.427 141.265 149.387 141.041 149.307C140.817 149.221 140.627 149.112 140.473 148.979C140.323 148.84 140.209 148.685 140.129 148.515C140.049 148.344 140.003 148.168 139.993 147.987H140.745C140.771 148.189 140.878 148.368 141.065 148.523C141.257 148.677 141.513 148.755 141.833 148.755C142.195 148.755 142.481 148.643 142.689 148.419C142.897 148.189 143.001 147.872 143.001 147.467C143.001 147.237 142.966 147.04 142.897 146.875C142.833 146.709 142.745 146.576 142.633 146.475C142.526 146.373 142.403 146.299 142.265 146.251C142.126 146.203 141.982 146.179 141.833 146.179C141.545 146.179 141.318 146.232 141.153 146.339C140.993 146.445 140.87 146.568 140.785 146.707H140.113V143.747H143.433V144.403H140.865V145.963C141.142 145.659 141.505 145.507 141.953 145.507C142.507 145.507 142.945 145.675 143.265 146.011C143.59 146.347 143.753 146.832 143.753 147.467C143.753 147.765 143.705 148.037 143.609 148.283C143.518 148.523 143.387 148.728 143.217 148.899C143.051 149.069 142.849 149.2 142.609 149.291C142.374 149.381 142.115 149.427 141.833 149.427Z" fill="#CCD9EC"/>
<path opacity="0.8" d="M176.872 148.731L179.112 146.787C179.282 146.643 179.421 146.512 179.528 146.395C179.64 146.277 179.728 146.168 179.792 146.067C179.856 145.96 179.898 145.856 179.92 145.755C179.946 145.653 179.96 145.544 179.96 145.427C179.96 145.112 179.866 144.853 179.68 144.651C179.493 144.443 179.237 144.339 178.912 144.339C178.522 144.339 178.224 144.445 178.016 144.659C177.808 144.867 177.704 145.163 177.704 145.547H176.952C176.952 145.275 176.997 145.024 177.088 144.795C177.184 144.56 177.317 144.36 177.488 144.195C177.664 144.029 177.872 143.901 178.112 143.811C178.352 143.715 178.618 143.667 178.912 143.667C179.194 143.667 179.448 143.712 179.672 143.803C179.896 143.888 180.085 144.011 180.24 144.171C180.394 144.325 180.512 144.509 180.592 144.723C180.672 144.936 180.712 145.171 180.712 145.427C180.712 145.619 180.682 145.797 180.624 145.963C180.565 146.128 180.482 146.285 180.376 146.435C180.274 146.584 180.149 146.731 180 146.875C179.856 147.013 179.696 147.157 179.52 147.307L177.848 148.691H180.792V149.347H176.872V148.731ZM183.672 149.427C183.4 149.427 183.142 149.381 182.896 149.291C182.656 149.2 182.446 149.045 182.264 148.827C182.083 148.603 181.939 148.307 181.832 147.939C181.726 147.565 181.672 147.101 181.672 146.547V146.387C181.672 145.869 181.726 145.437 181.832 145.091C181.939 144.744 182.083 144.467 182.264 144.259C182.446 144.045 182.656 143.893 182.896 143.803C183.142 143.712 183.4 143.667 183.672 143.667C183.944 143.667 184.2 143.712 184.44 143.803C184.686 143.893 184.899 144.045 185.08 144.259C185.262 144.467 185.406 144.744 185.512 145.091C185.619 145.437 185.672 145.869 185.672 146.387V146.547C185.672 147.101 185.619 147.565 185.512 147.939C185.406 148.307 185.262 148.603 185.08 148.827C184.899 149.045 184.686 149.2 184.44 149.291C184.2 149.381 183.944 149.427 183.672 149.427ZM183.672 148.771C183.838 148.771 183.995 148.741 184.144 148.683C184.299 148.619 184.432 148.507 184.544 148.347C184.662 148.181 184.752 147.955 184.816 147.667C184.886 147.379 184.92 147.005 184.92 146.547V146.387C184.92 145.971 184.886 145.629 184.816 145.363C184.752 145.096 184.662 144.885 184.544 144.731C184.432 144.576 184.299 144.469 184.144 144.411C183.995 144.352 183.838 144.323 183.672 144.323C183.502 144.323 183.342 144.352 183.192 144.411C183.043 144.469 182.91 144.576 182.792 144.731C182.68 144.885 182.59 145.096 182.52 145.363C182.456 145.629 182.424 145.971 182.424 146.387V146.547C182.424 147.005 182.456 147.379 182.52 147.667C182.59 147.955 182.68 148.181 182.792 148.347C182.91 148.507 183.043 148.619 183.192 148.683C183.342 148.741 183.502 148.771 183.672 148.771Z" fill="#CCD9EC"/>
<path d="M70.6905 24.9834C68.4665 24.9834 66.7705 24.3514 65.6025 23.0874C64.4345 21.8074 63.8505 19.7354 63.8505 16.8714V16.3914C63.8505 14.8074 64.0185 13.4634 64.3545 12.3594C64.7065 11.2394 65.1865 10.3274 65.7945 9.62339C66.4185 8.90339 67.1625 8.38339 68.0265 8.06339C68.9065 7.72739 69.8745 7.55939 70.9305 7.55939C72.5945 7.55939 73.9225 7.90339 74.9145 8.59139C75.9225 9.26339 76.5145 10.4234 76.6905 12.0714H72.6105C72.3865 11.3034 71.7865 10.9194 70.8105 10.9194C70.3945 10.9194 70.0185 10.9834 69.6825 11.1114C69.3465 11.2394 69.0585 11.4714 68.8185 11.8074C68.5785 12.1274 68.3785 12.5674 68.2185 13.1274C68.0745 13.6714 67.9945 14.3594 67.9785 15.1914C68.3625 14.6314 68.8985 14.2394 69.5865 14.0154C70.2745 13.7914 71.0105 13.6794 71.7945 13.6794C73.4745 13.6794 74.7705 14.1594 75.6825 15.1194C76.5945 16.0634 77.0505 17.3274 77.0505 18.9114V19.1754C77.0505 20.0554 76.8985 20.8554 76.5945 21.5754C76.2905 22.2794 75.8585 22.8874 75.2985 23.3994C74.7385 23.8954 74.0665 24.2874 73.2825 24.5754C72.5145 24.8474 71.6505 24.9834 70.6905 24.9834ZM70.4505 21.6234C71.1545 21.6234 71.7065 21.4234 72.1065 21.0234C72.5225 20.6074 72.7305 20.0394 72.7305 19.3194V19.0794C72.7305 18.3754 72.5225 17.8234 72.1065 17.4234C71.7065 17.0074 71.1545 16.7994 70.4505 16.7994C69.7465 16.7994 69.1865 17.0074 68.7705 17.4234C68.3705 17.8234 68.1705 18.3754 68.1705 19.0794V19.3194C68.1705 20.0394 68.3705 20.6074 68.7705 21.0234C69.1865 21.4234 69.7465 21.6234 70.4505 21.6234ZM85.8049 24.9834C84.8609 24.9834 83.9809 24.8314 83.1649 24.5274C82.3489 24.2074 81.6369 23.7034 81.0289 23.0154C80.4209 22.3274 79.9409 21.4314 79.5889 20.3274C79.2529 19.2074 79.0849 17.8554 79.0849 16.2714V15.7914C79.0849 14.3194 79.2529 13.0634 79.5889 12.0234C79.9409 10.9834 80.4209 10.1354 81.0289 9.47939C81.6369 8.80739 82.3489 8.31939 83.1649 8.01539C83.9809 7.71139 84.8609 7.55939 85.8049 7.55939C86.7489 7.55939 87.6289 7.71139 88.4449 8.01539C89.2609 8.31939 89.9729 8.80739 90.5809 9.47939C91.1889 10.1354 91.6609 10.9834 91.9969 12.0234C92.3489 13.0634 92.5249 14.3194 92.5249 15.7914V16.2714C92.5249 17.8554 92.3489 19.2074 91.9969 20.3274C91.6609 21.4314 91.1889 22.3274 90.5809 23.0154C89.9729 23.7034 89.2609 24.2074 88.4449 24.5274C87.6289 24.8314 86.7489 24.9834 85.8049 24.9834ZM85.8049 21.4314C86.1249 21.4314 86.4289 21.3514 86.7169 21.1914C87.0209 21.0314 87.2769 20.7594 87.4849 20.3754C87.7089 19.9754 87.8849 19.4474 88.0129 18.7914C88.1409 18.1194 88.2049 17.2794 88.2049 16.2714V15.7914C88.2049 14.9114 88.1409 14.1754 88.0129 13.5834C87.8849 12.9754 87.7089 12.4874 87.4849 12.1194C87.2769 11.7514 87.0209 11.4954 86.7169 11.3514C86.4289 11.1914 86.1249 11.1114 85.8049 11.1114C85.4849 11.1114 85.1729 11.1914 84.8689 11.3514C84.5809 11.4954 84.3249 11.7514 84.1009 12.1194C83.8929 12.4874 83.7249 12.9754 83.5969 13.5834C83.4689 14.1754 83.4049 14.9114 83.4049 15.7914V16.2714C83.4049 17.2794 83.4689 18.1194 83.5969 18.7914C83.7249 19.4474 83.8929 19.9754 84.1009 20.3754C84.3249 20.7594 84.5809 21.0314 84.8689 21.1914C85.1729 21.3514 85.4849 21.4314 85.8049 21.4314ZM107.414 7.87139H111.254L99.7343 24.6714H95.8943L107.414 7.87139ZM98.0783 15.8634C96.7823 15.8634 95.7583 15.4954 95.0063 14.7594C94.2543 14.0234 93.8783 13.0474 93.8783 11.8314V11.5914C93.8783 10.3754 94.2543 9.39939 95.0063 8.66339C95.7583 7.92739 96.7823 7.55939 98.0783 7.55939C99.3743 7.55939 100.398 7.92739 101.15 8.66339C101.902 9.39939 102.278 10.3754 102.278 11.5914V11.8314C102.278 13.0474 101.902 14.0234 101.15 14.7594C100.398 15.4954 99.3743 15.8634 98.0783 15.8634ZM98.0783 13.0314C98.3023 13.0314 98.4863 12.9434 98.6303 12.7674C98.7743 12.5914 98.8463 12.2794 98.8463 11.8314V11.5914C98.8463 11.1434 98.7743 10.8314 98.6303 10.6554C98.4863 10.4794 98.3023 10.3914 98.0783 10.3914C97.8543 10.3914 97.6703 10.4794 97.5263 10.6554C97.3823 10.8314 97.3103 11.1434 97.3103 11.5914V11.8314C97.3103 12.2794 97.3823 12.5914 97.5263 12.7674C97.6703 12.9434 97.8543 13.0314 98.0783 13.0314ZM109.094 24.9594C107.798 24.9594 106.774 24.5914 106.022 23.8554C105.27 23.1194 104.894 22.1434 104.894 20.9274V20.6874C104.894 19.4714 105.27 18.4954 106.022 17.7594C106.774 17.0234 107.798 16.6554 109.094 16.6554C110.39 16.6554 111.414 17.0234 112.166 17.7594C112.918 18.4954 113.294 19.4714 113.294 20.6874V20.9274C113.294 22.1434 112.918 23.1194 112.166 23.8554C111.414 24.5914 110.39 24.9594 109.094 24.9594ZM109.094 22.1274C109.318 22.1274 109.502 22.0394 109.646 21.8634C109.79 21.6874 109.862 21.3754 109.862 20.9274V20.6874C109.862 20.2394 109.79 19.9274 109.646 19.7514C109.502 19.5754 109.318 19.4874 109.094 19.4874C108.87 19.4874 108.686 19.5754 108.542 19.7514C108.398 19.9274 108.326 20.2394 108.326 20.6874V20.9274C108.326 21.3754 108.398 21.6874 108.542 21.8634C108.686 22.0394 108.87 22.1274 109.094 22.1274Z" fill="#1A2F75"/>
<path d="M182.084 32.2011V20.1714C182.084 17.9622 180.293 16.1714 178.084 16.1714H127.209" stroke="#C7DCEF"/>
<circle cx="126.302" cy="16.1714" r="3" fill="white" stroke="#C7DCEF"/>
<circle cx="182.084" cy="31.042" r="3" fill="white" stroke="#C7DCEF"/>
</svg>
