<svg width="67" height="68" viewBox="0 0 67 68" fill="none" xmlns="http://www.w3.org/2000/svg">
<rect width="8.70127" height="8.70127" rx="0.5" transform="matrix(8.42937e-08 -1 -1 -8.42937e-08 39.748 29.9697)" fill="#1A73E8"/>
<rect width="6.58228" height="6.58228" rx="0.5" transform="matrix(8.42937e-08 -1 -1 -8.42937e-08 21.1362 46.52)" fill="#1A73E8"/>
<rect width="8.70127" height="8.70127" rx="0.5" transform="matrix(8.42937e-08 -1 -1 -8.42937e-08 30.9712 21.252)" fill="#1A73E8"/>
<rect width="8.70127" height="8.70127" rx="0.5" transform="matrix(8.42937e-08 -1 -1 -8.42937e-08 13.4199 38.8042)" fill="#1A73E8"/>
<rect width="6.05778" height="6.05778" rx="0.5" transform="matrix(8.42937e-08 -1 -1 -8.42937e-08 47.248 19.8267)" fill="#1A73E8"/>
<rect width="6.58121" height="6.58121" rx="0.5" transform="matrix(8.42937e-08 -1 -1 -8.42937e-08 29.9282 37.6699)" fill="#1A73E8"/>
<rect width="5.92446" height="5.92446" rx="0.5" transform="matrix(8.42937e-08 -1 -1 -8.42937e-08 38.3599 11.0889)" fill="#1A73E8"/>
<rect width="8.70127" height="8.70127" rx="0.5" transform="matrix(8.42937e-08 -1 -1 -8.42937e-08 22.1953 30.0283)" fill="#1A73E8"/>
<rect width="2.19437" height="2.19437" rx="0.5" transform="matrix(8.42937e-08 -1 -1 -8.42937e-08 45.2695 35.4287)" fill="#1A73E8"/>
<rect width="4.38834" height="4.38834" rx="0.5" transform="matrix(8.42937e-08 -1 -1 -8.42937e-08 28.8154 54.0771)" fill="#1A73E8"/>
<rect width="2.19437" height="2.19437" rx="0.5" transform="matrix(8.42937e-08 -1 -1 -8.42937e-08 54.0693 44.2285)" fill="#1A73E8"/>
<rect width="2.19437" height="2.19437" rx="0.5" transform="matrix(8.42937e-08 -1 -1 -8.42937e-08 54.0459 35.4761)" fill="#1A73E8"/>
<rect width="2.19437" height="2.19437" rx="0.5" transform="matrix(8.42937e-08 -1 -1 -8.42937e-08 46.3672 27.7974)" fill="#1A73E8"/>
<rect width="4.3412" height="4.3412" rx="0.5" transform="matrix(8.42937e-08 -1 -1 -8.42937e-08 37.5908 62.853)" fill="#1A73E8"/>
<rect width="2.19437" height="2.19437" rx="0.5" transform="matrix(8.42937e-08 -1 -1 -8.42937e-08 54.022 26.6758)" fill="#1A73E8"/>
<rect width="4.43548" height="4.43548" rx="0.5" transform="matrix(8.42937e-08 -1 -1 -8.42937e-08 37.5908 45.3486)" fill="#1A73E8"/>
<rect width="2.19437" height="2.19437" rx="0.5" transform="matrix(8.42937e-08 -1 -1 -8.42937e-08 62.8213 35.4761)" fill="#1A73E8"/>
<rect width="4.38834" height="4.38834" rx="0.5" transform="matrix(8.42937e-08 -1 -1 -8.42937e-08 46.3672 54.124)" fill="#1A73E8"/>
<rect width="4.38834" height="4.38834" rx="0.5" transform="matrix(8.42937e-08 -1 -1 -8.42937e-08 37.5908 54.124)" fill="#1A73E8"/>
<rect width="4.38834" height="4.38834" rx="0.5" transform="matrix(8.42937e-08 -1 -1 -8.42937e-08 46.3672 45.3486)" fill="#1A73E8"/>
<rect width="4.38834" height="4.38834" rx="0.5" transform="matrix(8.42937e-08 -1 -1 -8.42937e-08 38.6885 37.6699)" fill="#1A73E8"/>
<rect width="4.38834" height="4.38834" rx="0.5" transform="matrix(8.42937e-08 -1 -1 -8.42937e-08 28.8154 45.3486)" fill="#1A73E8"/>
</svg>
