<svg width="67" height="67" viewBox="0 0 67 67" fill="none" xmlns="http://www.w3.org/2000/svg">
<rect width="8.70127" height="8.70127" rx="0.5" transform="matrix(8.42937e-08 -1 -1 -8.42937e-08 39.7207 29.4912)" fill="#CCD9EC"/>
<rect width="6.58228" height="6.58228" rx="0.5" transform="matrix(8.42937e-08 -1 -1 -8.42937e-08 21.1089 46.0415)" fill="#CCD9EC"/>
<rect width="8.70127" height="8.70127" rx="0.5" transform="matrix(8.42937e-08 -1 -1 -8.42937e-08 30.9438 20.7734)" fill="#CCD9EC"/>
<rect width="8.70127" height="8.70127" rx="0.5" transform="matrix(8.42937e-08 -1 -1 -8.42937e-08 13.3926 38.3257)" fill="#CCD9EC"/>
<rect width="6.05778" height="6.05778" rx="0.5" transform="matrix(8.42937e-08 -1 -1 -8.42937e-08 47.2207 19.3481)" fill="#CCD9EC"/>
<rect width="6.58121" height="6.58121" rx="0.5" transform="matrix(8.42937e-08 -1 -1 -8.42937e-08 29.9009 37.1914)" fill="#CCD9EC"/>
<rect width="5.92446" height="5.92446" rx="0.5" transform="matrix(8.42937e-08 -1 -1 -8.42937e-08 38.3325 10.6104)" fill="#CCD9EC"/>
<rect width="8.70127" height="8.70127" rx="0.5" transform="matrix(8.42937e-08 -1 -1 -8.42937e-08 22.168 29.5498)" fill="#CCD9EC"/>
<rect width="2.19437" height="2.19437" rx="0.5" transform="matrix(8.42937e-08 -1 -1 -8.42937e-08 45.2422 34.9502)" fill="#CCD9EC"/>
<rect width="4.38834" height="4.38834" rx="0.5" transform="matrix(8.42937e-08 -1 -1 -8.42937e-08 28.7881 53.5986)" fill="#CCD9EC"/>
<rect width="2.19437" height="2.19437" rx="0.5" transform="matrix(8.42937e-08 -1 -1 -8.42937e-08 54.042 43.75)" fill="#CCD9EC"/>
<rect width="2.19437" height="2.19437" rx="0.5" transform="matrix(8.42937e-08 -1 -1 -8.42937e-08 54.0186 34.9976)" fill="#CCD9EC"/>
<rect width="2.19437" height="2.19437" rx="0.5" transform="matrix(8.42937e-08 -1 -1 -8.42937e-08 46.3398 27.3188)" fill="#CCD9EC"/>
<rect width="4.3412" height="4.3412" rx="0.5" transform="matrix(8.42937e-08 -1 -1 -8.42937e-08 37.5635 62.3745)" fill="#CCD9EC"/>
<rect width="2.19437" height="2.19437" rx="0.5" transform="matrix(8.42937e-08 -1 -1 -8.42937e-08 53.9946 26.1973)" fill="#CCD9EC"/>
<rect width="4.43548" height="4.43548" rx="0.5" transform="matrix(8.42937e-08 -1 -1 -8.42937e-08 37.5635 44.8701)" fill="#CCD9EC"/>
<rect width="2.19437" height="2.19437" rx="0.5" transform="matrix(8.42937e-08 -1 -1 -8.42937e-08 62.7939 34.9976)" fill="#CCD9EC"/>
<rect width="4.38834" height="4.38834" rx="0.5" transform="matrix(8.42937e-08 -1 -1 -8.42937e-08 46.3398 53.6455)" fill="#CCD9EC"/>
<rect width="4.38834" height="4.38834" rx="0.5" transform="matrix(8.42937e-08 -1 -1 -8.42937e-08 37.5635 53.6455)" fill="#CCD9EC"/>
<rect width="4.38834" height="4.38834" rx="0.5" transform="matrix(8.42937e-08 -1 -1 -8.42937e-08 46.3398 44.8701)" fill="#CCD9EC"/>
<rect width="4.38834" height="4.38834" rx="0.5" transform="matrix(8.42937e-08 -1 -1 -8.42937e-08 38.6611 37.1914)" fill="#CCD9EC"/>
<rect width="4.38834" height="4.38834" rx="0.5" transform="matrix(8.42937e-08 -1 -1 -8.42937e-08 28.7881 44.8701)" fill="#CCD9EC"/>
</svg>
