<svg width="152" height="235" viewBox="0 0 152 235" fill="none" xmlns="http://www.w3.org/2000/svg">
<path d="M114.95 150.612L114.934 155.415L87.9565 171.098L87.9676 166.301L114.95 150.612Z" fill="url(#paint0_linear)"/>
<path d="M87.9675 166.301L87.9564 171.098L29.4624 137.316L29.4735 132.508L87.9675 166.301Z" fill="url(#paint1_linear)"/>
<path d="M114.95 150.612L87.9676 166.301L29.4736 132.508L56.4619 116.819L114.95 150.612Z" fill="url(#paint2_linear)"/>
<path d="M13.2964 4.31002L20.067 0.371199C21.069 -0.182785 22.4585 -0.121845 23.9809 0.75345L17.2214 4.69227C15.6769 3.83913 14.3039 3.72834 13.2964 4.31002Z" fill="#C8DDF1"/>
<path d="M13.2964 4.30998L20.067 0.371161C20.209 0.289797 20.3571 0.219418 20.5098 0.160645L13.7392 4.10501C13.5838 4.15498 13.4351 4.22381 13.2964 4.30998V4.30998Z" fill="#8CA8F8"/>
<path d="M13.7393 4.10504L20.5098 0.160678C20.6316 0.127439 20.7645 0.0831191 20.8974 0.0554199L14.1268 3.99428C13.9952 4.02201 13.8657 4.05901 13.7393 4.10504V4.10504Z" fill="#8CA8F8"/>
<path d="M14.127 3.99424L20.8975 0.0553845C21.0037 0.0360135 21.1109 0.0230597 21.2186 0.0166016L14.4536 3.94991L14.1435 3.99424H14.127Z" fill="#8CA8F8"/>
<path d="M14.4531 3.94992L21.2348 0.0166117C21.3251 0.0110643 21.4157 0.0110643 21.5061 0.0166117L14.7466 3.95547C14.6488 3.94972 14.5508 3.94972 14.4531 3.95547V3.94992Z" fill="#8CA8F8"/>
<path d="M14.73 3.93882L21.4895 0H21.7497L14.9791 3.93328L14.73 3.93882Z" fill="#8CA8F8"/>
<path d="M15.0068 3.94438L21.7774 0.0111084H22.0211L15.2559 3.94993H15.0068V3.94438Z" fill="#8CA8F8"/>
<path d="M15.2285 3.97202L21.9936 0.0332031C22.0776 0.0416153 22.1609 0.0564407 22.2427 0.0775313L15.461 4.01081L15.2285 3.97202Z" fill="#8CA8F8"/>
<path d="M15.4609 4.01085L22.2426 0.0775757C22.318 0.0862384 22.3922 0.102934 22.4641 0.127415L15.6935 4.06624L15.4609 4.01085Z" fill="#8CA8F8"/>
<path d="M15.6934 4.0662L22.4639 0.12738L22.6965 0.188311L15.9204 4.12717L15.6934 4.0662Z" fill="#8CA8F8"/>
<path d="M15.9206 4.12721L22.6967 0.188354L22.9182 0.254864L16.1144 4.19923C16.0368 4.19923 15.9704 4.14383 15.8984 4.12721H15.9206Z" fill="#8CA8F8"/>
<path d="M16.1143 4.19925L22.8959 0.254883C22.9656 0.28829 23.0378 0.316057 23.1118 0.33796L16.3357 4.27678L16.1143 4.19925Z" fill="#8CA8F8"/>
<path d="M16.3579 4.27671L23.1341 0.337891L23.3555 0.437604L16.5849 4.37091C16.5058 4.3487 16.4295 4.31706 16.3579 4.27671V4.27671Z" fill="#8CA8F8"/>
<path d="M16.585 4.39312L23.3555 0.459839L23.577 0.559552L16.8009 4.50392L16.585 4.39312V4.39312Z" fill="#8CA8F8"/>
<path d="M16.8008 4.48172L23.5769 0.537354C23.6489 0.570593 23.7264 0.620469 23.7984 0.659248L17.0333 4.59807L16.8008 4.48172Z" fill="#8CA8F8"/>
<path d="M17.0332 4.59806L23.7982 0.659241L23.9809 0.753409L17.2214 4.69223C17.1583 4.66532 17.0973 4.63385 17.0387 4.59806H17.0332Z" fill="#8CA8F8"/>
<path d="M87.1919 155.509L109.048 154.041L92.0415 144.213L87.1919 155.509Z" fill="url(#paint3_linear)"/>
<path d="M83.8755 116.193L89.4005 112.979L92.7332 152.29L87.1916 155.509L83.8755 116.193Z" fill="#8CA8F8"/>
<path d="M52.0542 97.8169L57.5847 94.5983L89.4004 112.979L83.8754 116.193L52.0542 97.8169Z" fill="#8CA8F8"/>
<path d="M83.8756 116.193L87.1917 155.509L49.6738 133.826L52.0543 97.8169L83.8756 116.193Z" fill="url(#paint4_linear)"/>
<path d="M62.8275 127.339L87.1917 155.509L49.6738 133.826L52.0543 97.8169L62.8275 127.339Z" fill="url(#paint5_linear)"/>
<path d="M11.4868 81.8457L18.263 77.9014L144.673 150.939L137.903 154.872L11.4868 81.8457Z" fill="#D7C8A4"/>
<path d="M16.6402 10.7584L23.4108 6.81958L23.217 75.0815L16.4409 79.0204L16.6402 10.7584Z" fill="#544345"/>
<path d="M16.4409 79.0204L23.217 75.0815L138.815 141.864L132.039 145.803L16.4409 79.0204Z" fill="#5E4A4D"/>
<path d="M137.908 154.872L137.874 164.362C137.874 167.841 135.411 169.264 132.372 167.514L16.9449 100.825C13.9111 99.069 11.4642 94.8034 11.4697 91.3354L11.4974 81.8512L137.908 154.872Z" fill="url(#paint6_linear)"/>
<path d="M132.233 77.5467L132.039 145.803L16.4409 79.0203L16.6402 10.7584L132.233 77.5467Z" fill="#698DC0"/>
<path d="M132.045 144.357L17.6816 78.2835L17.8809 11.4785L132.234 77.5467L132.045 144.357Z" fill="url(#paint7_linear)"/>
<path d="M132.234 77.5468L139.004 73.6024L138.816 141.864L132.04 145.803L132.234 77.5468Z" fill="#8CB1B6"/>
<path d="M16.6411 10.7584L23.4117 6.81958L139.005 73.6024L132.234 77.5468L16.6411 10.7584Z" fill="#9EC6CC"/>
<path d="M138.107 80.8707L144.883 76.9318L144.673 150.939L137.902 154.872L138.107 80.8707Z" fill="#8CA8F8"/>
<path d="M17.2163 4.69231L23.9869 0.753479L139.408 67.4421L132.638 71.3754L17.2163 4.69231Z" fill="url(#paint8_linear)"/>
<path d="M132.638 71.3753C135.672 73.137 138.119 77.375 138.107 80.8706L137.908 154.872L11.4868 81.8512L11.6916 7.83883C11.6916 4.34873 14.1663 2.94715 17.2277 4.69221L132.638 71.3753ZM132.04 145.803L132.234 77.5467L16.6686 10.7583L16.4637 79.0203L132.04 145.803Z" fill="url(#paint9_linear)"/>
<path d="M144.884 76.9318C144.884 76.8487 144.884 76.7656 144.884 76.6825C144.884 76.5994 144.884 76.5052 144.884 76.4111C144.884 76.3169 144.884 76.2338 144.884 76.1451C144.884 76.0565 144.884 75.9679 144.884 75.8737C144.884 75.7795 144.845 75.6909 144.828 75.5967C144.828 75.5081 144.801 75.4305 144.784 75.3419C144.768 75.2532 144.745 75.148 144.729 75.0482C144.712 74.9485 144.69 74.8599 144.662 74.7602C144.645 74.6621 144.619 74.5657 144.585 74.4721C144.585 74.3945 144.54 74.317 144.518 74.2394C144.52 74.221 144.52 74.2024 144.518 74.184C144.48 74.0898 144.457 73.9957 144.424 73.9015L144.33 73.619C144.297 73.5248 144.264 73.4417 144.225 73.353C144.186 73.2644 144.153 73.1758 144.114 73.0871C144.075 72.9985 144.059 72.9597 144.037 72.8933C144.015 72.8268 144.037 72.8933 144.037 72.8933C144.042 72.879 144.042 72.8632 144.037 72.8489C144.003 72.7548 143.948 72.6772 143.92 72.583C143.893 72.4889 143.826 72.3891 143.777 72.2949C143.727 72.2008 143.666 72.0733 143.616 71.9625C143.566 71.8517 143.472 71.7133 143.4 71.5914L143.35 71.4972C143.223 71.2812 143.085 71.0651 142.946 70.8546C142.808 70.6441 142.73 70.5277 142.614 70.3781C142.614 70.3781 142.614 70.3781 142.614 70.3394L142.376 70.0402C142.309 69.9571 142.237 69.863 142.166 69.7799C142.094 69.6968 142.027 69.6081 141.955 69.5306L141.739 69.2924C141.729 69.2768 141.716 69.2635 141.7 69.2536C141.7 69.2536 141.7 69.2536 141.7 69.2203L141.54 69.0597C141.462 68.9766 141.379 68.9046 141.313 68.827C141.247 68.7494 141.152 68.6719 141.064 68.5999L140.82 68.3894C140.776 68.3561 140.737 68.3173 140.693 68.2896C140.66 68.268 140.628 68.2439 140.599 68.2176L140.361 68.0293C140.272 67.9739 140.195 67.9074 140.117 67.8575C140.042 67.8001 139.962 67.7483 139.879 67.7024L139.652 67.5584L139.591 67.5251L132.826 71.4584C133.215 71.6831 133.585 71.9388 133.933 72.2229L133.978 72.2562C134.328 72.5424 134.659 72.8514 134.969 73.1813V73.209C135.296 73.5605 135.603 73.9304 135.888 74.317V74.317C136.174 74.7057 136.44 75.1089 136.685 75.5247C136.69 75.5372 136.69 75.5509 136.685 75.5634C137.172 76.4018 137.561 77.2943 137.842 78.2226V78.2226C137.977 78.6633 138.081 79.1132 138.152 79.5688C138.152 79.5688 138.152 79.5688 138.152 79.5688C138.219 80.0088 138.255 80.4531 138.257 80.8983L144.884 76.9318Z" fill="#C8DDF1"/>
<path d="M65.6399 118.22C64.0843 117.317 62.8332 118.049 62.8276 119.816C62.875 120.785 63.1504 121.729 63.6314 122.571C64.1124 123.414 64.7854 124.13 65.5957 124.663C67.1458 125.566 68.4024 124.835 68.408 123.057C68.3589 122.089 68.0827 121.148 67.6017 120.307C67.1208 119.467 66.4487 118.752 65.6399 118.22Z" fill="#516F94"/>
<path d="M65.7733 118.198C64.2952 117.345 63.105 118.037 63.105 119.716C63.1499 120.64 63.4137 121.541 63.8748 122.343C64.3358 123.146 64.9809 123.827 65.7568 124.331C67.2294 125.184 68.4251 124.491 68.4307 122.796C68.38 121.875 68.1129 120.978 67.6512 120.179C67.1895 119.38 66.5462 118.702 65.7733 118.198V118.198Z" fill="#8CA8F8"/>
<path d="M8.19841 17.65L8.19287 19.0405L15.7385 23.3948V22.0043L8.19841 17.65Z" fill="#7DA4C1"/>
<path d="M8.20361 14.9908V16.3813L15.7437 20.7411L15.7493 19.3506L8.20361 14.9908Z" fill="#7DA4C1"/>
<path d="M8.21453 12.3428L8.20898 13.7277L15.7546 18.0876V16.6971L8.21453 12.3428Z" fill="#7DA4C1"/>
<path d="M127.25 90.9642L3.79639 19.6498L3.83511 6.99127L127.289 78.3057L127.25 90.9642ZM8.22523 13.7277L15.7709 18.0876V16.6971L8.22523 12.3427V13.7277ZM8.22523 19.0404L15.7709 23.4003V22.0042L8.23077 17.6499V19.0404H8.22523ZM8.22523 16.3869L15.7709 20.7412V19.3507L8.22523 14.9964V16.3869V16.3869Z" fill="#8FAFFF"/>
<path d="M34.5499 27.7657C33.2766 27.0289 32.2414 27.6106 32.2358 29.0897C32.2776 29.8893 32.5081 30.6677 32.9084 31.361C33.3087 32.0543 33.8675 32.6428 34.5389 33.0784C35.8122 33.8097 36.8529 33.2224 36.8529 31.7544C36.8124 30.9545 36.5825 30.1756 36.1821 29.4821C35.7817 28.7886 35.2223 28.2003 34.5499 27.7657V27.7657Z" fill="#1A73E8"/>
<path d="M28.7314 24.403C27.4526 23.6662 26.4118 24.2424 26.4062 25.716C26.4494 26.516 26.6804 27.2947 27.0806 27.9886C27.4807 28.6826 28.0387 29.2724 28.7093 29.7102C29.9826 30.4415 31.0233 29.8487 31.0288 28.3862C30.9877 27.5878 30.7581 26.8106 30.3587 26.1182C29.9594 25.4258 29.4017 24.838 28.7314 24.403V24.403Z" fill="#30D8F0"/>
<path d="M22.885 21.0127C21.6173 20.2814 20.5876 20.8631 20.582 22.3422C20.6237 23.1392 20.8524 23.9151 21.2496 24.6072C21.6469 25.2992 22.2014 25.8878 22.8684 26.3254C24.1528 27.0677 25.1825 26.4694 25.1881 25.0069C25.1498 24.2057 24.9209 23.4252 24.5203 22.7305C24.1197 22.0357 23.5591 21.4468 22.885 21.0127Z" fill="#7DA4C1"/>
<path d="M138.739 97.8559L141.186 96.4654L138.739 97.8559Z" fill="#365098"/>
<path d="M138.733 97.8615L141.18 96.471L141.108 96.5042L138.667 97.8948L138.733 97.8615V97.8615Z" fill="#37539D"/>
<path d="M138.667 97.8947L141.108 96.5042H141.042L138.601 97.8947H138.667Z" fill="#3956A2"/>
<path d="M138.6 97.9169L141.041 96.5264H140.969L138.522 97.9169H138.6Z" fill="#3B58A6"/>
<path d="M138.523 97.9334L140.97 96.543H140.881L138.445 97.939H138.523V97.9334Z" fill="#3C5BAC"/>
<path d="M138.462 97.9446L140.898 96.5485H140.815L138.368 97.9446H138.462Z" fill="#3E5EB1"/>
<path d="M138.351 97.9446L140.798 96.5485H140.704L138.257 97.939H138.351V97.9446Z" fill="#4060B6"/>
<path d="M138.257 97.928L140.704 96.5375H140.588L138.141 97.928H138.257Z" fill="#4263BB"/>
<path d="M138.141 97.9058L140.588 96.5153L140.433 96.4599L137.986 97.8504C138.036 97.8737 138.088 97.8923 138.141 97.9058V97.9058Z" fill="#4466C0"/>
<path d="M137.986 97.8503L140.433 96.4598C140.368 96.4329 140.305 96.4014 140.244 96.3657L137.797 97.7617L137.986 97.8503Z" fill="#4568C4"/>
<path d="M137.798 97.7616L140.244 96.3656C140.086 96.271 139.941 96.1555 139.813 96.0222L137.366 97.4126C137.496 97.5447 137.641 97.6618 137.798 97.7616V97.7616Z" fill="#4568C4"/>
<path d="M137.355 97.4127L139.802 96.0222C139.751 95.9746 139.705 95.9227 139.663 95.8671L137.216 97.2576C137.26 97.3117 137.306 97.3635 137.355 97.4127V97.4127Z" fill="#4466C0"/>
<path d="M137.227 97.2575L139.674 95.867C139.636 95.8274 139.601 95.7848 139.569 95.7396L137.122 97.1246C137.155 97.1744 137.194 97.2132 137.227 97.2575Z" fill="#4263BB"/>
<path d="M137.122 97.1246L139.569 95.7396C139.541 95.6987 139.509 95.6598 139.475 95.6233L137.034 97.0027C137.059 97.0461 137.089 97.0869 137.122 97.1246Z" fill="#4060B6"/>
<path d="M137.033 97.0027L139.475 95.6233C139.455 95.5819 139.431 95.5428 139.403 95.507L136.961 96.8919C136.98 96.9324 137.004 96.9698 137.033 97.0027Z" fill="#3E5EB1"/>
<path d="M136.962 96.9085L139.403 95.5235C139.383 95.4852 139.361 95.4481 139.337 95.4127L136.89 96.7977L136.962 96.9085V96.9085Z" fill="#3C5BAC"/>
<path d="M136.889 96.7811L139.336 95.3961C139.318 95.358 139.298 95.3209 139.275 95.2853L136.834 96.6648L136.889 96.7811Z" fill="#3B58A6"/>
<path d="M136.834 96.6648L139.276 95.2854C139.257 95.2476 139.24 95.2088 139.226 95.169L136.779 96.5595C136.793 96.5968 136.811 96.6322 136.834 96.6648Z" fill="#3956A2"/>
<path d="M136.801 96.5595L139.248 95.169C139.225 95.1339 139.204 95.0968 139.187 95.0582L136.746 96.4487C136.746 96.482 136.779 96.5208 136.801 96.5595Z" fill="#37539D"/>
<path d="M136.723 96.4487L139.165 95.0582C139.165 95.0194 139.165 94.9696 139.121 94.9419L136.679 96.3324C136.679 96.3656 136.679 96.4044 136.723 96.4487Z" fill="#365098"/>
<path d="M136.679 96.3545L139.12 94.964C139.12 94.9142 139.087 94.8754 139.082 94.8366L136.635 96.2216C136.635 96.2659 136.668 96.3102 136.679 96.3545Z" fill="#344D93"/>
<path d="M136.635 96.1994L139.082 94.8145C139.064 94.7694 139.049 94.7231 139.038 94.676L136.596 96.0665C136.606 96.1117 136.619 96.1561 136.635 96.1994Z" fill="#324B8E"/>
<path d="M136.596 96.0664L139.016 94.6926L138.982 94.543L136.541 95.9335C136.549 95.9839 136.56 96.0338 136.574 96.0831L136.596 96.0664Z" fill="#304889"/>
<path d="M136.563 95.9169L139.004 94.5264C139.001 94.4655 139.001 94.4045 139.004 94.3436L136.563 95.7341C136.557 95.7949 136.557 95.8561 136.563 95.9169V95.9169Z" fill="#2F4684"/>
<path d="M136.535 95.7341L138.976 94.3436C138.968 94.257 138.968 94.1698 138.976 94.0832C138.963 93.921 138.993 93.758 139.063 93.611C139.133 93.4641 139.24 93.3383 139.375 93.2467L136.928 94.6372C136.795 94.7298 136.689 94.856 136.621 95.003C136.553 95.15 136.525 95.3124 136.541 95.4737C136.532 95.5603 136.532 95.6475 136.541 95.7341H136.535Z" fill="#2D4380"/>
<path d="M141.152 99.7283L143.588 98.3433C143.433 98.2431 143.29 98.126 143.161 97.9943L140.714 99.3903C140.846 99.5201 140.993 99.6336 141.152 99.7283V99.7283Z" fill="#4568C4"/>
<path d="M140.715 99.3903L143.162 97.9943L143.018 97.8447L140.571 99.2352L140.715 99.3903Z" fill="#4466C0"/>
<path d="M140.571 99.2352L143.017 97.8447C142.978 97.8008 142.941 97.7545 142.907 97.7062L140.465 99.1023L140.571 99.2352Z" fill="#4263BB"/>
<path d="M140.465 99.1245L142.907 97.7284L142.824 97.6177L140.382 99.0081C140.382 99.0469 140.432 99.0857 140.465 99.1245Z" fill="#4060B6"/>
<path d="M140.382 98.986L142.824 97.5955L142.746 97.4736L140.305 98.8641L140.382 98.986Z" fill="#3E5EB1"/>
<path d="M140.305 98.8641L142.746 97.4736L142.685 97.3683L140.238 98.7589C140.258 98.7955 140.28 98.8307 140.305 98.8641V98.8641Z" fill="#3C5BAC"/>
<path d="M140.238 98.7588L142.685 97.3683C142.663 97.3307 142.643 97.2918 142.625 97.252L140.183 98.6425C140.183 98.6868 140.222 98.72 140.238 98.7588Z" fill="#3B58A6"/>
<path d="M140.183 98.6425L142.624 97.252C142.624 97.2132 142.58 97.1744 142.569 97.1412L140.127 98.5317C140.139 98.5716 140.158 98.6091 140.183 98.6425V98.6425Z" fill="#3956A2"/>
<path d="M140.122 98.5317L142.564 97.1412C142.543 97.1035 142.525 97.0647 142.508 97.0249L140.067 98.4209L140.122 98.5317Z" fill="#37539D"/>
<path d="M140.072 98.4209L142.514 97.0249C142.514 96.9916 142.514 96.9473 142.469 96.9141L140.022 98.299C140.022 98.3433 140.023 98.3821 140.072 98.4209Z" fill="#365098"/>
<path d="M140.023 98.299L142.47 96.914C142.47 96.8642 142.436 96.8254 142.425 96.7811L139.984 98.1826C139.984 98.2159 139.984 98.2602 140.023 98.299Z" fill="#344D93"/>
<path d="M139.984 98.1827L142.425 96.7811C142.425 96.7368 142.397 96.6925 142.386 96.6537L139.939 98.0386C139.95 98.0879 139.965 98.1361 139.984 98.1827Z" fill="#324B8E"/>
<path d="M139.939 98.0165L142.386 96.6315C142.386 96.5761 142.386 96.5262 142.348 96.4764L139.906 97.8724L139.939 98.0165Z" fill="#304889"/>
<path d="M139.906 97.8947L142.348 96.4986C142.348 96.4377 142.348 96.3767 142.348 96.3158L139.906 97.7063C139.906 97.7672 139.906 97.8337 139.906 97.8947Z" fill="#2F4684"/>
<path d="M139.879 97.7063L142.32 96.3157C142.312 96.2291 142.312 96.142 142.32 96.0554C142.306 95.8936 142.335 95.731 142.404 95.5841C142.473 95.4372 142.58 95.3112 142.713 95.2189L140.272 96.6038C140.139 96.6991 140.032 96.8272 139.964 96.9758C139.895 97.1243 139.865 97.2882 139.879 97.4514C139.873 97.5363 139.873 97.6214 139.879 97.7063Z" fill="#2D4380"/>
<path d="M141.186 96.709L143.633 95.3185C143.574 95.2789 143.511 95.2455 143.445 95.2188L141.003 96.6093C141.067 96.6382 141.128 96.6715 141.186 96.709V96.709Z" fill="#6A2B83"/>
<path d="M141.003 96.6093L143.445 95.2465C143.396 95.225 143.346 95.2083 143.295 95.1967L140.848 96.5872L141.003 96.637V96.6093Z" fill="#682A80"/>
<path d="M140.848 96.5595L143.295 95.169L143.179 95.1413L140.732 96.5373C140.77 96.5316 140.81 96.5316 140.848 96.5373V96.5595Z" fill="#65297E"/>
<path d="M140.732 96.5373L143.179 95.1413H143.08L140.638 96.5318H140.732V96.5373Z" fill="#62287B"/>
<path d="M140.638 96.5207L143.079 95.1302H142.996L140.549 96.5262L140.638 96.5207Z" fill="#602677"/>
<path d="M140.549 96.5262L142.996 95.1302H142.891L140.444 96.5262H140.549Z" fill="#5D2574"/>
<path d="M140.466 96.5318L142.913 95.1357H142.841L140.4 96.5262H140.466V96.5318Z" fill="#5A2470"/>
<path d="M140.4 96.5484L142.841 95.1579H142.775L140.333 96.5484H140.4Z" fill="#57236D"/>
<path d="M140.333 96.5707L142.775 95.1802C142.749 95.1879 142.725 95.1991 142.703 95.2135L140.256 96.5984C140.283 96.5943 140.31 96.5849 140.333 96.5707V96.5707Z" fill="#552269"/>
<path d="M140.256 96.5983L142.703 95.2133L140.261 96.6038L140.256 96.5983Z" fill="#532166"/>
<path d="M142.082 99.8335L144.534 98.4375C144.667 98.3455 144.773 98.2191 144.84 98.0719C144.907 97.9246 144.934 97.7619 144.916 97.6009C144.927 97.5145 144.927 97.427 144.916 97.3406L142.486 98.7366C142.486 98.8197 142.486 98.9083 142.486 98.9914C142.5 99.154 142.471 99.3173 142.402 99.4651C142.333 99.6129 142.226 99.7399 142.093 99.8335H142.082Z" fill="#451B56"/>
<path d="M142.469 98.7366L144.9 97.3406C144.904 97.2798 144.904 97.2186 144.9 97.1578L142.453 98.5538C142.453 98.6147 142.453 98.6812 142.491 98.7366H142.469Z" fill="#481C59"/>
<path d="M142.431 98.5704L144.877 97.1743C144.877 97.1245 144.877 97.0746 144.839 97.0192L142.403 98.4153C142.409 98.4675 142.418 98.5193 142.431 98.5704V98.5704Z" fill="#4A1E5D"/>
<path d="M142.403 98.3986L144.839 97.0026C144.839 96.9693 144.839 96.9195 144.8 96.8752L142.358 98.2657C142.369 98.3113 142.384 98.3558 142.403 98.3986V98.3986Z" fill="#4D1F60"/>
<path d="M142.336 98.2657L144.778 96.8752C144.778 96.8309 144.778 96.7921 144.733 96.7533L142.292 98.1438C142.303 98.1856 142.318 98.2264 142.336 98.2657V98.2657Z" fill="#502063"/>
<path d="M142.336 98.1438L144.778 96.7533L144.734 96.637L142.287 98.0275C142.307 98.0647 142.323 98.1036 142.336 98.1438V98.1438Z" fill="#532166"/>
<path d="M142.264 98.0164L144.711 96.6259C144.695 96.5843 144.676 96.5436 144.656 96.504L142.214 97.8945C142.237 97.9326 142.253 97.9736 142.264 98.0164V98.0164Z" fill="#552269"/>
<path d="M142.215 97.9056L144.656 96.5151C144.636 96.4798 144.619 96.4427 144.606 96.4044L142.159 97.8004C142.18 97.8343 142.198 97.8694 142.215 97.9056V97.9056Z" fill="#57236D"/>
<path d="M142.159 97.8004L144.606 96.4044C144.582 96.3674 144.562 96.3285 144.545 96.288L142.098 97.6785L142.159 97.8004Z" fill="#5A2470"/>
<path d="M142.098 97.6785L144.545 96.288C144.521 96.2542 144.499 96.219 144.479 96.1827L142.032 97.5732C142.032 97.612 142.082 97.6453 142.098 97.6785Z" fill="#5D2574"/>
<path d="M142.032 97.5733L144.479 96.1828L144.401 96.0664L141.955 97.4625C141.984 97.4971 142.009 97.5342 142.032 97.5733V97.5733Z" fill="#602677"/>
<path d="M141.955 97.4624L144.402 96.0663C144.376 96.0229 144.345 95.9837 144.307 95.95L141.872 97.335L141.955 97.4624Z" fill="#62287B"/>
<path d="M141.872 97.335L144.307 95.9501C144.277 95.9017 144.244 95.8554 144.208 95.8116L141.761 97.2076L141.872 97.335Z" fill="#65297E"/>
<path d="M141.783 97.2075L144.23 95.8115C144.186 95.7576 144.138 95.7076 144.086 95.6619L141.645 97.0524C141.694 97.1015 141.74 97.1533 141.783 97.2075V97.2075Z" fill="#682A80"/>
<path d="M141.622 97.0525L144.064 95.6619C143.937 95.527 143.792 95.4113 143.632 95.3185L141.185 96.709C141.346 96.8021 141.494 96.9177 141.622 97.0525Z" fill="#6A2B83"/>
<path d="M145.437 101.806L147.878 100.41L145.437 101.8V101.806Z" fill="#365098"/>
<path d="M145.431 101.806L147.872 100.415L147.806 100.448L145.359 101.839L145.431 101.806V101.806Z" fill="#37539D"/>
<path d="M145.359 101.839L147.806 100.448H147.729L145.287 101.845L145.359 101.817V101.839Z" fill="#3956A2"/>
<path d="M145.287 101.894L147.729 100.498H147.662L145.215 101.894H145.287V101.894Z" fill="#3B58A6"/>
<path d="M145.215 101.894L147.662 100.498H147.579L145.132 101.889L145.215 101.894Z" fill="#3C5BAC"/>
<path d="M145.132 101.894L147.579 100.504H147.491L145.049 101.894H145.132Z" fill="#3E5EB1"/>
<path d="M145.049 101.894L147.49 100.504H147.391L144.949 101.9H145.049V101.894Z" fill="#4060B6"/>
<path d="M144.95 101.894L147.391 100.498H147.275L144.833 101.889L144.95 101.917V101.894Z" fill="#4263BB"/>
<path d="M144.833 101.85L147.275 100.46C147.223 100.445 147.173 100.427 147.125 100.404L144.678 101.8C144.728 101.822 144.78 101.838 144.833 101.85V101.85Z" fill="#4466C0"/>
<path d="M144.678 101.8L147.125 100.404L146.937 100.315L144.501 101.706C144.556 101.744 144.616 101.775 144.678 101.8V101.8Z" fill="#4568C4"/>
<path d="M144.501 101.706L146.937 100.316C146.781 100.216 146.636 100.099 146.505 99.9666L144.064 101.363C144.196 101.494 144.342 101.609 144.501 101.706V101.706Z" fill="#4568C4"/>
<path d="M144.063 101.34L146.505 99.9444C146.456 99.8974 146.41 99.8474 146.366 99.7949L143.919 101.185C143.963 101.241 144.011 101.293 144.063 101.34V101.34Z" fill="#4466C0"/>
<path d="M143.92 101.208L146.367 99.817L146.256 99.6841L143.814 101.075L143.92 101.208Z" fill="#4263BB"/>
<path d="M143.814 101.075L146.256 99.6841L146.173 99.5622L143.731 100.958C143.755 101 143.783 101.039 143.814 101.075V101.075Z" fill="#4060B6"/>
<path d="M143.731 100.958L146.173 99.5622C146.144 99.5251 146.118 99.4863 146.095 99.4459L143.654 100.847C143.676 100.886 143.702 100.924 143.731 100.958V100.958Z" fill="#3E5EB1"/>
<path d="M143.654 100.847L146.095 99.4459C146.095 99.4182 146.051 99.3739 146.029 99.3406L143.582 100.731C143.609 100.768 143.633 100.807 143.654 100.847V100.847Z" fill="#3C5BAC"/>
<path d="M143.582 100.731L146.029 99.3406C146.007 99.3049 145.986 99.2679 145.968 99.2298L143.527 100.626C143.527 100.659 143.566 100.692 143.582 100.731Z" fill="#3B58A6"/>
<path d="M143.527 100.626L145.968 99.2298C145.968 99.1966 145.929 99.1522 145.907 99.1135L143.471 100.504C143.471 100.543 143.51 100.582 143.527 100.626Z" fill="#3956A2"/>
<path d="M143.471 100.504L145.907 99.1135C145.895 99.0756 145.88 99.0386 145.863 99.0027L143.416 100.393L143.471 100.504Z" fill="#37539D"/>
<path d="M143.444 100.393L145.891 99.0027C145.891 98.9639 145.857 98.9251 145.841 98.8752L143.399 100.277C143.399 100.316 143.433 100.354 143.444 100.393Z" fill="#365098"/>
<path d="M143.372 100.277L145.813 98.8752C145.802 98.8354 145.787 98.7965 145.769 98.7589L143.328 100.149C143.328 100.188 143.328 100.233 143.372 100.277Z" fill="#344D93"/>
<path d="M143.327 100.149L145.769 98.759C145.769 98.7036 145.769 98.6703 145.736 98.626L143.289 100.011C143.289 100.061 143.289 100.105 143.327 100.149Z" fill="#324B8E"/>
<path d="M143.289 100.011L145.736 98.6259C145.718 98.5773 145.705 98.5273 145.697 98.4764L143.25 99.8613C143.266 99.9105 143.278 99.9604 143.289 100.011V100.011Z" fill="#304889"/>
<path d="M143.25 99.8613L145.697 98.4764C145.683 98.4142 145.671 98.3513 145.664 98.288L143.222 99.6785C143.222 99.7395 143.222 99.8004 143.25 99.8558V99.8613Z" fill="#2F4684"/>
<path d="M143.222 99.6785L145.664 98.2824C145.658 98.1976 145.658 98.1125 145.664 98.0276C145.65 97.8644 145.679 97.7005 145.748 97.5519C145.817 97.4034 145.923 97.2752 146.057 97.18L143.61 98.5816C143.476 98.6737 143.37 98.7999 143.302 98.947C143.234 99.0941 143.206 99.2568 143.222 99.4181C143.222 99.5012 143.222 99.5898 143.222 99.6785Z" fill="#2D4380"/>
<path d="M146.527 97.2298C147.233 97.7009 147.818 98.3324 148.234 99.0728C148.649 99.8131 148.884 100.641 148.919 101.49L148.858 106.897L87.9004 70.9488L87.9613 65.5363C87.9613 63.9852 89.0685 63.3592 90.4248 64.1514L146.527 97.2298ZM137.797 97.7838C138.522 98.2103 139.12 97.8724 139.131 97.0414C139.111 96.5862 138.984 96.1422 138.759 95.7455C138.535 95.3489 138.221 95.0108 137.841 94.759C137.116 94.3324 136.529 94.6648 136.518 95.4958C136.538 95.9506 136.664 96.3945 136.886 96.7918C137.108 97.1891 137.42 97.5289 137.797 97.7838V97.7838ZM141.152 99.7504C141.871 100.177 142.469 99.8446 142.475 99.0136C142.455 98.5583 142.328 98.1141 142.104 97.7174C141.88 97.3206 141.565 96.9827 141.185 96.7312C140.465 96.2991 139.878 96.637 139.862 97.4735C139.883 97.9277 140.011 98.3705 140.235 98.766C140.459 99.1616 140.773 99.4988 141.152 99.7504V99.7504ZM144.501 101.728C145.221 102.149 145.813 101.822 145.824 100.991C145.807 100.535 145.681 100.09 145.456 99.6934C145.232 99.2963 144.916 98.9588 144.534 98.7089C143.809 98.2768 143.217 98.6147 143.211 99.4457C143.231 99.9009 143.359 100.345 143.583 100.742C143.807 101.138 144.122 101.476 144.501 101.728Z" fill="#BFD1FA"/>
<path d="M137.841 94.7368C137.116 94.3103 136.529 94.6426 136.518 95.4736C136.538 95.9284 136.664 96.3723 136.886 96.7697C137.108 97.167 137.42 97.5067 137.797 97.7616C138.522 98.1881 139.12 97.8502 139.131 97.0193C139.111 96.564 138.984 96.12 138.76 95.7233C138.535 95.3267 138.221 94.9887 137.841 94.7368Z" fill="#1A73E8"/>
<path d="M141.185 96.709C140.466 96.2769 139.879 96.6148 139.862 97.4514C139.884 97.9055 140.012 98.3483 140.236 98.7439C140.46 99.1394 140.774 99.4766 141.152 99.7283C141.872 100.155 142.47 99.8224 142.475 98.9915C142.456 98.5361 142.329 98.0919 142.104 97.6952C141.88 97.2985 141.565 96.9606 141.185 96.709V96.709Z" fill="#7DA4C1"/>
<path d="M144.551 98.6868C143.826 98.2547 143.234 98.5926 143.228 99.4236C143.248 99.8789 143.375 100.323 143.6 100.72C143.824 101.116 144.138 101.454 144.518 101.706C145.238 102.127 145.83 101.8 145.841 100.969C145.824 100.513 145.697 100.068 145.473 99.6713C145.249 99.2742 144.933 98.9367 144.551 98.6868V98.6868Z" fill="#30D8F0"/>
<path d="M148.919 101.49L148.858 106.897L87.9008 70.9489L87.4136 112.01C87.4499 112.859 87.6866 113.687 88.1042 114.426C88.5218 115.166 89.1085 115.796 89.8162 116.265L145.913 149.343C147.253 150.13 148.36 149.515 148.382 147.958L148.919 101.49Z" fill="#DAE8FC"/>
<path d="M107.57 113.185L107.565 115.234L143.627 136.064L143.638 134.02L107.57 113.185Z" fill="#94A1C1"/>
<path d="M107.587 108.57L107.582 110.625L143.643 131.466L143.649 129.4L107.587 108.57Z" fill="#94A1C1"/>
<path d="M107.598 103.972L107.593 106.01L143.66 126.846V124.802L107.598 103.972Z" fill="#94A1C1"/>
<path d="M107.631 93.2134L107.625 95.2576L143.682 116.093L143.687 114.043L107.631 93.2134Z" fill="#94A1C1"/>
<path d="M107.614 97.8337V99.8779L143.671 120.708L143.676 118.663L107.614 97.8337Z" fill="#94A1C1"/>
<path d="M92.6784 96.8531L92.6562 106.071L105.129 113.284L105.157 104.066L92.6784 96.8531Z" fill="#94A1C1"/>
<path d="M92.7121 84.5657L92.6899 93.7896L105.168 100.997L105.19 91.7731L92.7121 84.5657Z" fill="#94A1C1"/>
<path opacity="0.1" d="M29.4731 94.4765C29.5252 95.5104 29.8219 96.517 30.3387 97.4137C30.8555 98.3104 31.5778 99.0714 32.446 99.6341L57.397 114.038C59.0578 114.996 60.3809 114.237 60.392 112.331L60.5193 66.3175V62.0795C60.4668 61.0458 60.17 60.0393 59.6532 59.1427C59.1364 58.2461 58.4144 57.485 57.5465 56.9219L32.601 42.5183C30.9402 41.5655 29.6115 42.3245 29.6115 44.2246V48.4626L29.4731 94.4765ZM56.9098 109.75L57.0317 68.5168L56.9098 109.75ZM44.9298 101.595V99.3018L42.2338 97.7506L44.9298 99.3018V101.595Z" fill="black"/>
<path d="M58.2551 109.761C58.2551 111.667 56.9154 112.431 55.2656 111.467L30.3202 97.0637C29.4517 96.5021 28.7288 95.7422 28.211 94.8465C27.6932 93.9508 27.3953 92.9449 27.3418 91.9116L27.4802 45.8976L58.388 63.7581L58.2551 109.761ZM45.2731 101.689L54.7785 107.179L54.8948 65.9463L45.3838 60.4508L45.2731 101.689V101.689ZM30.8239 81.2917L42.8317 88.2332L42.8815 69.0597L30.8793 62.1183L30.8239 81.2917ZM30.8239 86.9368L42.8317 93.8727V91.5848L30.8185 84.6489V86.9368H30.8239ZM30.9181 54.3016L42.9258 61.2319V58.9495L30.907 52.0358V54.3293L30.9181 54.3016ZM30.8074 92.0833L42.8151 99.0248V96.7313L30.8074 89.7954V92.0833ZM30.9014 59.4481L42.9092 66.3785V64.0905L30.8959 57.1546V59.4481H30.9014Z" fill="#DAE8FC"/>
<path d="M54.9226 56.2017C54.1531 55.7586 53.5386 56.1186 53.5386 56.9829C53.5617 57.4598 53.6983 57.9243 53.9372 58.3377C54.176 58.7511 54.51 59.1014 54.9115 59.3594C55.6644 59.7915 56.29 59.4536 56.29 58.5728C56.2631 58.0981 56.1254 57.6364 55.888 57.2246C55.6505 56.8128 55.3199 56.4625 54.9226 56.2017V56.2017Z" fill="#30D8F0"/>
<path d="M50.438 53.6146C49.6851 53.1769 49.0596 53.526 49.0596 54.3902C49.0843 54.8653 49.221 55.3279 49.4587 55.74C49.6964 56.1521 50.0282 56.5021 50.427 56.7612C51.1965 57.2044 51.8165 56.8665 51.8221 55.9856C51.7938 55.5094 51.6537 55.0465 51.4133 54.6346C51.1728 54.2226 50.8387 53.8732 50.438 53.6146V53.6146Z" fill="#1A73E8"/>
<path d="M30.8024 89.7953L30.7969 92.0832L42.7991 99.0247L42.8101 96.7312L30.8024 89.7953Z" fill="#94A1C1"/>
<path d="M30.8187 84.6488L30.8076 86.9368L42.8153 93.8671L42.8264 91.5847L30.8187 84.6488Z" fill="#94A1C1"/>
<path d="M30.8796 62.1183L30.8242 81.2917L42.8319 88.2331L42.8818 69.0597L30.8796 62.1183Z" fill="#94A1C1"/>
<path d="M30.8908 57.1545L30.8853 59.448L42.893 66.3784L42.904 64.0904L30.8908 57.1545Z" fill="#94A1C1"/>
<path d="M30.9074 52.0081L30.9019 54.296L42.9096 61.2319L42.9206 58.9495L30.9074 52.0081Z" fill="#94A1C1"/>
<path d="M55.4208 54.3569C56.2887 54.92 57.0107 55.6811 57.5275 56.5777C58.0443 57.4743 58.3411 58.4808 58.3936 59.5145V63.7525L27.4858 45.892V41.6596C27.4858 39.7484 28.8311 38.9838 30.4808 39.9478L55.4208 54.3569ZM50.4383 56.7612C51.2078 57.2044 51.8279 56.8665 51.8334 55.9856C51.8051 55.5094 51.6651 55.0465 51.4246 54.6346C51.1842 54.2226 50.85 53.8732 50.4494 53.6146C49.6965 53.1769 49.0709 53.5259 49.0709 54.3902C49.0956 54.8653 49.2324 55.3279 49.47 55.74C49.7077 56.1521 50.0395 56.5021 50.4383 56.7612V56.7612ZM54.928 59.3594C55.6809 59.7915 56.3065 59.4536 56.3065 58.5727C56.2796 58.0981 56.142 57.6363 55.9045 57.2246C55.667 56.8128 55.3364 56.4625 54.9391 56.2017C54.1696 55.7585 53.5551 56.1186 53.5551 56.9828C53.5782 57.4597 53.7149 57.9242 53.9537 58.3376C54.1925 58.751 54.5265 59.1013 54.928 59.3594V59.3594Z" fill="#BFD1FA"/>
<path d="M45.3897 60.4507L45.2734 101.684L54.7788 107.179L54.8951 65.9407L45.3897 60.4507Z" fill="#30D8F0"/>
<path d="M67.6224 73.2589L70.0195 71.8684L69.2057 71.392L66.8086 72.7936L67.6224 73.2589Z" fill="#CF9C3D"/>
<path d="M66.8086 72.7935L69.2057 71.392L69.4216 67.2648L67.0245 68.6553L66.8086 72.7935Z" fill="#7F5F23"/>
<path d="M67.6221 73.2589L70.0192 71.8684L70.0911 70.2785L67.694 71.6745L67.6221 73.2589Z" fill="#797F84"/>
<path d="M69.2385 74.1231L71.6467 72.7271L70.9879 72.3448L68.5908 73.7464L69.2385 74.1231Z" fill="#CF9C3D"/>
<path d="M68.5905 73.7464L70.9876 72.3448L70.5447 70.4391L68.1421 71.8351L68.5905 73.7464Z" fill="#926F2A"/>
<path d="M68.8506 72.6551L71.2477 71.2646C71.3473 70.8214 71.458 70.3616 71.5854 69.9406L69.1827 71.3311C69.0609 71.7521 68.9502 72.2119 68.8506 72.6551Z" fill="#7E5F23"/>
<path d="M68.8506 72.6551L71.2477 71.2646C71.3473 70.8214 71.458 70.3616 71.5854 69.9406L69.1827 71.3311C69.0609 71.7521 68.9502 72.2119 68.8506 72.6551Z" fill="#7E5F23"/>
<path d="M67.6943 71.6745L70.0914 70.2784C70.0914 69.7687 70.1247 69.1704 70.1247 68.5444L67.7275 69.946C67.7275 70.572 67.7276 71.1648 67.6943 71.6745Z" fill="#777D82"/>
<path d="M68.1531 71.8351L70.5557 70.4446C70.4782 70.1122 70.3952 69.741 70.3122 69.3699L67.915 70.7659C67.9925 71.1316 68.0756 71.5027 68.1531 71.8351V71.8351Z" fill="#876626"/>
<path d="M67.9044 70.7659L70.3015 69.3699C70.2461 69.0929 70.1852 68.8159 70.1354 68.5555L67.7383 69.946C67.7881 70.212 67.849 70.5 67.9044 70.7659Z" fill="#826224"/>
<path d="M70.8828 75.148L73.2799 73.7465L72.5049 73.3033L70.1133 74.6993L70.8828 75.148Z" fill="#CF9C3D"/>
<path d="M68.8619 72.6662L71.2646 71.2646C71.1538 70.7494 71.0376 70.1567 70.9324 69.6415L68.5298 71.0375C68.6405 71.5527 68.7512 72.1455 68.8619 72.6662V72.6662Z" fill="#7C8187"/>
<path d="M68.5298 71.0375L70.9324 69.6415C70.9298 69.6064 70.9298 69.5712 70.9324 69.5362L68.5298 70.9378C68.5298 70.971 68.5298 70.9987 68.5298 71.0375V71.0375Z" fill="#80868C"/>
<path d="M69.2383 74.1231L71.6465 72.7271L72.0395 71.3199L69.6369 72.7104L69.2383 74.1231Z" fill="#73797E"/>
<path d="M70.1136 74.6993L72.5052 73.3032L72.4498 71.6523L70.0527 73.0484L70.1136 74.6993Z" fill="#836325"/>
<path d="M68.8506 72.6551L71.2477 71.2646C71.3473 70.8214 71.458 70.3616 71.5854 69.9406L69.1827 71.3311C69.0609 71.7521 68.9502 72.2119 68.8506 72.6551Z" fill="#7E5F23"/>
<path d="M68.5135 70.9377L70.9106 69.5361L70.512 67.8907L68.1094 69.2868L68.5135 70.9377Z" fill="#8C939A"/>
<path d="M68.109 69.2868L70.5116 67.8908L69.421 67.2648L67.0239 68.6553L68.109 69.2868Z" fill="#C4CED9"/>
<path d="M69.6313 72.7105L72.034 71.32C72.1753 70.8355 72.2899 70.3436 72.3772 69.8464L69.9746 71.2425C69.8873 71.7378 69.7727 72.2279 69.6313 72.7105V72.7105Z" fill="#777D82"/>
<path d="M70.0528 73.0484L72.4499 71.6579C72.4499 71.1039 72.4111 70.4446 72.389 69.8519L69.9863 71.2535C69.9863 71.8075 70.0306 72.511 70.0528 73.0484Z" fill="#7E5F23"/>
<path d="M70.8827 75.148L73.2799 73.7464L73.0584 69.3644L70.6558 70.7604L70.8827 75.148Z" fill="#7E8389"/>
<path d="M71.2979 75.3806L73.695 73.9901L73.7005 73.1702L71.2979 74.5663V75.3806Z" fill="#806124"/>
<path d="M69.1836 71.331L71.5862 69.9405L71.9461 68.7217L69.5434 70.1178L69.1836 71.331Z" fill="#7A5B22"/>
<path d="M73.6009 76.7102L75.998 75.3197L73.695 73.9902L71.2979 75.3807L73.6009 76.7102Z" fill="#CF9C3D"/>
<path d="M72.7594 75.4194L75.1676 74.0234L73.7005 73.1702L71.2979 74.5663L72.7594 75.4194Z" fill="#C4CED9"/>
<path d="M70.6557 70.7604L73.0584 69.3644L71.9456 68.7217L69.543 70.1178L70.6557 70.7604Z" fill="#C4CED9"/>
<path d="M75.0235 77.5356L77.4206 76.1396L76.4518 75.5801L74.0547 76.9761L75.0235 77.5356Z" fill="#CF9C3D"/>
<path d="M75.0234 77.5356L77.4206 76.1396L77.7527 75.5524L75.3501 76.9539L75.0234 77.5356Z" fill="#73797E"/>
<path d="M72.7598 75.4194L75.168 74.0234L75.1735 70.5831L72.7708 71.9792L72.7598 75.4194Z" fill="#806124"/>
<path d="M78.4839 84.4383L80.8865 83.0588C81.1302 82.8865 81.3241 82.6528 81.4485 82.3814C81.5729 82.11 81.6235 81.8105 81.5951 81.5132L79.1925 82.9093C79.2213 83.2042 79.1708 83.5015 79.0462 83.7703C78.9216 84.0392 78.7275 84.2698 78.4839 84.4383V84.4383Z" fill="#D68E34"/>
<path d="M78.4839 84.4383L80.8865 83.0588C81.1302 82.8865 81.3241 82.6528 81.4485 82.3814C81.5729 82.11 81.6235 81.8105 81.5951 81.5132L79.1925 82.9093C79.2239 83.2055 79.1753 83.5047 79.0516 83.7756C78.9279 84.0466 78.7338 84.2793 78.4894 84.4494L78.4839 84.4383Z" fill="#12B2C9"/>
<path d="M76.2809 78.2669L78.6835 76.8708L78.379 75.918L75.9819 77.314L76.2809 78.2669Z" fill="#9B752C"/>
<path d="M75.3511 76.965L77.7537 75.5634C77.8754 75.3877 77.9828 75.2024 78.0748 75.0095L75.6777 76.4055C75.5833 76.5983 75.4741 76.7836 75.3511 76.9595V76.965Z" fill="#777D82"/>
<path d="M75.9817 77.3141L78.3788 75.9181C78.2626 75.5635 78.174 75.2921 78.0909 74.9874L75.6938 76.3834C75.7769 76.6826 75.8599 76.9374 75.9817 77.3141Z" fill="#8C6928"/>
<path d="M75.6942 76.3833L78.0913 74.9873L78.0802 74.9818L75.6831 76.3778L75.6942 76.3833Z" fill="#CF9C3D"/>
<path d="M73.6006 76.7102L75.9977 75.3197L76.0143 71.0651L73.6117 72.4667L73.6006 76.7102Z" fill="#7B8086"/>
<path d="M74.0547 76.9761L76.4518 75.5801L77.559 74.04L75.1619 75.4416L74.0547 76.9761Z" fill="#7A5B22"/>
<path d="M77.2325 78.8098L79.6296 77.4138L78.6829 76.8708L76.2803 78.2669L77.2325 78.8098Z" fill="#CF9C3D"/>
<path d="M73.612 72.4667L76.0146 71.0651L75.1732 70.5831L72.7705 71.9792L73.612 72.4667Z" fill="#C4CED9"/>
<path d="M72.7704 71.9792L72.7594 75.4195L71.2979 74.5664V75.3807L73.6008 76.7103L73.6119 72.4668L72.7704 71.9792Z" fill="white"/>
<path d="M75.1622 75.4416L77.5593 74.04L76.5241 71.3643L74.127 72.7603L75.1622 75.4416Z" fill="#A27B2E"/>
<path d="M77.2328 78.8098L79.63 77.4138L78.5726 74.6549L76.1699 76.051L77.2328 78.8098Z" fill="#99A0A8"/>
<path d="M75.6274 75.1203L78.0245 73.7187C78.1297 73.5414 78.2128 73.3808 78.3235 73.1647L75.9264 74.5608L75.6274 75.1147V75.1203Z" fill="#7E5F23"/>
<path d="M75.6274 75.1203L78.0245 73.7187C78.1297 73.5414 78.2128 73.3808 78.3235 73.1647L75.9264 74.5608L75.6274 75.1147V75.1203Z" fill="#7E5F23"/>
<path d="M75.6384 75.1314L78.0355 73.7353C77.9414 73.3974 77.875 73.1813 77.7809 72.8711L75.3838 74.2616C75.4724 74.5718 75.5388 74.8156 75.6384 75.1314V75.1314Z" fill="#858B91"/>
<path d="M75.3836 74.2616L77.7807 72.8711L77.4762 71.9182L75.0791 73.3087L75.3836 74.2616Z" fill="#939AA1"/>
<path d="M75.0792 73.3087L77.4763 71.9182L76.5241 71.3643L74.127 72.7603L75.0792 73.3087Z" fill="#C4CED9"/>
<path d="M75.6274 75.1203L78.0245 73.7187C78.1297 73.5414 78.2128 73.3808 78.3235 73.1647L75.9264 74.5608L75.6274 75.1147V75.1203Z" fill="#7E5F23"/>
<path d="M75.9263 74.5774L78.3234 73.1814L78.65 72.5942L76.2529 73.9902L75.9263 74.5774Z" fill="#7A5B22"/>
<path d="M77.2107 74.5387L79.6078 73.1482L78.65 72.5942L76.2529 73.9902L77.2107 74.5387Z" fill="#C4CED9"/>
<path d="M76.1699 76.051L78.5726 74.655L79.6078 73.1481L77.2107 74.5386L76.1699 76.051Z" fill="#73797E"/>
<path d="M74.1213 72.7603L75.1565 75.4416L74.0493 76.9761L75.0181 77.5301L75.3447 76.9761C75.4677 76.8002 75.5769 76.6149 75.6713 76.4221V76.4221C75.7544 76.7213 75.8374 76.9761 75.9592 77.3528L76.2582 78.3056L77.2048 78.8596L76.1474 76.0897L77.1827 74.5773L76.2305 74.0234L75.9039 74.6106C75.7932 74.81 75.7046 74.9762 75.616 75.1646C75.5163 74.8266 75.4499 74.6106 75.3614 74.2948L75.0513 73.3475L74.1213 72.7603Z" fill="white"/>
<path d="M76.8117 67.7911C77.5158 68.2491 78.1016 68.8673 78.5211 69.5952C78.9406 70.3231 79.182 71.1401 79.2255 71.9792V82.9149C79.2255 84.455 78.1182 85.0588 76.7951 84.2998L67.2842 78.7988C66.5846 78.3406 66.0022 77.7244 65.5839 76.9999C65.1657 76.2753 64.9231 75.4627 64.876 74.6273L64.9092 63.6916C64.9092 62.1515 66.0164 61.5477 67.3285 62.3122L76.8117 67.7911Z" fill="#30D8F0"/>
<path d="M67.9709 60.7333L65.5737 62.1293C65.8476 61.9972 66.1525 61.9428 66.4551 61.9721C66.7577 62.0014 67.0464 62.1133 67.2899 62.2955L69.6926 60.8995C69.447 60.7195 69.1575 60.6092 68.8546 60.5799C68.5516 60.5507 68.2463 60.6037 67.9709 60.7333V60.7333Z" fill="#D68E34"/>
<path d="M67.2897 62.2955L69.6924 60.8994C69.5838 60.8362 69.471 60.7807 69.3547 60.7332L66.9575 62.1292C67.074 62.1722 67.1854 62.228 67.2897 62.2955V62.2955Z" fill="#12B2C9"/>
<path d="M66.9578 62.1292L69.355 60.7332C69.2617 60.6926 69.1655 60.6592 69.0671 60.6335L66.6699 62.0295C66.7685 62.0545 66.8649 62.0878 66.9578 62.1292V62.1292Z" fill="#12B2C9"/>
<path d="M66.6698 62.0074L69.067 60.6113C69 60.5913 68.9315 60.5765 68.8622 60.567L66.4595 61.963C66.531 61.9703 66.6015 61.9852 66.6698 62.0074V62.0074Z" fill="#12B2C9"/>
<path d="M66.4595 62.0074L68.8622 60.6113C68.8014 60.6065 68.7403 60.6065 68.6795 60.6113L66.2769 62.0129H66.4595V62.0074Z" fill="#12B2C9"/>
<path d="M66.2766 61.9686L68.6793 60.567H68.5188L66.1216 61.9686H66.2766Z" fill="#12B2C9"/>
<path d="M66.122 61.9686L68.5191 60.567C68.4694 60.5616 68.4193 60.5616 68.3696 60.567L65.978 61.963C66.0259 61.9597 66.074 61.9597 66.122 61.963V61.9686Z" fill="#12B2C9"/>
<path d="M65.9779 62.0074L68.3695 60.6113H68.2422L65.834 62.0129C65.8806 61.9966 65.9288 61.9855 65.9779 61.9797V62.0074Z" fill="#12B2C9"/>
<path d="M65.8339 62.0073L68.2421 60.6057L68.1092 60.6556L65.7065 62.0461L65.8339 62.0073Z" fill="#12B2C9"/>
<path d="M65.7066 62.0572L68.1093 60.6667C68.0661 60.6815 68.0251 60.7019 67.9874 60.7277L65.5903 62.1182L65.7066 62.0572Z" fill="#12B2C9"/>
<path d="M65.5903 62.1182L67.9874 60.7277L65.5903 62.1237V62.1182Z" fill="#12B2C9"/>
<path d="M79.187 82.8983L81.5897 81.5022L81.6229 70.5666L79.2202 71.9626L79.187 82.8983Z" fill="#12B2C9"/>
<path d="M76.8176 67.791L79.2147 66.395L69.6927 60.8995L67.29 62.2955L76.8176 67.791Z" fill="#12B2C9"/>
<path d="M79.2254 71.9792L81.6336 70.5832C81.5882 69.7481 81.3464 68.9356 80.9279 68.2117C80.5094 67.4878 79.9261 66.873 79.2254 66.4172L76.8228 67.8077C77.5226 68.2652 78.1048 68.8814 78.5222 69.6062C78.9397 70.3309 79.1806 71.1439 79.2254 71.9792Z" fill="#D68E34"/>
<path d="M79.2255 71.9792L81.6336 70.5831C81.6308 70.4238 81.6198 70.2648 81.6005 70.1067L79.1978 71.5083C79.2086 71.6651 79.2086 71.8224 79.1978 71.9792H79.2255Z" fill="#12B2C9"/>
<path d="M79.1869 71.4916L81.5896 70.09C81.5896 69.9848 81.5508 69.874 81.5287 69.7576L79.126 71.1537C79.1548 71.2646 79.1752 71.3776 79.1869 71.4916Z" fill="#12B2C9"/>
<path d="M79.1263 71.1537L81.529 69.7576L81.4626 69.4807L79.0654 70.8823C79.0654 70.9764 79.1097 71.0651 79.1263 71.1537Z" fill="#12B2C9"/>
<path d="M79.0653 70.8712L81.4625 69.4696C81.4625 69.392 81.4126 69.3089 81.385 69.2314L78.9878 70.6274C78.9878 70.705 79.0432 70.7881 79.0653 70.8712V70.8712Z" fill="#12B2C9"/>
<path d="M78.9878 70.6385L81.3849 69.2424C81.3849 69.1593 81.3351 69.0873 81.3074 69.0098L78.9048 70.4058C78.9048 70.4833 78.9546 70.5609 78.9878 70.6385Z" fill="#12B2C9"/>
<path d="M78.9045 70.4058L81.3071 69.0098L81.2186 68.7937L78.8159 70.1898C78.8491 70.2618 78.8768 70.3338 78.9045 70.4058Z" fill="#12B2C9"/>
<path d="M78.8161 70.1898L81.2188 68.7937C81.1855 68.7272 81.1579 68.6497 81.1191 68.5887L78.7275 69.9792C78.7275 70.0513 78.7885 70.1177 78.8161 70.1898Z" fill="#12B2C9"/>
<path d="M78.7274 69.9793L81.119 68.5888C81.0884 68.5164 81.0532 68.4461 81.0138 68.3782L78.6167 69.7632L78.7274 69.9682V69.9793Z" fill="#12B2C9"/>
<path d="M78.6166 69.7632L81.0137 68.3671C80.9805 68.3007 80.9362 68.2342 80.903 68.1677L78.5059 69.5582L78.6166 69.7632Z" fill="#12B2C9"/>
<path d="M78.5062 69.5693L80.9034 68.1788C80.8646 68.1068 80.8203 68.0403 80.7761 67.9683L78.3789 69.3644L78.5062 69.5693Z" fill="#12B2C9"/>
<path d="M78.3786 69.3644L80.7758 67.9683C80.7315 67.9019 80.6872 67.8298 80.6374 67.7634L78.2402 69.1539L78.3786 69.3644Z" fill="#12B2C9"/>
<path d="M78.2403 69.1539L80.6374 67.7634L80.4768 67.5417L78.0742 68.9433C78.1351 69.0098 78.1849 69.0874 78.2403 69.1539Z" fill="#12B2C9"/>
<path d="M78.0742 68.9433L80.4768 67.5417C80.4159 67.4586 80.3495 67.3866 80.2831 67.309L77.8804 68.6995C77.9496 68.7769 78.0144 68.8583 78.0742 68.9433V68.9433Z" fill="#12B2C9"/>
<path d="M77.8805 68.6996L80.2832 67.3091C80.1946 67.2094 80.106 67.1096 80.0174 67.0266L77.6147 68.417C77.7107 68.5094 77.7993 68.6036 77.8805 68.6996Z" fill="#12B2C9"/>
<path d="M77.6147 68.4171L80.0174 67.0266C79.7802 66.7816 79.51 66.5709 79.2146 66.4006L76.812 67.7911C77.1046 67.9654 77.3743 68.1757 77.6147 68.4171V68.4171Z" fill="#12B2C9"/>
<path d="M63.5866 89.2081C63.5866 87.668 64.6938 87.0586 66.0058 87.8287L75.5278 93.3297C76.2289 93.7851 76.8125 94.3999 77.231 95.1239C77.6495 95.8478 77.8911 96.6605 77.9361 97.4957V98.4541L78.3291 98.6868L77.9361 99.2408V101.833L78.3568 102.941L77.925 103.191V108.42C77.925 109.96 76.8178 110.564 75.5057 109.794L65.9837 104.299C65.2843 103.842 64.7023 103.227 64.2848 102.503C63.8674 101.779 63.6263 100.967 63.5811 100.133L63.5866 89.2081Z" fill="#7967DA"/>
<path d="M65.4741 87.5961C65.3463 87.5523 65.2147 87.5207 65.081 87.5019H65.0478C64.9192 87.4849 64.7888 87.4849 64.6602 87.5019V87.5019C64.5383 87.5268 64.4208 87.5697 64.3115 87.6293L66.7142 86.2388C66.7528 86.2132 66.7935 86.1909 66.8359 86.1723C66.8751 86.1553 66.9159 86.1423 66.9577 86.1335H67.0463H67.0961H67.24H67.4006H67.456H67.5556C67.6266 86.1441 67.6968 86.1589 67.766 86.1779H67.8601C67.8849 86.1913 67.9108 86.2024 67.9376 86.2111C67.9758 86.2201 68.0129 86.2331 68.0484 86.2499C68.1651 86.2963 68.278 86.3519 68.386 86.4161L77.908 91.9116C78.1997 92.0873 78.4692 92.2975 78.7107 92.5376L78.8159 92.654C78.8298 92.6716 78.8466 92.6866 78.8658 92.6983C78.8964 92.7442 78.9337 92.7853 78.9765 92.8201C79.0429 92.8977 79.1038 92.9808 79.1703 93.0639C79.2367 93.147 79.2809 93.2079 79.3308 93.2744C79.3806 93.3409 79.4249 93.4184 79.4747 93.4849C79.5245 93.5514 79.5578 93.6179 79.5966 93.6899C79.6352 93.7497 79.6685 93.8127 79.6962 93.8783C79.7387 93.9405 79.7741 94.0074 79.8014 94.0777C79.8401 94.1497 79.8678 94.2217 79.901 94.2882C79.9342 94.3547 79.9619 94.4322 79.984 94.5098C80.0175 94.5833 80.0452 94.6592 80.0671 94.7369C80.0671 94.7757 80.0671 94.8145 80.1058 94.8533C80.1446 94.892 80.1058 94.8533 80.1058 94.8533C80.1058 94.8533 80.1058 94.9253 80.1058 94.953C80.1369 95.0414 80.1609 95.1322 80.1778 95.2244C80.2055 95.3352 80.2221 95.4516 80.2387 95.5624C80.2497 95.721 80.2497 95.8802 80.2387 96.0388V106.974C80.2655 107.271 80.2142 107.569 80.0899 107.839C79.9655 108.109 79.7725 108.342 79.5301 108.515L77.133 109.911C77.3782 109.74 77.573 109.506 77.6967 109.234C77.8204 108.962 77.8686 108.662 77.8361 108.365L77.8693 97.4293C77.8646 97.0271 77.8012 96.6276 77.681 96.2438V96.2438C77.5558 95.8353 77.3831 95.4429 77.1662 95.0749V95.0749C76.9652 94.7376 76.7275 94.4237 76.4576 94.1386C76.4576 94.1386 76.4576 94.1109 76.4189 94.0943C76.1521 93.8052 75.8443 93.557 75.5054 93.3575L65.9834 87.8564C65.843 87.7733 65.6947 87.7047 65.5405 87.6515L65.4741 87.5961Z" fill="#100065"/>
<path d="M22.1098 35.876L2.06935 24.054C1.58771 23.777 1.19467 23.9875 1.18359 24.547V26.4804L22.9624 39.3273L22.9901 37.3884C22.9744 37.0844 22.8862 36.7885 22.7331 36.5255C22.58 36.2624 22.3663 36.0397 22.1098 35.876V35.876Z" fill="#BFD1FA"/>
<path d="M22.9681 37.3884L22.9404 39.3274L1.16709 26.4805L1.00098 41.1555C1.01148 41.4591 1.09434 41.7557 1.24264 42.0207C1.39094 42.2857 1.60041 42.5114 1.85355 42.679L21.8996 54.4955C22.3812 54.7725 22.7743 54.5564 22.7799 54.0024L22.9681 37.3884Z" fill="#DAE8FC"/>
<path d="M17.432 38.1696L17.4264 39.477L5.19727 32.4081L5.20281 31.1063L17.432 38.1696Z" fill="#B4CEFA"/>
<path d="M17.432 40.9063L17.4264 42.2081L5.19727 35.1448L5.20281 33.843L17.432 40.9063Z" fill="#B4CEFA"/>
<path d="M17.432 44.557L17.4264 45.8644L5.19727 38.8011L5.20281 37.4937L17.432 44.557Z" fill="#B4CEFA"/>
<path d="M17.432 47.2992L17.4264 48.5955L5.19727 41.5322L5.20281 40.2303L17.432 47.2992Z" fill="#B4CEFA"/>
<path d="M22.0936 60.2182L2.04752 48.3961C1.57142 48.1136 1.17839 48.3352 1.17285 48.8892V50.8281L22.9296 63.6695V61.725C22.9192 61.4256 22.838 61.1329 22.6927 60.871C22.5474 60.609 22.3421 60.3853 22.0936 60.2182V60.2182Z" fill="#BFD1FA"/>
<path d="M22.9517 61.7304V63.6749L1.16736 50.828L0.990234 65.4975C1.00552 65.8 1.09037 66.0949 1.23825 66.3591C1.38613 66.6234 1.593 66.8499 1.84274 67.021L21.8943 78.8375C22.376 79.1144 22.7691 78.8984 22.7746 78.3333L22.9517 61.7304Z" fill="#DAE8FC"/>
<path d="M17.4159 62.5116V63.819L5.18115 56.7502L5.18669 55.4483L17.4159 62.5116Z" fill="#B4CEFA"/>
<path d="M17.4159 65.2483V66.5557L5.18115 59.4869L5.18669 58.185L17.4159 65.2483Z" fill="#B4CEFA"/>
<path d="M17.4159 68.899V70.2009L5.18115 63.1376L5.18669 61.8357L17.4159 68.899Z" fill="#B4CEFA"/>
<path d="M17.4159 71.6357V72.9376L5.18115 65.8743L5.18669 64.5724L17.4159 71.6357Z" fill="#B4CEFA"/>
<path d="M98.2085 186.244L98.2251 193.739L98.585 198.952L98.5683 191.451L98.2085 186.244Z" fill="#536491"/>
<path d="M106.458 191.518L106.475 199.024L106.746 202.93L106.729 195.429L106.458 191.518Z" fill="#536491"/>
<path d="M98.5688 191.451L98.5855 198.952L98.8734 203.124L98.8512 195.623L98.5688 191.451Z" fill="#536491"/>
<path d="M98.8516 195.623L98.8737 203.124L106.746 202.93L106.729 195.429L98.8516 195.623Z" fill="#6275AB"/>
<path d="M123.359 197.529L123.375 205.03L128.507 201.833L128.491 194.332L123.359 197.529Z" fill="url(#paint10_linear)"/>
<path d="M74.6587 194.515L74.6864 202.01L80.394 205.334L80.3774 197.839L74.6587 194.515Z" fill="url(#paint11_linear)"/>
<path d="M85.8413 194.526L85.8579 202.033L91.6929 205.417L91.6708 197.922L85.8413 194.526Z" fill="#6D81BF"/>
<path d="M111.689 198.11L111.706 205.606L117.812 201.8L117.79 194.304L111.689 198.11Z" fill="#4A5A83"/>
<path d="M86.0737 201.152L86.0959 208.647L91.6928 205.417L91.6707 197.922L86.0737 201.152Z" fill="#4B5B85"/>
<path d="M80.377 197.839L80.3936 205.334L86.0957 208.647L86.0736 201.152L80.377 197.839Z" fill="#6D81BF"/>
<path d="M117.447 201.218L117.464 208.714L123.376 205.03L123.36 197.529L117.447 201.218Z" fill="#4A5A83"/>
<path d="M111.689 198.11L111.706 205.606L117.464 208.714L117.447 201.218L111.689 198.11Z" fill="#6D82BF"/>
<path d="M120.143 204.426L120.16 211.932L128.303 212.126L128.27 204.636L120.143 204.426Z" fill="#6377AE"/>
<path d="M75.7266 204.786L75.7432 212.281L84.1192 212.503L84.0971 204.996L75.7266 204.786Z" fill="#6377AE"/>
<path d="M92.673 201.24C93.2536 200.91 93.8567 200.622 94.4777 200.376C94.5142 200.353 94.5532 200.335 94.594 200.321H94.666C95.1298 200.134 95.6028 199.972 96.0832 199.833C96.1231 199.822 96.162 199.807 96.1995 199.789C96.3046 199.789 96.4098 199.75 96.515 199.717C96.7918 199.645 97.0686 199.567 97.3731 199.506C97.4395 199.506 97.506 199.468 97.5779 199.457L97.8935 199.401C98.1315 199.357 98.3751 199.313 98.6187 199.279C98.708 199.257 98.7986 199.24 98.89 199.229C98.9896 199.229 99.0948 199.229 99.1944 199.196C99.4159 199.163 99.6373 199.135 99.8588 199.119L100.174 199.08C100.274 199.08 100.374 199.08 100.462 199.08L101.16 199.047C101.265 199.047 101.37 199.047 101.481 199.047H102.837H103.036L103.95 199.102L104.299 199.13C104.335 199.124 104.373 199.124 104.409 199.13C104.919 199.185 105.411 199.252 105.915 199.335H105.993C106.148 199.362 106.297 199.407 106.452 199.44C106.607 199.473 106.917 199.529 107.133 199.584C107.349 199.639 107.515 199.684 107.687 199.739L108.329 199.911C108.379 199.931 108.431 199.947 108.484 199.961L108.739 200.055C109.082 200.171 109.42 200.304 109.752 200.443L110.145 200.614C110.57 200.8 110.984 201.009 111.385 201.24C111.44 201.27 111.494 201.304 111.545 201.34C111.667 201.407 111.783 201.483 111.894 201.567C112.055 201.667 112.215 201.772 112.365 201.877C112.514 201.983 112.614 202.071 112.73 202.171C112.846 202.271 113.024 202.398 113.151 202.515C113.179 202.533 113.205 202.556 113.228 202.581C113.275 202.625 113.318 202.673 113.356 202.725C113.553 202.914 113.738 203.116 113.909 203.329C113.948 203.379 113.998 203.418 114.037 203.467C114.075 203.517 114.092 203.551 114.125 203.595C114.237 203.744 114.341 203.899 114.435 204.06C114.477 204.128 114.523 204.193 114.574 204.254C114.574 204.287 114.574 204.321 114.612 204.359C114.69 204.492 114.74 204.631 114.806 204.769C114.873 204.908 114.884 204.924 114.917 205.008C114.915 205.035 114.915 205.063 114.917 205.091C114.961 205.218 114.994 205.351 115.028 205.484C115.061 205.617 115.083 205.661 115.105 205.75C115.108 205.774 115.108 205.798 115.105 205.822C115.131 205.959 115.145 206.098 115.149 206.237C115.169 206.327 115.18 206.418 115.183 206.509V206.625V214.132C115.183 213.999 115.183 213.871 115.144 213.733C115.137 213.597 115.123 213.462 115.1 213.328C115.079 213.21 115.05 213.093 115.011 212.979C114.978 212.852 114.944 212.719 114.9 212.592C114.859 212.478 114.811 212.367 114.756 212.259C114.703 212.121 114.642 211.986 114.574 211.855C114.518 211.755 114.452 211.655 114.396 211.567C114.302 211.403 114.196 211.246 114.081 211.096C114.014 211.007 113.942 210.919 113.87 210.835C113.698 210.62 113.513 210.415 113.317 210.22L113.112 210.016L112.691 209.661L112.332 209.384C112.177 209.273 112.005 209.162 111.844 209.057C111.684 208.952 111.529 208.841 111.346 208.741C110.944 208.509 110.53 208.298 110.106 208.11L109.713 207.938C109.375 207.805 109.038 207.672 108.694 207.55L108.296 207.417C108.074 207.345 107.847 207.284 107.626 207.223L107.072 207.079C106.834 207.024 106.602 206.98 106.358 206.935C106.115 206.891 106.015 206.852 105.804 206.819C105.312 206.736 104.814 206.669 104.304 206.614C104.155 206.614 104 206.614 103.856 206.575C103.546 206.548 103.241 206.531 102.937 206.52H102.383H101.619H101.066L100.368 206.553C100.169 206.553 99.9639 206.586 99.7702 206.614C99.5454 206.621 99.3215 206.645 99.1003 206.686C98.901 206.686 98.7128 206.73 98.5467 206.764C98.3807 206.797 98.0595 206.841 97.8159 206.891L97.2623 206.991L96.4154 207.207C96.277 207.246 96.1275 207.279 95.9891 207.323C95.4964 207.462 95.0147 207.622 94.5607 207.8L94.3781 207.883C93.7565 208.127 93.1534 208.416 92.5733 208.747C89.9603 210.259 88.6538 212.243 88.6538 214.22V206.714C88.759 204.731 90.06 202.747 92.673 201.24Z" fill="url(#paint12_linear)"/>
<path d="M119.767 208.985L119.789 216.486L120.16 211.932L120.143 204.426L119.767 208.985Z" fill="#47557D"/>
<path d="M119.767 208.985L119.789 216.486L128.143 216.702L128.121 209.201L119.767 208.985Z" fill="#6377AE"/>
<path d="M67.5557 209.151L67.5778 216.647L75.9317 216.863L75.9151 209.362L67.5557 209.151Z" fill="url(#paint13_linear)"/>
<path d="M128.12 209.201L128.142 216.702L135.965 216.902L135.943 209.395L128.12 209.201Z" fill="url(#paint14_linear)"/>
<path d="M135.942 209.395L135.965 216.902L136.341 212.326L136.319 204.83L135.942 209.395Z" fill="url(#paint15_linear)"/>
<path d="M75.9155 209.362L75.9321 216.863L83.7546 217.062L83.738 209.561L75.9155 209.362Z" fill="#6377AE"/>
<path d="M83.7383 209.561L83.7549 217.062L84.1203 212.503L84.0981 204.996L83.7383 209.561Z" fill="#47557D"/>
<path d="M86.561 212.115L86.5887 219.616L92.3462 222.724L92.3241 215.223L86.561 212.115Z" fill="#6D82BF"/>
<path d="M110.875 215.578L110.897 223.073L116.494 219.843L116.466 212.342L110.875 215.578Z" fill="#4B5B85"/>
<path d="M76.1593 210.065C76.3349 210.513 76.5383 210.95 76.7683 211.373L76.9565 211.7C77.0284 211.827 77.1115 211.96 77.1945 212.087L77.4713 212.503C77.5599 212.63 77.6595 212.758 77.7536 212.885C77.8478 213.013 77.9474 213.129 78.0471 213.256C78.1467 213.384 78.3405 213.6 78.49 213.766C78.6395 213.932 78.6892 213.993 78.7944 214.104C78.8996 214.215 79.1322 214.447 79.3093 214.619L79.6248 214.918C79.955 215.227 80.3005 215.519 80.6601 215.794V223.3C80.2892 223.012 79.9515 222.746 79.6248 222.414L79.5252 222.331C79.4477 222.259 79.3813 222.192 79.3093 222.115C79.1322 221.943 78.955 221.777 78.7889 221.599L78.4844 221.267C78.335 221.101 78.1855 220.929 78.0415 220.757C77.9972 220.691 77.9363 220.63 77.8865 220.569C77.8367 220.508 77.7979 220.442 77.7481 220.386L77.4713 220.004C77.3772 219.865 77.2775 219.716 77.1945 219.583C77.1115 219.45 77.034 219.328 76.9565 219.201L76.8292 218.99C76.8056 218.951 76.7852 218.91 76.7683 218.868C76.5384 218.447 76.3349 218.013 76.1593 217.566C76.1458 217.54 76.1347 217.512 76.1261 217.483C76.043 217.278 75.9766 217.073 75.9102 216.863V209.362C75.9821 209.6 76.0707 209.838 76.1593 210.065Z" fill="url(#paint16_linear)"/>
<path d="M80.6602 215.794L80.6823 223.3L86.5893 219.616L86.5616 212.115L80.6602 215.794Z" fill="#4A5A83"/>
<path d="M128.12 209.201V216.702C127.4 219.151 125.656 221.522 122.883 223.572V216.076C125.656 214.021 127.389 211.655 128.12 209.201Z" fill="url(#paint17_linear)"/>
<path d="M116.467 212.342L116.494 219.843L122.911 223.572L122.889 216.076L116.467 212.342Z" fill="#6D81BF"/>
<path d="M96.6372 218.004L96.6538 225.505L104.521 225.305L104.504 217.81L96.6372 218.004Z" fill="#6275AB"/>
<path d="M86.2231 219.029L86.2398 226.524L92.346 222.724L92.3239 215.223L86.2231 219.029Z" fill="#4A5A83"/>
<path d="M110.875 215.578L110.897 223.073L117.181 226.735L117.164 219.228L110.875 215.578Z" fill="#6D81BF"/>
<path d="M96.6372 218.004L96.6594 225.505L96.9195 229.244L96.8919 221.749L96.6372 218.004Z" fill="#536491"/>
<path d="M86.2231 219.029C87.0978 219.406 88.0168 219.738 88.9469 220.048C89.5005 220.231 90.0929 220.392 90.6631 220.547C90.9343 220.619 91.1779 220.702 91.4491 220.768C92.3072 220.979 93.1875 221.173 94.0788 221.322C94.9701 221.472 95.9445 221.621 96.8911 221.738V229.233C95.9334 229.122 94.9923 228.984 94.0678 228.823C93.182 228.668 92.3128 228.474 91.4602 228.269C91.2 228.203 90.9509 228.12 90.7018 228.053C90.1482 227.915 89.6555 227.776 89.1517 227.61C89.0798 227.61 89.0188 227.566 88.9635 227.549C88.0279 227.239 87.1145 226.901 86.2342 226.524L86.2231 219.029Z" fill="url(#paint18_linear)"/>
<path d="M107.582 221.655L108.135 221.594C109.115 221.455 110.09 221.284 111.042 221.084C111.391 221.012 111.717 220.918 112.044 220.835C112.675 220.685 113.312 220.53 113.926 220.353C114.541 220.176 115.227 219.926 115.869 219.694C116.301 219.538 116.755 219.4 117.17 219.234V226.735L116.838 226.873C116.539 226.984 116.218 227.073 115.919 227.183C115.271 227.411 114.618 227.649 113.937 227.843C113.838 227.876 113.743 227.92 113.644 227.948C113.09 228.097 112.575 228.214 112.038 228.341C111.706 228.413 111.391 228.507 111.047 228.574L110.87 228.624C110.012 228.801 109.137 228.951 108.257 229.078H108.141C107.958 229.078 107.776 229.117 107.587 229.139C106.956 229.217 106.32 229.305 105.683 229.35C105.384 229.383 105.091 229.399 104.786 229.422V221.921C105.722 221.871 106.657 221.771 107.582 221.655Z" fill="url(#paint19_linear)"/>
<path d="M104.503 217.81L104.52 225.305L104.808 229.433L104.791 221.932L104.503 217.81Z" fill="#536491"/>
<path d="M75.5112 219.007L75.5278 226.508L81.3019 229.604L81.2798 222.104L75.5112 219.007Z" fill="url(#paint20_linear)"/>
<path d="M81.2803 222.103L81.3024 229.604L86.2406 226.524L86.224 219.029L81.2803 222.103Z" fill="url(#paint21_linear)"/>
<path d="M117.165 219.228L117.181 226.735L122.324 229.71L122.296 222.214L117.165 219.228Z" fill="url(#paint22_linear)"/>
<path d="M122.296 222.214L122.324 229.71L127.915 226.486L127.888 218.985L122.296 222.214Z" fill="url(#paint23_linear)"/>
<path d="M80.6593 215.794L75.5108 219.007L81.2738 222.109L86.2231 219.034C89.6288 220.453 93.2223 221.369 96.8911 221.754L96.6308 218.009L104.503 217.816L96.6308 218.009L96.8911 221.754L97.2841 227.394L105.151 227.195L104.791 221.937C109.031 221.702 113.206 220.792 117.159 219.239L122.296 222.225L127.882 218.99L122.899 216.082C125.667 214.026 127.411 211.65 128.131 209.207L135.948 209.401L136.324 204.841L128.28 204.642C127.727 202.116 126.066 199.656 123.364 197.534L128.502 194.343L122.744 191.235L117.801 194.31C114.185 192.811 110.362 191.877 106.463 191.54L106.086 186.067L98.2197 186.266L98.574 191.474C94.1852 191.767 89.8789 192.808 85.841 194.554L80.2552 191.302L74.6638 194.537L80.377 197.861C77.8138 199.966 76.2637 202.359 75.7322 204.808L67.9208 204.614L67.561 209.173L75.9205 209.384L83.7429 209.583L75.9038 209.367C76.6014 211.655 78.1847 213.855 80.6593 215.794ZM92.6006 212.093C87.4465 209.096 87.4853 204.243 92.6726 201.24C97.8599 198.238 106.241 198.243 111.395 201.24C116.55 204.237 116.527 209.09 111.335 212.093C106.142 215.096 97.7602 215.096 92.6006 212.093V212.093Z" fill="white"/>
<path d="M97.2847 227.389L97.3124 234.884L105.179 234.684L105.157 227.189L97.2847 227.389Z" fill="url(#paint24_linear)"/>
<path d="M96.8916 221.749L96.9193 229.244L97.3124 234.884L97.2847 227.388L96.8916 221.749Z" fill="url(#paint25_linear)"/>
<path d="M46.6572 172.051L46.6628 175.458L46.8288 177.829L46.8178 174.416L46.6572 172.051Z" fill="#536491"/>
<path d="M50.4048 174.45L50.4159 177.862L50.5377 179.641L50.5321 176.228L50.4048 174.45Z" fill="#536491"/>
<path d="M46.8179 174.417L46.8289 177.829L46.9563 179.729L46.9507 176.317L46.8179 174.417Z" fill="#536491"/>
<path d="M46.9507 176.317L46.9562 179.729L50.538 179.641L50.5325 176.228L46.9507 176.317Z" fill="#6275AB"/>
<path d="M58.0952 177.181L58.1063 180.593L60.437 179.142L60.4315 175.729L58.0952 177.181Z" fill="url(#paint26_linear)"/>
<path d="M35.9453 175.812L35.9564 179.225L38.5528 180.732L38.5473 177.325L35.9453 175.812Z" fill="url(#paint27_linear)"/>
<path d="M41.0327 175.818L41.0382 179.231L43.69 180.771L43.6845 177.364L41.0327 175.818Z" fill="#6D81BF"/>
<path d="M52.7852 177.447L52.7962 180.859L55.5753 179.125L55.5643 175.718L52.7852 177.447Z" fill="#4A5A83"/>
<path d="M41.1372 178.832L41.1483 182.239L43.6893 180.771L43.6838 177.364L41.1372 178.832Z" fill="#4B5B85"/>
<path d="M38.5474 177.325L38.5529 180.732L41.1493 182.239L41.1382 178.832L38.5474 177.325Z" fill="#6D81BF"/>
<path d="M55.4043 178.859L55.4154 182.272L58.1059 180.593L58.0948 177.181L55.4043 178.859Z" fill="#4A5A83"/>
<path d="M52.7852 177.447L52.7962 180.859L55.4148 182.272L55.4037 178.859L52.7852 177.447Z" fill="#6D82BF"/>
<path d="M56.6328 180.322L56.6384 183.734L60.342 183.823L60.3309 180.416L56.6328 180.322Z" fill="#6377AE"/>
<path d="M36.4321 180.483L36.4377 183.895L40.2465 183.995L40.2354 180.582L36.4321 180.483Z" fill="#6377AE"/>
<path d="M44.1386 178.898C44.4018 178.747 44.6756 178.616 44.9579 178.505H45.0133C45.2252 178.421 45.4414 178.349 45.661 178.289H45.7108L45.8548 178.256L46.2479 178.156H46.342C46.3893 178.143 46.4374 178.134 46.4859 178.128L46.8125 178.073H46.9399H47.0783L47.3772 178.04H47.5211H47.654H47.9696H48.8221H49.2373H49.3979H49.4477C49.6802 178.04 49.9016 178.095 50.1341 178.134H50.1674L50.3778 178.178L50.6877 178.245L50.9424 178.317L51.2358 178.394H51.3078L51.4241 178.438C51.5791 178.494 51.7341 178.549 51.8835 178.616L52.0607 178.693C52.2506 178.777 52.4354 178.871 52.6143 178.976L52.6863 179.02C52.7427 179.051 52.7963 179.086 52.8468 179.125C52.9188 179.17 52.9963 179.22 53.0627 179.269C53.1292 179.319 53.1735 179.352 53.2288 179.402C53.2951 179.45 53.358 179.501 53.417 179.557H53.4558L53.5112 179.624C53.6036 179.711 53.6905 179.803 53.7714 179.901L53.8267 179.962C53.8428 179.981 53.8576 180.002 53.871 180.023C53.9222 180.09 53.9684 180.16 54.0094 180.233C54.0094 180.267 54.0537 180.294 54.0703 180.322C54.0684 180.337 54.0684 180.352 54.0703 180.366C54.1035 180.427 54.1256 180.494 54.1589 180.555L54.2087 180.66C54.208 180.673 54.208 180.686 54.2087 180.699C54.2087 180.76 54.2419 180.821 54.2585 180.881C54.2729 180.921 54.284 180.962 54.2917 181.003C54.2938 181.012 54.2938 181.022 54.2917 181.031C54.2917 181.098 54.2917 181.158 54.2917 181.225C54.2944 181.266 54.2944 181.306 54.2917 181.347V181.402V184.815C54.2917 184.754 54.2917 184.693 54.2917 184.632C54.2917 184.571 54.2917 184.51 54.2917 184.449C54.2803 184.395 54.2655 184.341 54.2475 184.288C54.236 184.228 54.2193 184.169 54.1977 184.111C54.1977 184.061 54.1589 184.012 54.1368 183.962L54.0537 183.779L53.9707 183.646C53.9278 183.572 53.8797 183.502 53.8267 183.435L53.7326 183.313C53.6551 183.219 53.5665 183.125 53.4724 183.031L53.3783 182.942L53.1845 182.782L53.024 182.654L52.8026 182.505C52.725 182.455 52.6586 182.405 52.5756 182.361C52.3961 182.255 52.2114 182.159 52.022 182.073L51.8448 181.995L51.3797 181.818L51.1971 181.757L50.8926 181.674C50.8151 181.674 50.7321 181.629 50.6546 181.607L50.328 181.541L50.0899 181.485C49.8629 181.452 49.6359 181.419 49.4034 181.397H49.2041H48.7834H48.5343H47.9308H47.6097L47.3385 181.424C47.2365 181.43 47.1348 181.441 47.034 181.458L46.7738 181.491L46.4416 181.552L46.2036 181.596C46.0762 181.629 45.9434 181.657 45.8161 181.696L45.6223 181.746C45.4009 181.812 45.1794 181.884 44.9746 181.962L44.8915 182.001C44.6092 182.111 44.3353 182.243 44.0722 182.394C42.8819 183.081 42.2841 183.984 42.2896 184.881V181.469C42.356 180.46 42.9484 179.557 44.1386 178.898Z" fill="url(#paint28_linear)"/>
<path d="M56.4614 182.394L56.4725 185.806L56.6386 183.734L56.633 180.322L56.4614 182.394Z" fill="#47557D"/>
<path d="M56.4614 182.394L56.4725 185.806L60.2702 185.906L60.2647 182.494L56.4614 182.394Z" fill="#6377AE"/>
<path d="M32.7119 182.471L32.723 185.878L36.5262 185.978L36.5152 182.566L32.7119 182.471Z" fill="url(#paint29_linear)"/>
<path d="M60.2646 182.494L60.2702 185.906L63.8299 185.995L63.8188 182.577L60.2646 182.494Z" fill="url(#paint30_linear)"/>
<path d="M63.8188 182.577L63.8299 185.995L64.0015 183.917L63.9904 180.505L63.8188 182.577Z" fill="url(#paint31_linear)"/>
<path d="M36.5151 182.566L36.5262 185.978L40.0804 186.067L40.0748 182.654L36.5151 182.566Z" fill="#6377AE"/>
<path d="M40.0747 182.654L40.0802 186.067L40.2463 183.995L40.2353 180.582L40.0747 182.654Z" fill="#47557D"/>
<path d="M41.3589 183.818L41.37 187.23L43.9885 188.643L43.9774 185.23L41.3589 183.818Z" fill="#6D82BF"/>
<path d="M52.4204 185.391L52.426 188.803L54.9725 187.33L54.9615 183.923L52.4204 185.391Z" fill="#4B5B85"/>
<path d="M36.6257 182.887C36.7054 183.09 36.7979 183.288 36.9025 183.48L36.9855 183.629L37.0962 183.806C37.1405 183.867 37.1737 183.928 37.2236 183.995L37.3509 184.172C37.3896 184.228 37.4394 184.277 37.4837 184.338L37.683 184.571L37.8214 184.721C37.8989 184.804 37.9765 184.881 38.0595 184.959L38.2035 185.092C38.3528 185.233 38.5099 185.366 38.674 185.491V188.909C38.5024 188.776 38.3529 188.643 38.1979 188.504L38.1536 188.466L38.054 188.366C37.9765 188.288 37.8989 188.216 37.8214 188.133L37.683 187.984C37.6092 187.906 37.5428 187.828 37.4837 187.751C37.4837 187.718 37.4339 187.69 37.4118 187.662C37.3913 187.633 37.3691 187.605 37.3453 187.579L37.2236 187.407L37.0962 187.213L36.9855 187.042L36.9301 186.948V186.892C36.8255 186.701 36.7331 186.503 36.6533 186.299V186.261C36.6146 186.166 36.5869 186.072 36.5537 185.978V182.566C36.5721 182.674 36.5961 182.781 36.6257 182.887V182.887Z" fill="url(#paint32_linear)"/>
<path d="M38.6738 185.491L38.6849 188.909L41.3699 187.23L41.3588 183.818L38.6738 185.491Z" fill="#4A5A83"/>
<path d="M60.2594 182.494V185.906C59.8295 187.18 58.9931 188.278 57.8789 189.031V185.618C58.9931 184.866 59.8295 183.768 60.2594 182.494V182.494Z" fill="url(#paint33_linear)"/>
<path d="M54.9614 183.923L54.9725 187.33L57.89 189.03L57.8844 185.618L54.9614 183.923Z" fill="#6D81BF"/>
<path d="M45.9429 186.499L45.9484 189.911L49.5302 189.817L49.5192 186.405L45.9429 186.499Z" fill="#6275AB"/>
<path d="M41.2041 186.964L41.2152 190.371L43.9887 188.643L43.9777 185.23L41.2041 186.964Z" fill="#4A5A83"/>
<path d="M52.4204 185.391L52.426 188.804L55.2881 190.465L55.277 187.053L52.4204 185.391Z" fill="#6D81BF"/>
<path d="M45.9429 186.499L45.9484 189.911L46.0702 191.607L46.0591 188.2L45.9429 186.499Z" fill="#536491"/>
<path d="M41.2041 186.964C41.6027 187.136 42.018 187.286 42.4442 187.424C42.6989 187.507 42.9646 187.585 43.2248 187.651L43.5791 187.756C43.9721 187.851 44.3708 187.939 44.7749 188.011C45.179 188.083 45.6274 188.15 46.0537 188.2V191.612C45.6163 191.562 45.1901 191.496 44.7694 191.424C44.3652 191.357 43.9722 191.269 43.5846 191.174L43.2414 191.086C43.0033 191.019 42.7653 190.958 42.5383 190.886L42.4497 190.853C42.0234 190.715 41.6138 190.56 41.2096 190.388L41.2041 186.964Z" fill="url(#paint34_linear)"/>
<path d="M50.9201 188.155L51.1637 188.127C51.6122 188.067 52.055 187.989 52.4868 187.9C52.6473 187.867 52.7913 187.823 52.9463 187.784C53.2287 187.718 53.4999 187.646 53.7988 187.562C54.0978 187.479 54.3913 187.369 54.6847 187.263C54.8784 187.191 55.0888 187.13 55.277 187.053V190.465L55.1275 190.532L54.7068 190.67C54.4134 190.776 54.1144 190.881 53.8044 190.975L53.6715 191.019C53.4335 191.091 53.1899 191.141 52.9463 191.197L52.4923 191.307H52.4094C52.0218 191.39 51.6232 191.457 51.2246 191.518H51.1692H50.9257C50.6378 191.551 50.3444 191.59 50.0565 191.612C49.9237 191.612 49.7852 191.612 49.6523 191.645V188.233C50.0731 188.255 50.4994 188.211 50.9201 188.155Z" fill="url(#paint35_linear)"/>
<path d="M49.519 186.405L49.5301 189.817L49.6574 191.695L49.6519 188.283L49.519 186.405Z" fill="#536491"/>
<path d="M36.333 186.953L36.3385 190.366L38.9682 191.773L38.9571 188.36L36.333 186.953Z" fill="url(#paint36_linear)"/>
<path d="M38.9565 188.36L38.9676 191.773L41.2153 190.371L41.2042 186.964L38.9565 188.36Z" fill="url(#paint37_linear)"/>
<path d="M55.2769 187.053L55.2879 190.465L57.6241 191.823L57.6131 188.41L55.2769 187.053Z" fill="url(#paint38_linear)"/>
<path d="M57.6128 188.41L57.6239 191.823L60.1705 190.355L60.1539 186.942L57.6128 188.41Z" fill="url(#paint39_linear)"/>
<path d="M38.6742 185.491L36.3325 186.953L38.951 188.36L41.2042 186.964C42.7523 187.609 44.3859 188.025 46.0538 188.2L45.9375 186.499L49.5193 186.41L45.9375 186.499L46.0538 188.2L46.2365 190.765L49.8128 190.676L49.6467 188.283C51.577 188.177 53.4779 187.761 55.2769 187.053L57.6131 188.416L60.1542 186.942L57.8788 185.618C58.9929 184.866 59.8293 183.768 60.2593 182.494L63.819 182.582L63.9906 180.505L60.3257 180.416C59.9863 179.114 59.203 177.972 58.1113 177.186L60.4475 175.729L57.8234 174.317L55.5758 175.718C53.9333 175.033 52.1947 174.605 50.4217 174.45L50.2501 171.962L46.6683 172.051L46.8344 174.422C44.8386 174.553 42.88 175.025 41.0437 175.818L38.5026 174.344L35.9616 175.812L38.558 177.325C37.515 178.109 36.7693 179.224 36.4432 180.488L32.8891 180.394L32.7285 182.471L36.5318 182.566L40.086 182.66L36.5318 182.566C36.9243 183.74 37.6733 184.762 38.6742 185.491ZM44.1051 183.829C41.7578 182.466 41.78 180.261 44.1383 178.893C45.4577 178.223 46.9162 177.874 48.3956 177.874C49.8749 177.874 51.3334 178.223 52.6528 178.893C55.0001 180.261 54.989 182.466 52.6528 183.829C50.3166 185.191 46.4524 185.175 44.1051 183.806V183.829Z" fill="white"/>
<path d="M46.2368 190.765L46.2479 194.172L49.8242 194.083L49.8186 190.676L46.2368 190.765Z" fill="url(#paint40_linear)"/>
<path d="M46.0586 188.2L46.0697 191.607L46.2468 194.172L46.2357 190.765L46.0586 188.2Z" fill="url(#paint41_linear)"/>
<g opacity="0.8">
<path opacity="0.8" d="M137.166 22.8353L137.1 46.1026L149.395 53.2047L149.462 29.9373L137.166 22.8353Z" fill="#7B9CD4"/>
<g opacity="0.8">
<path opacity="0.8" d="M114.059 17.107L114.037 25.4888L133.49 36.7236L133.512 28.3418L114.059 17.107Z" fill="#7B9CD4"/>
<path opacity="0.8" d="M151.848 56.7945L112.271 33.926L112.354 5.77802L151.931 28.6465L151.848 56.7945ZM137.1 46.1081L149.39 53.2102L149.462 29.9428L137.166 22.8407L137.1 46.1081V46.1081ZM114.037 25.4888L133.479 36.7236V28.3418L114.059 17.1347V25.5165L114.037 25.4888ZM114.037 14.9132L133.496 26.1536V20.7356L114.103 9.50077V14.9132H114.037ZM113.987 32.7626L133.479 44.0029V38.7678L114.025 27.5274V32.7626H113.987Z" fill="white"/>
<path opacity="0.8" d="M114.031 27.5275L114.014 32.7626L133.468 44.003L133.49 38.7678L114.031 27.5275Z" fill="#7B9CD4"/>
<path opacity="0.8" d="M114.081 9.4953L114.064 14.9077L133.523 26.1536L133.534 20.7301L114.081 9.4953Z" fill="#7B9CD4"/>
</g>
<path opacity="0.8" d="M112.359 2.98041L112.354 5.77803L151.931 28.641L151.936 25.8489L112.359 2.98041Z" fill="#7B9CD4"/>
</g>
<path d="M149.915 25.8434C149.506 25.6052 149.168 25.7935 149.168 26.2644C149.181 26.5213 149.256 26.7713 149.385 26.9938C149.514 27.2163 149.694 27.4049 149.91 27.5441C150.314 27.7823 150.646 27.594 150.652 27.1176C150.639 26.862 150.565 26.6131 150.437 26.3915C150.309 26.1699 150.13 25.982 149.915 25.8434Z" fill="#1A73E8"/>
<path d="M148.045 24.7631C147.64 24.5193 147.303 24.7022 147.303 25.1841C147.318 25.4408 147.392 25.6904 147.52 25.9134C147.648 26.1364 147.825 26.3267 148.039 26.4694C148.449 26.702 148.781 26.5082 148.786 26.0428C148.77 25.7867 148.694 25.5378 148.566 25.3158C148.437 25.0938 148.259 24.9046 148.045 24.7631Z" fill="#4B68BE"/>
<path d="M146.167 23.6773C145.763 23.4391 145.431 23.6274 145.431 24.1039C145.442 24.3599 145.515 24.6095 145.643 24.8313C145.771 25.0532 145.951 25.2407 146.167 25.378C146.583 25.6218 146.909 25.4279 146.909 24.957C146.897 24.6998 146.823 24.4493 146.694 24.2266C146.565 24.0039 146.385 23.8155 146.167 23.6773V23.6773Z" fill="#30D8F0"/>
<path d="M113.704 6.39856L113.699 6.85283L116.124 8.24887V7.80014L113.704 6.39856Z" fill="#4B68BE"/>
<path d="M113.709 5.5509V5.99963L116.123 7.39013L116.129 6.94694L113.709 5.5509Z" fill="#4B68BE"/>
<path d="M113.709 4.69781V5.14654L116.129 6.54258V6.0994L113.709 4.69781Z" fill="#4B68BE"/>
<path d="M151.897 29.9263L112.292 7.0467V2.98602L151.892 25.8656L151.897 29.9263ZM148.022 26.4694C148.432 26.7021 148.764 26.5082 148.77 26.0429C148.753 25.7867 148.677 25.5379 148.549 25.3159C148.42 25.0938 148.242 24.9046 148.028 24.7632C147.624 24.5194 147.286 24.7022 147.286 25.1842C147.301 25.4408 147.375 25.6904 147.503 25.9134C147.631 26.1364 147.809 26.3267 148.022 26.4694ZM149.893 27.5441C150.298 27.7823 150.63 27.594 150.635 27.1176C150.622 26.862 150.549 26.6131 150.421 26.3915C150.293 26.1699 150.114 25.982 149.899 25.8434C149.489 25.6052 149.152 25.7935 149.152 26.2644C149.165 26.5213 149.239 26.7713 149.368 26.9938C149.497 27.2163 149.677 27.4049 149.893 27.5441V27.5441ZM146.151 25.3781C146.566 25.6218 146.893 25.4279 146.893 24.957C146.881 24.6999 146.807 24.4494 146.678 24.2266C146.549 24.0039 146.368 23.8155 146.151 23.6773C145.747 23.4391 145.415 23.6275 145.415 24.1039C145.426 24.3599 145.498 24.6095 145.627 24.8314C145.755 25.0532 145.935 25.2408 146.151 25.3781V25.3781ZM113.693 5.14654L116.107 6.54259V6.09941L113.693 4.70336V5.14654ZM113.693 6.85282L116.112 8.24888V7.80015L113.699 6.4041V6.85282H113.693ZM113.693 5.9997L116.101 7.39017V6.94699L113.688 5.55097V5.9997H113.693Z" fill="#8CA8F8"/>
<g opacity="0.8">
<path opacity="0.8" d="M125.114 30.3583L125.059 49.1273L134.98 54.8555L135.03 36.0921L125.114 30.3583Z" fill="#7B9CD4"/>
<g opacity="0.8">
<path opacity="0.8" d="M106.475 25.7381L106.458 32.5022L122.147 41.5654L122.169 34.8013L106.475 25.7381Z" fill="#7B9CD4"/>
<path opacity="0.8" d="M136.962 57.7528L105.035 39.294L105.096 16.5807L137.022 35.0284L136.962 57.7528ZM125.059 49.1273L134.98 54.8555L135.03 36.092L125.114 30.3638L125.059 49.1273ZM106.458 32.5077L122.142 41.5709V34.8068L106.447 25.7436V32.5077H106.458ZM106.458 23.9764L122.153 33.0396V28.6686L106.463 19.611V23.9764H106.458ZM106.425 38.38L122.108 47.4432V43.2273L106.414 34.1586V38.38H106.425Z" fill="white"/>
<path opacity="0.8" d="M106.447 34.1476V38.3689L122.13 47.4321L122.147 43.2163L106.447 34.1476Z" fill="#7B9CD4"/>
<path opacity="0.8" d="M106.497 19.5999L106.48 23.9653L122.175 33.034L122.18 28.6631L106.497 19.5999Z" fill="#7B9CD4"/>
</g>
<path opacity="0.8" d="M105.107 14.3481L105.096 16.5973L137.023 35.0505L137.028 32.7958L105.107 14.3481Z" fill="#7B9CD4"/>
</g>
<path d="M135.395 32.7903C135.068 32.5909 134.797 32.746 134.797 33.1283C134.809 33.3349 134.869 33.5359 134.973 33.7149C135.077 33.8939 135.221 34.0459 135.395 34.1587C135.721 34.347 135.993 34.1919 135.993 33.8207C135.983 33.6137 135.923 33.412 135.819 33.2327C135.715 33.0534 135.569 32.9017 135.395 32.7903V32.7903Z" fill="#1A73E8"/>
<path d="M133.889 31.9151C133.562 31.7212 133.291 31.8708 133.286 32.253C133.297 32.4606 133.356 32.6627 133.46 32.8428C133.564 33.0228 133.709 33.1757 133.884 33.289C134.216 33.4829 134.481 33.3278 134.481 32.951C134.473 32.7435 134.415 32.5411 134.311 32.3608C134.208 32.1805 134.064 32.0277 133.889 31.9151V31.9151Z" fill="#4B68BE"/>
<path d="M132.372 31.0453C132.04 30.8514 131.774 31.001 131.774 31.3833C131.783 31.5914 131.842 31.7944 131.946 31.9747C132.05 32.1551 132.196 32.3077 132.372 32.4192C132.699 32.6131 132.965 32.458 132.965 32.0702C132.956 31.8643 132.897 31.6635 132.794 31.4851C132.691 31.3067 132.546 31.1558 132.372 31.0453V31.0453Z" fill="#30D8F0"/>
<path d="M106.186 17.1015V17.4671L108.14 18.5917V18.2316L106.186 17.1015Z" fill="#4B68BE"/>
<path d="M106.191 16.4201V16.7802L108.14 17.9048V17.5502L106.191 16.4201Z" fill="#4B68BE"/>
<path d="M106.191 15.7332V16.0933L108.146 17.2179V16.8578L106.191 15.7332Z" fill="#4B68BE"/>
<path d="M137 36.081L105.052 17.6222V14.3481L136.995 32.8069L137 36.081ZM133.884 33.3111C134.216 33.5049 134.481 33.3498 134.481 32.9731C134.473 32.7656 134.415 32.5632 134.311 32.3829C134.208 32.2026 134.064 32.0497 133.889 31.9371C133.562 31.7433 133.291 31.8929 133.286 32.2751C133.297 32.4827 133.356 32.6848 133.46 32.8648C133.564 33.0449 133.709 33.1978 133.884 33.3111ZM135.395 34.1808C135.721 34.3692 135.993 34.214 135.993 33.8429C135.983 33.6358 135.923 33.4342 135.819 33.2549C135.715 33.0756 135.57 32.9238 135.395 32.8125C135.068 32.613 134.797 32.7681 134.797 33.1504C134.809 33.357 134.869 33.558 134.973 33.737C135.077 33.916 135.221 34.0681 135.395 34.1808ZM132.378 32.4413C132.704 32.6352 132.97 32.4801 132.97 32.0923C132.961 31.8863 132.903 31.6856 132.799 31.5072C132.696 31.3288 132.552 31.1779 132.378 31.0674C132.046 30.8735 131.78 31.0231 131.78 31.4053C131.789 31.6135 131.847 31.8164 131.952 31.9968C132.056 32.1772 132.202 32.3297 132.378 32.4413ZM106.192 16.1154L108.146 17.2233V16.8633L106.192 15.7553V16.1154ZM106.192 17.4893L108.146 18.5972V18.2427L106.192 17.1347V17.4948V17.4893ZM106.192 16.8023L108.141 17.9103V17.5557L106.192 16.4478V16.8078V16.8023Z" fill="#7A91D5"/>
<defs>
<linearGradient id="paint0_linear" x1="87.9565" y1="160.855" x2="114.95" y2="160.855" gradientUnits="userSpaceOnUse">
<stop stop-color="#AFB6E5"/>
<stop offset="0.14" stop-color="#B6BCE8"/>
<stop offset="0.35" stop-color="#C8CDF1"/>
<stop offset="0.58" stop-color="#E5E9FF"/>
<stop offset="0.86" stop-color="#F5F6FF"/>
<stop offset="1" stop-color="white"/>
</linearGradient>
<linearGradient id="paint1_linear" x1="10356.2" y1="10707.1" x2="16539" y2="10707.1" gradientUnits="userSpaceOnUse">
<stop stop-color="#AFB6E5"/>
<stop offset="0.14" stop-color="#B6BCE8"/>
<stop offset="0.35" stop-color="#C8CDF1"/>
<stop offset="0.58" stop-color="#E5E9FF"/>
<stop offset="0.86" stop-color="#F5F6FF"/>
<stop offset="1" stop-color="white"/>
</linearGradient>
<linearGradient id="paint2_linear" x1="15119.5" y1="12760.9" x2="28316.3" y2="12760.9" gradientUnits="userSpaceOnUse">
<stop stop-color="#AFB6E5"/>
<stop offset="0.14" stop-color="#B6BCE8"/>
<stop offset="0.35" stop-color="#C8CDF1"/>
<stop offset="0.58" stop-color="#E5E9FF"/>
<stop offset="0.86" stop-color="#F5F6FF"/>
<stop offset="1" stop-color="white"/>
</linearGradient>
<linearGradient id="paint3_linear" x1="6224.23" y1="3199.82" x2="7087.12" y2="3199.82" gradientUnits="userSpaceOnUse">
<stop stop-color="#AFB6E5"/>
<stop offset="0.14" stop-color="#B6BCE8"/>
<stop offset="0.35" stop-color="#C8CDF1"/>
<stop offset="0.58" stop-color="#E5E9FF"/>
<stop offset="0.86" stop-color="#F5F6FF"/>
<stop offset="1" stop-color="white"/>
</linearGradient>
<linearGradient id="paint4_linear" x1="8041.73" y1="13288.5" x2="10584.3" y2="13288.5" gradientUnits="userSpaceOnUse">
<stop stop-color="#AFB6E5"/>
<stop offset="0.14" stop-color="#B6BCE8"/>
<stop offset="0.35" stop-color="#C8CDF1"/>
<stop offset="0.58" stop-color="#E5E9FF"/>
<stop offset="0.86" stop-color="#F5F6FF"/>
<stop offset="1" stop-color="white"/>
</linearGradient>
<linearGradient id="paint5_linear" x1="49.6738" y1="126.663" x2="87.1917" y2="126.663" gradientUnits="userSpaceOnUse">
<stop offset="0.58" stop-color="#E5E9FF"/>
<stop offset="0.86" stop-color="#F5F6FF"/>
<stop offset="1" stop-color="white"/>
</linearGradient>
<linearGradient id="paint6_linear" x1="11.4587" y1="125.056" x2="137.897" y2="125.056" gradientUnits="userSpaceOnUse">
<stop stop-color="#AFB6E5"/>
<stop offset="0.07" stop-color="#B6BCE8"/>
<stop offset="0.16" stop-color="#C8CDF1"/>
<stop offset="0.27" stop-color="#E5E9FF"/>
<stop offset="0.75" stop-color="#F5F6FF"/>
<stop offset="1" stop-color="white"/>
</linearGradient>
<linearGradient id="paint7_linear" x1="17.6816" y1="77.9179" x2="132.234" y2="77.9179" gradientUnits="userSpaceOnUse">
<stop offset="0.01" stop-color="#0A86E0"/>
<stop offset="0.07" stop-color="#1076D8"/>
<stop offset="0.2" stop-color="#214DC4"/>
<stop offset="0.25" stop-color="#273FBD"/>
<stop offset="0.58" stop-color="#2A39BA"/>
<stop offset="1" stop-color="#0A86E0"/>
</linearGradient>
<linearGradient id="paint8_linear" x1="18882.4" y1="4598.24" x2="45852.6" y2="4598.24" gradientUnits="userSpaceOnUse">
<stop stop-color="#AFB6E5"/>
<stop offset="0.14" stop-color="#B6BCE8"/>
<stop offset="0.35" stop-color="#C8CDF1"/>
<stop offset="0.58" stop-color="#E5E9FF"/>
<stop offset="0.86" stop-color="#F5F6FF"/>
<stop offset="1" stop-color="white"/>
</linearGradient>
<linearGradient id="paint9_linear" x1="149378" y1="108282" x2="178339" y2="108282" gradientUnits="userSpaceOnUse">
<stop offset="0.58" stop-color="#E5E9FF"/>
<stop offset="0.86" stop-color="#F5F6FF"/>
<stop offset="1" stop-color="white"/>
</linearGradient>
<linearGradient id="paint10_linear" x1="1905.32" y1="4050.23" x2="1953.25" y2="4050.23" gradientUnits="userSpaceOnUse">
<stop stop-color="#AFB6E5"/>
<stop offset="0.14" stop-color="#B6BCE8"/>
<stop offset="0.35" stop-color="#C8CDF1"/>
<stop offset="0.58" stop-color="#E5E9FF"/>
<stop offset="0.86" stop-color="#F5F6FF"/>
<stop offset="1" stop-color="white"/>
</linearGradient>
<linearGradient id="paint11_linear" x1="1555.24" y1="4099.09" x2="1614.66" y2="4099.09" gradientUnits="userSpaceOnUse">
<stop stop-color="#AFB6E5"/>
<stop offset="0.14" stop-color="#B6BCE8"/>
<stop offset="0.35" stop-color="#C8CDF1"/>
<stop offset="0.58" stop-color="#E5E9FF"/>
<stop offset="0.86" stop-color="#F5F6FF"/>
<stop offset="1" stop-color="white"/>
</linearGradient>
<linearGradient id="paint12_linear" x1="35086.2" y1="14568.6" x2="36356.3" y2="14568.6" gradientUnits="userSpaceOnUse">
<stop stop-color="#AFB6E5"/>
<stop offset="0.14" stop-color="#B6BCE8"/>
<stop offset="0.35" stop-color="#C8CDF1"/>
<stop offset="0.58" stop-color="#E5E9FF"/>
<stop offset="0.86" stop-color="#F5F6FF"/>
<stop offset="1" stop-color="white"/>
</linearGradient>
<linearGradient id="paint13_linear" x1="2122.37" y1="3174.2" x2="2249.1" y2="3174.2" gradientUnits="userSpaceOnUse">
<stop stop-color="#AFB6E5"/>
<stop offset="0.14" stop-color="#B6BCE8"/>
<stop offset="0.35" stop-color="#C8CDF1"/>
<stop offset="0.58" stop-color="#E5E9FF"/>
<stop offset="0.86" stop-color="#F5F6FF"/>
<stop offset="1" stop-color="white"/>
</linearGradient>
<linearGradient id="paint14_linear" x1="2910.75" y1="3170.61" x2="3021.91" y2="3170.61" gradientUnits="userSpaceOnUse">
<stop stop-color="#AFB6E5"/>
<stop offset="0.14" stop-color="#B6BCE8"/>
<stop offset="0.35" stop-color="#C8CDF1"/>
<stop offset="0.58" stop-color="#E5E9FF"/>
<stop offset="0.86" stop-color="#F5F6FF"/>
<stop offset="1" stop-color="white"/>
</linearGradient>
<linearGradient id="paint15_linear" x1="282.968" y1="4799.66" x2="283.255" y2="4799.66" gradientUnits="userSpaceOnUse">
<stop stop-color="#AFB6E5"/>
<stop offset="0.14" stop-color="#B6BCE8"/>
<stop offset="0.35" stop-color="#C8CDF1"/>
<stop offset="0.58" stop-color="#E5E9FF"/>
<stop offset="0.86" stop-color="#F5F6FF"/>
<stop offset="1" stop-color="white"/>
</linearGradient>
<linearGradient id="paint16_linear" x1="6231.9" y1="13653.8" x2="6272.8" y2="13653.8" gradientUnits="userSpaceOnUse">
<stop stop-color="#AFB6E5"/>
<stop offset="0.14" stop-color="#B6BCE8"/>
<stop offset="0.35" stop-color="#C8CDF1"/>
<stop offset="0.58" stop-color="#E5E9FF"/>
<stop offset="0.86" stop-color="#F5F6FF"/>
<stop offset="1" stop-color="white"/>
</linearGradient>
<linearGradient id="paint17_linear" x1="7354.63" y1="14071.9" x2="7404.33" y2="14071.9" gradientUnits="userSpaceOnUse">
<stop stop-color="#AFB6E5"/>
<stop offset="0.14" stop-color="#B6BCE8"/>
<stop offset="0.35" stop-color="#C8CDF1"/>
<stop offset="0.58" stop-color="#E5E9FF"/>
<stop offset="0.86" stop-color="#F5F6FF"/>
<stop offset="1" stop-color="white"/>
</linearGradient>
<linearGradient id="paint18_linear" x1="14110.8" y1="10205.7" x2="14316.9" y2="10205.7" gradientUnits="userSpaceOnUse">
<stop stop-color="#AFB6E5"/>
<stop offset="0.14" stop-color="#B6BCE8"/>
<stop offset="0.35" stop-color="#C8CDF1"/>
<stop offset="0.58" stop-color="#E5E9FF"/>
<stop offset="0.86" stop-color="#F5F6FF"/>
<stop offset="1" stop-color="white"/>
</linearGradient>
<linearGradient id="paint19_linear" x1="16800.9" y1="10193.2" x2="17077.9" y2="10193.2" gradientUnits="userSpaceOnUse">
<stop stop-color="#AFB6E5"/>
<stop offset="0.14" stop-color="#B6BCE8"/>
<stop offset="0.35" stop-color="#C8CDF1"/>
<stop offset="0.58" stop-color="#E5E9FF"/>
<stop offset="0.86" stop-color="#F5F6FF"/>
<stop offset="1" stop-color="white"/>
</linearGradient>
<linearGradient id="paint20_linear" x1="1579.3" y1="4510.03" x2="1639.87" y2="4510.03" gradientUnits="userSpaceOnUse">
<stop stop-color="#AFB6E5"/>
<stop offset="0.14" stop-color="#B6BCE8"/>
<stop offset="0.35" stop-color="#C8CDF1"/>
<stop offset="0.58" stop-color="#E5E9FF"/>
<stop offset="0.86" stop-color="#F5F6FF"/>
<stop offset="1" stop-color="white"/>
</linearGradient>
<linearGradient id="paint21_linear" x1="1421.11" y1="4501.29" x2="1465.56" y2="4501.29" gradientUnits="userSpaceOnUse">
<stop stop-color="#AFB6E5"/>
<stop offset="0.14" stop-color="#B6BCE8"/>
<stop offset="0.35" stop-color="#C8CDF1"/>
<stop offset="0.58" stop-color="#E5E9FF"/>
<stop offset="0.86" stop-color="#F5F6FF"/>
<stop offset="1" stop-color="white"/>
</linearGradient>
<linearGradient id="paint22_linear" x1="1845.27" y1="4466.18" x2="1893.36" y2="4466.18" gradientUnits="userSpaceOnUse">
<stop stop-color="#AFB6E5"/>
<stop offset="0.14" stop-color="#B6BCE8"/>
<stop offset="0.35" stop-color="#C8CDF1"/>
<stop offset="0.58" stop-color="#E5E9FF"/>
<stop offset="0.86" stop-color="#F5F6FF"/>
<stop offset="1" stop-color="white"/>
</linearGradient>
<linearGradient id="paint23_linear" x1="2056.39" y1="4562.34" x2="2113.43" y2="4562.34" gradientUnits="userSpaceOnUse">
<stop stop-color="#AFB6E5"/>
<stop offset="0.14" stop-color="#B6BCE8"/>
<stop offset="0.35" stop-color="#C8CDF1"/>
<stop offset="0.58" stop-color="#E5E9FF"/>
<stop offset="0.86" stop-color="#F5F6FF"/>
<stop offset="1" stop-color="white"/>
</linearGradient>
<linearGradient id="paint24_linear" x1="2457.88" y1="3436.24" x2="2570.45" y2="3436.24" gradientUnits="userSpaceOnUse">
<stop stop-color="#AFB6E5"/>
<stop offset="0.14" stop-color="#B6BCE8"/>
<stop offset="0.35" stop-color="#C8CDF1"/>
<stop offset="0.58" stop-color="#E5E9FF"/>
<stop offset="0.86" stop-color="#F5F6FF"/>
<stop offset="1" stop-color="white"/>
</linearGradient>
<linearGradient id="paint25_linear" x1="222.406" y1="5635.2" x2="222.726" y2="5635.2" gradientUnits="userSpaceOnUse">
<stop stop-color="#AFB6E5"/>
<stop offset="0.14" stop-color="#B6BCE8"/>
<stop offset="0.35" stop-color="#C8CDF1"/>
<stop offset="0.58" stop-color="#E5E9FF"/>
<stop offset="0.86" stop-color="#F5F6FF"/>
<stop offset="1" stop-color="white"/>
</linearGradient>
<linearGradient id="paint26_linear" x1="592.561" y1="1739.99" x2="602.466" y2="1739.99" gradientUnits="userSpaceOnUse">
<stop stop-color="#AFB6E5"/>
<stop offset="0.14" stop-color="#B6BCE8"/>
<stop offset="0.35" stop-color="#C8CDF1"/>
<stop offset="0.58" stop-color="#E5E9FF"/>
<stop offset="0.86" stop-color="#F5F6FF"/>
<stop offset="1" stop-color="white"/>
</linearGradient>
<linearGradient id="paint27_linear" x1="526.725" y1="1758.87" x2="539.007" y2="1758.87" gradientUnits="userSpaceOnUse">
<stop stop-color="#AFB6E5"/>
<stop offset="0.14" stop-color="#B6BCE8"/>
<stop offset="0.35" stop-color="#C8CDF1"/>
<stop offset="0.58" stop-color="#E5E9FF"/>
<stop offset="0.86" stop-color="#F5F6FF"/>
<stop offset="1" stop-color="white"/>
</linearGradient>
<linearGradient id="paint28_linear" x1="14872.4" y1="6344.88" x2="15133.9" y2="6344.88" gradientUnits="userSpaceOnUse">
<stop stop-color="#AFB6E5"/>
<stop offset="0.14" stop-color="#B6BCE8"/>
<stop offset="0.35" stop-color="#C8CDF1"/>
<stop offset="0.58" stop-color="#E5E9FF"/>
<stop offset="0.86" stop-color="#F5F6FF"/>
<stop offset="1" stop-color="white"/>
</linearGradient>
<linearGradient id="paint29_linear" x1="728.37" y1="1348.6" x2="754.651" y2="1348.6" gradientUnits="userSpaceOnUse">
<stop stop-color="#AFB6E5"/>
<stop offset="0.14" stop-color="#B6BCE8"/>
<stop offset="0.35" stop-color="#C8CDF1"/>
<stop offset="0.58" stop-color="#E5E9FF"/>
<stop offset="0.86" stop-color="#F5F6FF"/>
<stop offset="1" stop-color="white"/>
</linearGradient>
<linearGradient id="paint30_linear" x1="887.898" y1="1346.91" x2="910.893" y2="1346.91" gradientUnits="userSpaceOnUse">
<stop stop-color="#AFB6E5"/>
<stop offset="0.14" stop-color="#B6BCE8"/>
<stop offset="0.35" stop-color="#C8CDF1"/>
<stop offset="0.58" stop-color="#E5E9FF"/>
<stop offset="0.86" stop-color="#F5F6FF"/>
<stop offset="1" stop-color="white"/>
</linearGradient>
<linearGradient id="paint31_linear" x1="107.397" y1="1996.48" x2="107.458" y2="1996.48" gradientUnits="userSpaceOnUse">
<stop stop-color="#AFB6E5"/>
<stop offset="0.14" stop-color="#B6BCE8"/>
<stop offset="0.35" stop-color="#C8CDF1"/>
<stop offset="0.58" stop-color="#E5E9FF"/>
<stop offset="0.86" stop-color="#F5F6FF"/>
<stop offset="1" stop-color="white"/>
</linearGradient>
<linearGradient id="paint32_linear" x1="2633.59" y1="5950.63" x2="2641.91" y2="5950.63" gradientUnits="userSpaceOnUse">
<stop stop-color="#AFB6E5"/>
<stop offset="0.14" stop-color="#B6BCE8"/>
<stop offset="0.35" stop-color="#C8CDF1"/>
<stop offset="0.58" stop-color="#E5E9FF"/>
<stop offset="0.86" stop-color="#F5F6FF"/>
<stop offset="1" stop-color="white"/>
</linearGradient>
<linearGradient id="paint33_linear" x1="3065.54" y1="6127.2" x2="3075.82" y2="6127.2" gradientUnits="userSpaceOnUse">
<stop stop-color="#AFB6E5"/>
<stop offset="0.14" stop-color="#B6BCE8"/>
<stop offset="0.35" stop-color="#C8CDF1"/>
<stop offset="0.58" stop-color="#E5E9FF"/>
<stop offset="0.86" stop-color="#F5F6FF"/>
<stop offset="1" stop-color="white"/>
</linearGradient>
<linearGradient id="paint34_linear" x1="6022.3" y1="4443.3" x2="6064.93" y2="4443.3" gradientUnits="userSpaceOnUse">
<stop stop-color="#AFB6E5"/>
<stop offset="0.14" stop-color="#B6BCE8"/>
<stop offset="0.35" stop-color="#C8CDF1"/>
<stop offset="0.58" stop-color="#E5E9FF"/>
<stop offset="0.86" stop-color="#F5F6FF"/>
<stop offset="1" stop-color="white"/>
</linearGradient>
<linearGradient id="paint35_linear" x1="7072.43" y1="4393.41" x2="7129.68" y2="4393.41" gradientUnits="userSpaceOnUse">
<stop stop-color="#AFB6E5"/>
<stop offset="0.14" stop-color="#B6BCE8"/>
<stop offset="0.35" stop-color="#C8CDF1"/>
<stop offset="0.58" stop-color="#E5E9FF"/>
<stop offset="0.86" stop-color="#F5F6FF"/>
<stop offset="1" stop-color="white"/>
</linearGradient>
<linearGradient id="paint36_linear" x1="534.168" y1="1834.41" x2="546.711" y2="1834.41" gradientUnits="userSpaceOnUse">
<stop stop-color="#AFB6E5"/>
<stop offset="0.14" stop-color="#B6BCE8"/>
<stop offset="0.35" stop-color="#C8CDF1"/>
<stop offset="0.58" stop-color="#E5E9FF"/>
<stop offset="0.86" stop-color="#F5F6FF"/>
<stop offset="1" stop-color="white"/>
</linearGradient>
<linearGradient id="paint37_linear" x1="476.378" y1="1830.69" x2="485.594" y2="1830.69" gradientUnits="userSpaceOnUse">
<stop stop-color="#AFB6E5"/>
<stop offset="0.14" stop-color="#B6BCE8"/>
<stop offset="0.35" stop-color="#C8CDF1"/>
<stop offset="0.58" stop-color="#E5E9FF"/>
<stop offset="0.86" stop-color="#F5F6FF"/>
<stop offset="1" stop-color="white"/>
</linearGradient>
<linearGradient id="paint38_linear" x1="579.05" y1="1818.14" x2="589.002" y2="1818.14" gradientUnits="userSpaceOnUse">
<stop stop-color="#AFB6E5"/>
<stop offset="0.14" stop-color="#B6BCE8"/>
<stop offset="0.35" stop-color="#C8CDF1"/>
<stop offset="0.58" stop-color="#E5E9FF"/>
<stop offset="0.86" stop-color="#F5F6FF"/>
<stop offset="1" stop-color="white"/>
</linearGradient>
<linearGradient id="paint39_linear" x1="639.127" y1="1855.37" x2="650.944" y2="1855.37" gradientUnits="userSpaceOnUse">
<stop stop-color="#AFB6E5"/>
<stop offset="0.14" stop-color="#B6BCE8"/>
<stop offset="0.35" stop-color="#C8CDF1"/>
<stop offset="0.58" stop-color="#E5E9FF"/>
<stop offset="0.86" stop-color="#F5F6FF"/>
<stop offset="1" stop-color="white"/>
</linearGradient>
<linearGradient id="paint40_linear" x1="788.138" y1="1404.89" x2="811.384" y2="1404.89" gradientUnits="userSpaceOnUse">
<stop stop-color="#AFB6E5"/>
<stop offset="0.14" stop-color="#B6BCE8"/>
<stop offset="0.35" stop-color="#C8CDF1"/>
<stop offset="0.58" stop-color="#E5E9FF"/>
<stop offset="0.86" stop-color="#F5F6FF"/>
<stop offset="1" stop-color="white"/>
</linearGradient>
<linearGradient id="paint41_linear" x1="84.9247" y1="2249.18" x2="84.9887" y2="2249.18" gradientUnits="userSpaceOnUse">
<stop stop-color="#AFB6E5"/>
<stop offset="0.14" stop-color="#B6BCE8"/>
<stop offset="0.35" stop-color="#C8CDF1"/>
<stop offset="0.58" stop-color="#E5E9FF"/>
<stop offset="0.86" stop-color="#F5F6FF"/>
<stop offset="1" stop-color="white"/>
</linearGradient>
</defs>
</svg>
