<svg width="34" height="36" viewBox="0 0 34 36" fill="none" xmlns="http://www.w3.org/2000/svg">
<rect x="17.8936" y="23.1689" width="6.30972" height="6.30972" transform="rotate(135 17.8936 23.1689)" fill="#1A73E8"/>
<rect x="16.8369" y="5.13965" width="4.77314" height="4.77314" transform="rotate(135 16.8369 5.13965)" fill="#1A73E8"/>
<rect x="8.92285" y="23.1387" width="6.30972" height="6.30972" transform="rotate(135 8.92285 23.1387)" fill="#1A73E8"/>
<rect x="8.92285" y="5.13965" width="6.30972" height="6.30972" transform="rotate(135 8.92285 5.13965)" fill="#1A73E8"/>
<rect x="16.5381" y="32.2158" width="4.3928" height="4.3928" transform="rotate(135 16.5381 32.2158)" fill="#1A73E8"/>
<rect x="16.8066" y="14.1855" width="4.77236" height="4.77236" transform="rotate(135 16.8066 14.1855)" fill="#1A73E8"/>
<rect x="7.50098" y="32.1387" width="4.29612" height="4.29612" transform="rotate(135 7.50098 32.1387)" fill="#1A73E8"/>
<rect x="8.92285" y="14.1396" width="6.30972" height="6.30972" transform="rotate(135 8.92285 14.1396)" fill="#1A73E8"/>
<rect x="23.5234" y="23.2012" width="1.59124" height="1.59124" transform="rotate(135 23.5234 23.2012)" fill="#1A73E8"/>
<rect x="24.6484" y="5.20215" width="3.1822" height="3.1822" transform="rotate(135 24.6484 5.20215)" fill="#1A73E8"/>
<rect x="32.5479" y="23.2012" width="1.59124" height="1.59124" transform="rotate(135 32.5479 23.2012)" fill="#1A73E8"/>
<rect x="28.0479" y="27.6777" width="1.59124" height="1.59124" transform="rotate(135 28.0479 27.6777)" fill="#1A73E8"/>
<rect x="20.1729" y="27.6777" width="1.59124" height="1.59124" transform="rotate(135 20.1729 27.6777)" fill="#1A73E8"/>
<rect x="33.6484" y="5.20215" width="3.14802" height="3.14802" transform="rotate(135 33.6484 5.20215)" fill="#1A73E8"/>
<rect x="23.5234" y="32.1777" width="1.59124" height="1.59124" transform="rotate(135 23.5234 32.1777)" fill="#1A73E8"/>
<rect x="24.6729" y="14.1777" width="3.21638" height="3.21638" transform="rotate(135 24.6729 14.1777)" fill="#1A73E8"/>
<rect x="32.5479" y="32.1777" width="1.59124" height="1.59124" transform="rotate(135 32.5479 32.1777)" fill="#1A73E8"/>
<rect x="33.6729" y="14.1777" width="3.1822" height="3.1822" transform="rotate(135 33.6729 14.1777)" fill="#1A73E8"/>
<rect x="29.1729" y="9.67773" width="3.1822" height="3.1822" transform="rotate(135 29.1729 9.67773)" fill="#1A73E8"/>
<rect x="29.1729" y="18.6777" width="3.1822" height="3.1822" transform="rotate(135 29.1729 18.6777)" fill="#1A73E8"/>
<rect x="21.2979" y="18.6777" width="3.1822" height="3.1822" transform="rotate(135 21.2979 18.6777)" fill="#1A73E8"/>
<rect x="20.1729" y="9.67773" width="3.1822" height="3.1822" transform="rotate(135 20.1729 9.67773)" fill="#1A73E8"/>
</svg>
