<svg width="123" height="122" viewBox="0 0 123 122" fill="none" xmlns="http://www.w3.org/2000/svg">
<path d="M68.4837 61.7933C67.1837 61.0933 66.1837 60.4933 65.2837 59.8933L60.2837 57.3933C58.9837 56.6933 56.5837 55.5933 54.6837 54.1933C53.1837 53.1933 50.3837 50.9933 49.3837 46.0933C49.3837 46.0933 45.0837 55.2933 54.6837 61.4933C55.8837 62.1933 56.8837 62.7933 57.7837 63.2933L63.3837 66.0933C64.6837 66.7933 66.7837 67.8933 68.4837 68.9933C69.9837 69.9933 72.7837 72.1933 73.7837 77.0933C73.7837 77.2933 77.9837 68.0933 68.4837 61.7933Z" fill="#4E5770"/>
<path d="M77.2837 41.9933H60.2837C62.8837 42.8933 65.6837 43.7933 67.4837 45.3933C69.3837 47.2933 70.0837 50.0933 70.2837 52.2933C70.2837 52.3933 70.3837 52.5933 70.5837 52.5933C70.6837 52.5933 70.8837 52.4933 70.8837 52.2933C70.8837 52.2933 71.2837 48.1933 71.5837 46.6933C72.1837 44.0933 74.4837 43.5933 75.0837 43.4933C75.4837 43.3933 76.8837 43.3933 77.2837 43.3933C77.3837 43.3933 77.5837 43.3933 77.5837 43.3933C77.8837 43.3933 78.1837 43.0933 78.1837 42.6933C77.9837 42.2933 77.6837 41.9933 77.2837 41.9933Z" fill="#4E5770"/>
<path d="M45.8838 81.5933H62.8838C60.2838 80.6933 57.4837 79.7933 55.6837 78.1933C53.7837 76.2933 53.0838 73.4933 52.8838 71.2933C52.8838 71.1933 52.7837 70.9933 52.5837 70.9933C52.4837 70.9933 52.2838 71.0933 52.2838 71.2933C52.2838 71.2933 51.8837 75.3933 51.5837 76.8933C50.9837 79.4933 48.6837 79.9933 48.0837 80.0933C47.6837 80.1933 46.2838 80.1933 45.8838 80.1933C45.7838 80.1933 45.5837 80.1933 45.5837 80.1933C45.2837 80.1933 44.9838 80.4933 44.9838 80.8933C45.1838 81.2933 45.3838 81.5933 45.8838 81.5933Z" fill="#4E5770"/>
<path d="M0.683716 60.9933L61.3837 121.693L122.084 60.9933L61.3837 0.293274L0.683716 60.9933ZM119.284 60.9933L61.3837 118.893L3.48373 60.9933L61.3837 3.09327L119.284 60.9933Z" fill="#4E5770"/>
</svg>
