<?xml version="1.0" encoding="utf-8"?>
<!-- Generator: Adobe Illustrator 23.0.0, SVG Export Plug-In . SVG Version: 6.00 Build 0)  -->
<svg version="1.1" id="Слой_1" xmlns="http://www.w3.org/2000/svg" xmlns:xlink="http://www.w3.org/1999/xlink" x="0px" y="0px"
	 viewBox="0 0 195 186" style="enable-background:new 0 0 195 186;" xml:space="preserve">
<style type="text/css">
	.st0{fill:#74A2F0;}
	.st1{fill-rule:evenodd;clip-rule:evenodd;fill:#E8EFFD;}
	.st2{fill:#D0E0FB;}
	.st3{fill:#1764E7;}
	.st4{fill:#1C3F9C;}
</style>
<path class="st0" d="M104,185.3c-3.7,0.5-7.4,0.7-11.2,0.7c-36,0-67.3-20.4-82.8-50.3L46.4,117c8.7,16.8,26.3,28.2,46.5,28.2
	c2.1,0,4.2-0.1,6.3-0.4L104,185.3z"/>
<path class="st1" d="M137.5,65.9L172,44.7C155.7,17.9,126.3,0,92.7,0C73.6,0,55.8,5.8,41,15.7l0.2,0.3C17.1,32.1,0.9,59,0,89.7
	L40.9,91c0.5-17.3,9.6-32.4,23.1-41.4l0,0c8.3-5.5,18.1-8.7,28.7-8.7C111.5,40.9,128.3,50.9,137.5,65.9z"/>
<path class="st2" d="M47,117.1L10.5,136C3.7,123.1,0,108.4,0,92.9c0-1,0-1.9-0.3-3.2L40.9,91c0.1,0.9,0.3,1.4,0.3,1.9
	C41.1,101.6,43.3,109.8,47,117.1z"/>
<path class="st3" d="M186,96.9c-2.1,45.7-37.2,82.8-82.1,88.1L99,144.5c25.2-3,44.9-23.8,46.1-49.5L186,96.9z"/>
<g>
	<path class="st4" d="M186,94.4c0,1.5-0.1,3-0.1,4.5l-40.8-2c0.1-0.8,0.1-1.7,0.1-2.5c0-10.5-2.8-20.2-7.7-28.5l34.3-21.9
		C180.4,58.8,186,75.8,186,94.4z"/>
</g>
</svg>
