<svg width="195" height="187" viewBox="0 0 195 187" fill="none" xmlns="http://www.w3.org/2000/svg">
<path d="M103.407 180.741C103.735 183.471 101.797 185.967 99.0534 186.148C96.9892 186.283 94.9092 186.347 92.8132 186.347C58.5594 186.347 28.6082 167.938 12.4259 140.466C11.022 138.083 11.9963 135.052 14.4551 133.785L41.9246 119.631C44.3745 118.368 47.3645 119.343 48.8623 121.656C58.1765 136.043 74.4013 145.525 92.865 145.525C93.2867 145.525 93.7064 145.521 94.1244 145.512C96.8937 145.455 99.4003 147.399 99.7308 150.149L103.407 180.741Z" fill="#74A2F0"/>
<path fill-rule="evenodd" clip-rule="evenodd" d="M168.597 47.1353C170.478 45.9853 171.081 43.5241 169.856 41.6904C153.195 16.7361 124.863 0.34668 92.6983 0.34668C74.9818 0.34668 58.4585 5.31704 44.3558 13.9434C43.4964 14.4691 42.9283 15.2737 42.6814 16.1676C42.5968 16.4739 41.56 16.8265 41.3819 16.5633V16.5633C41.3007 16.4434 41.1379 16.4114 41.0176 16.492C18.2911 31.7039 2.70721 56.5378 0.286753 85.0788C0.053568 87.8284 2.23451 90.1368 4.99264 90.2231L35.869 91.19C38.6316 91.2765 40.9149 89.0985 41.2653 86.3567C43.1837 71.346 51.6066 58.3604 63.6527 50.2144C63.8434 50.0854 63.8948 49.826 63.7658 49.6353V49.6353C63.5115 49.2597 64.0965 48.5411 64.5483 48.5802C65.4142 48.655 66.3142 48.4721 67.1171 48.0165C74.6829 43.7229 83.4001 41.2729 92.6983 41.2729C110.096 41.2729 125.513 49.8506 134.961 63.0029C136.252 64.8003 138.707 65.4093 140.595 64.2549L168.597 47.1353Z" fill="#E8EFFD"/>
<path d="M44.9157 112.894C45.9469 115.455 45.012 118.465 42.5596 119.734L14.8948 134.052C12.4453 135.32 9.41863 134.37 8.28027 131.858C2.94102 120.075 0 107.017 0 93.264V93.264C0 91.6426 1.34814 90.3877 2.96875 90.4391L39.5554 91.5979C40.4556 91.6264 41.1185 92.3634 41.1185 93.264V93.264C41.1185 100.192 42.4718 106.823 44.9157 112.894Z" fill="#D0E0FB"/>
<path d="M181.005 96.9806C183.764 97.106 185.912 99.449 185.64 102.197C181.502 143.914 149.74 177.498 108.869 184.621C106.152 185.094 103.659 183.13 103.326 180.392L99.6052 149.795C99.2712 147.048 101.24 144.577 103.944 143.989C125.145 139.382 141.549 121.989 144.607 100.329C144.993 97.5933 147.307 95.4485 150.068 95.574L181.005 96.9806Z" fill="#1764E7"/>
<path d="M71.3813 96.2747L76.9492 91.6667C77.4933 91.2187 77.9573 90.8187 78.3413 90.4667C78.7253 90.0987 79.0373 89.7547 79.2773 89.4347C79.5333 89.1147 79.7173 88.8107 79.8293 88.5227C79.9573 88.2187 80.0213 87.9067 80.0213 87.5867C80.0213 87.0267 79.8613 86.5947 79.5413 86.2907C79.2373 85.9867 78.7973 85.8347 78.2213 85.8347C76.7013 85.8347 75.9413 86.7787 75.9413 88.6667H71.6213C71.6213 86.6187 72.1653 85.0347 73.2533 83.9147C74.3573 82.7947 76.0133 82.2347 78.2213 82.2347C79.2453 82.2347 80.1413 82.3707 80.9093 82.6427C81.6773 82.8987 82.3173 83.2667 82.8293 83.7467C83.3413 84.2107 83.7173 84.7707 83.9573 85.4267C84.2133 86.0827 84.3412 86.8027 84.3412 87.5867C84.3412 88.1627 84.2373 88.7147 84.0293 89.2427C83.8373 89.7707 83.5573 90.2827 83.1893 90.7787C82.8373 91.2747 82.4133 91.7547 81.9173 92.2187C81.4213 92.6827 80.8853 93.1387 80.3093 93.5867L77.4053 95.7947H84.5813V99.3467H71.3813V96.2747ZM92.7497 99.6587C91.5977 99.6587 90.6297 99.5147 89.8457 99.2267C89.0617 98.9227 88.4217 98.5227 87.9257 98.0267C87.4457 97.5307 87.0937 96.9547 86.8697 96.2987C86.6457 95.6267 86.5257 94.9227 86.5097 94.1867H90.6857C90.7177 94.8267 90.9177 95.3467 91.2857 95.7467C91.6537 96.1307 92.1417 96.3227 92.7497 96.3227C93.5017 96.3227 94.0377 96.0907 94.3577 95.6267C94.6937 95.1467 94.8617 94.4747 94.8617 93.6107C94.8617 92.6987 94.6617 92.0667 94.2617 91.7147C93.8617 91.3467 93.3577 91.1627 92.7497 91.1627C91.9017 91.1627 91.2457 91.4907 90.7817 92.1467H86.8697V82.5467H98.2937V86.0747H91.0217V88.4267C91.6937 87.9307 92.6137 87.6827 93.7817 87.6827C94.5817 87.6827 95.3177 87.8107 95.9897 88.0667C96.6617 88.3067 97.2377 88.6747 97.7177 89.1707C98.1977 89.6667 98.5657 90.2827 98.8217 91.0187C99.0937 91.7387 99.2297 92.5867 99.2297 93.5627C99.2297 94.4907 99.0777 95.3307 98.7737 96.0827C98.4697 96.8347 98.0377 97.4747 97.4777 98.0027C96.9177 98.5307 96.2377 98.9387 95.4377 99.2267C94.6377 99.5147 93.7417 99.6587 92.7497 99.6587ZM113.878 82.5467H117.718L106.198 99.3467H102.358L113.878 82.5467ZM104.542 90.5387C103.246 90.5387 102.222 90.1707 101.47 89.4347C100.718 88.6987 100.342 87.7227 100.342 86.5067V86.2667C100.342 85.0507 100.718 84.0747 101.47 83.3387C102.222 82.6027 103.246 82.2347 104.542 82.2347C105.838 82.2347 106.862 82.6027 107.614 83.3387C108.366 84.0747 108.742 85.0507 108.742 86.2667V86.5067C108.742 87.7227 108.366 88.6987 107.614 89.4347C106.862 90.1707 105.838 90.5387 104.542 90.5387ZM104.542 87.7067C104.766 87.7067 104.95 87.6187 105.094 87.4427C105.238 87.2667 105.31 86.9547 105.31 86.5067V86.2667C105.31 85.8187 105.238 85.5067 105.094 85.3307C104.95 85.1547 104.766 85.0667 104.542 85.0667C104.318 85.0667 104.134 85.1547 103.99 85.3307C103.846 85.5067 103.774 85.8187 103.774 86.2667V86.5067C103.774 86.9547 103.846 87.2667 103.99 87.4427C104.134 87.6187 104.318 87.7067 104.542 87.7067ZM115.558 99.6347C114.262 99.6347 113.238 99.2667 112.486 98.5307C111.734 97.7947 111.358 96.8187 111.358 95.6027V95.3627C111.358 94.1467 111.734 93.1707 112.486 92.4347C113.238 91.6987 114.262 91.3307 115.558 91.3307C116.854 91.3307 117.878 91.6987 118.63 92.4347C119.382 93.1707 119.758 94.1467 119.758 95.3627V95.6027C119.758 96.8187 119.382 97.7947 118.63 98.5307C117.878 99.2667 116.854 99.6347 115.558 99.6347ZM115.558 96.8027C115.782 96.8027 115.966 96.7147 116.11 96.5387C116.254 96.3627 116.326 96.0507 116.326 95.6027V95.3627C116.326 94.9147 116.254 94.6027 116.11 94.4267C115.966 94.2507 115.782 94.1627 115.558 94.1627C115.334 94.1627 115.15 94.2507 115.006 94.4267C114.862 94.6027 114.79 94.9147 114.79 95.3627V95.6027C114.79 96.0507 114.862 96.3627 115.006 96.5387C115.15 96.7147 115.334 96.8027 115.558 96.8027Z" fill="#1A2F75"/>
<g filter="url(#filter0_d)">
<path d="M191 98.1337C191 98.1866 191 98.2395 191 98.2923C190.994 101.076 188.606 103.241 185.826 103.113L144.977 101.219C143.391 101.146 142.151 99.7837 142.151 98.1965V98.1965C142.151 87.8516 139.719 78.1013 135.394 69.4923C134.163 67.0421 134.878 63.9985 137.211 62.5561L170.442 42.0036C172.807 40.5406 175.922 41.2841 177.252 43.7269C186.022 59.8354 191 78.4051 191 98.1337Z" fill="#1C3F9C"/>
</g>
<defs>
<filter id="filter0_d" x="130.799" y="41.2563" width="64.2011" height="69.8616" filterUnits="userSpaceOnUse" color-interpolation-filters="sRGB">
<feFlood flood-opacity="0" result="BackgroundImageFix"/>
<feColorMatrix in="SourceAlpha" type="matrix" values="0 0 0 0 0 0 0 0 0 0 0 0 0 0 0 0 0 0 127 0" result="hardAlpha"/>
<feOffset dy="4"/>
<feGaussianBlur stdDeviation="2"/>
<feColorMatrix type="matrix" values="0 0 0 0 0 0 0 0 0 0 0 0 0 0 0 0 0 0 0.25 0"/>
<feBlend mode="normal" in2="BackgroundImageFix" result="effect1_dropShadow"/>
<feBlend mode="normal" in="SourceGraphic" in2="effect1_dropShadow" result="shape"/>
</filter>
</defs>
</svg>
