<svg width="181" height="51" viewBox="0 0 181 51" fill="none" xmlns="http://www.w3.org/2000/svg">
<rect x="26.3413" y="33.1094" width="9.28857" height="9.28857" transform="rotate(135 26.3413 33.1094)" fill="#1A73E8"/>
<rect x="24.7854" y="6.56836" width="7.02656" height="7.02656" transform="rotate(135 24.7854 6.56836)" fill="#1A73E8"/>
<rect x="13.136" y="33.0654" width="9.28857" height="9.28857" transform="rotate(135 13.136 33.0654)" fill="#1A73E8"/>
<rect x="13.136" y="6.56836" width="9.28857" height="9.28857" transform="rotate(135 13.136 6.56836)" fill="#1A73E8"/>
<rect x="24.3457" y="46.4277" width="6.46666" height="6.46666" transform="rotate(135 24.3457 46.4277)" fill="#1A73E8"/>
<rect x="24.7407" y="19.8857" width="7.02542" height="7.02542" transform="rotate(135 24.7407 19.8857)" fill="#1A73E8"/>
<rect x="11.0415" y="46.3135" width="6.32435" height="6.32435" transform="rotate(135 11.0415 46.3135)" fill="#1A73E8"/>
<rect x="13.136" y="19.8164" width="9.28857" height="9.28857" transform="rotate(135 13.136 19.8164)" fill="#1A73E8"/>
<rect x="34.6296" y="33.1572" width="2.34248" height="2.34248" transform="rotate(135 34.6296 33.1572)" fill="#1A73E8"/>
<rect x="36.2859" y="6.66016" width="4.68454" height="4.68454" transform="rotate(135 36.2859 6.66016)" fill="#1A73E8"/>
<rect x="47.9138" y="33.1572" width="2.34248" height="2.34248" transform="rotate(135 47.9138 33.1572)" fill="#1A73E8"/>
<rect x="41.2893" y="39.7461" width="2.34248" height="2.34248" transform="rotate(135 41.2893 39.7461)" fill="#1A73E8"/>
<rect x="29.697" y="39.7461" width="2.34248" height="2.34248" transform="rotate(135 29.697 39.7461)" fill="#1A73E8"/>
<rect x="49.5344" y="6.66016" width="4.63422" height="4.63422" transform="rotate(135 49.5344 6.66016)" fill="#1A73E8"/>
<rect x="34.6296" y="46.3711" width="2.34248" height="2.34248" transform="rotate(135 34.6296 46.3711)" fill="#1A73E8"/>
<rect x="36.3213" y="19.873" width="4.73486" height="4.73486" transform="rotate(135 36.3213 19.873)" fill="#1A73E8"/>
<rect x="47.9138" y="46.3711" width="2.34248" height="2.34248" transform="rotate(135 47.9138 46.3711)" fill="#1A73E8"/>
<rect x="49.5701" y="19.873" width="4.68454" height="4.68454" transform="rotate(135 49.5701 19.873)" fill="#1A73E8"/>
<rect x="42.9456" y="13.249" width="4.68454" height="4.68454" transform="rotate(135 42.9456 13.249)" fill="#1A73E8"/>
<rect x="42.9456" y="26.498" width="4.68454" height="4.68454" transform="rotate(135 42.9456 26.498)" fill="#1A73E8"/>
<rect x="31.353" y="26.498" width="4.68454" height="4.68454" transform="rotate(135 31.353 26.498)" fill="#1A73E8"/>
<rect x="29.697" y="13.249" width="4.68454" height="4.68454" transform="rotate(135 29.697 13.249)" fill="#1A73E8"/>
<path d="M67.6991 3.1975H71.0775C72.3229 3.1975 73.2415 3.46689 73.8333 4.00568C74.4251 4.53564 74.721 5.25108 74.721 6.15201C74.721 7.05294 74.4251 7.7728 73.8333 8.31159C73.2415 8.84155 72.3229 9.10653 71.0775 9.10653H69.2889V12.4718H67.6991V3.1975ZM70.9451 7.72864C71.3602 7.72864 71.7091 7.69772 71.9917 7.63589C72.2744 7.56523 72.4996 7.46807 72.6674 7.34442C72.8352 7.21193 72.9545 7.04852 73.0251 6.85421C73.0958 6.65105 73.1311 6.41699 73.1311 6.15201C73.1311 5.88703 73.0958 5.65738 73.0251 5.46307C72.9545 5.26875 72.8352 5.10534 72.6674 4.97285C72.4996 4.84037 72.2744 4.74321 71.9917 4.68138C71.7091 4.61072 71.3602 4.57539 70.9451 4.57539H69.2889V7.72864H70.9451Z" fill="#1A2F75"/>
<path d="M76.5748 3.1975H82.8018V4.57539H78.1647V7.01319H82.4044V8.39108H78.1647V11.0939H82.8018V12.4718H76.5748V3.1975Z" fill="#1A2F75"/>
<path d="M84.8554 3.1975H91.0824V4.57539H86.4453V7.01319H90.685V8.39108H86.4453V11.0939H91.0824V12.4718H84.8554V3.1975Z" fill="#1A2F75"/>
<path d="M96.6485 12.6175C96.0744 12.6175 95.54 12.5292 95.0454 12.3525C94.5596 12.1759 94.1356 11.8976 93.7735 11.5178C93.4114 11.138 93.1243 10.6522 92.9123 10.0605C92.7092 9.45983 92.6076 8.73997 92.6076 7.90087V7.63589C92.6076 6.83212 92.7136 6.14318 92.9256 5.56906C93.1376 4.9861 93.4246 4.50914 93.7868 4.13817C94.1577 3.7672 94.5861 3.49339 95.0719 3.31674C95.5665 3.14008 96.0921 3.05176 96.6485 3.05176C97.1608 3.05176 97.6378 3.118 98.0794 3.25049C98.521 3.37415 98.9053 3.56405 99.2321 3.8202C99.5677 4.07634 99.8371 4.39432 100.04 4.77412C100.252 5.15392 100.38 5.59997 100.424 6.11226H98.7551C98.6403 5.53814 98.393 5.11859 98.0132 4.85361C97.6422 4.58864 97.1873 4.45615 96.6485 4.45615C96.3571 4.45615 96.07 4.50914 95.7873 4.61513C95.5047 4.72113 95.2486 4.89778 95.0189 5.14509C94.7981 5.3924 94.617 5.71921 94.4757 6.12551C94.3432 6.53181 94.277 7.03527 94.277 7.63589V7.90087C94.277 8.53682 94.3476 9.06678 94.489 9.49075C94.6391 9.91471 94.829 10.2548 95.0587 10.5109C95.2883 10.7671 95.54 10.9481 95.8138 11.0541C96.0965 11.1601 96.3747 11.2131 96.6485 11.2131C97.2845 11.2131 97.7747 11.0674 98.1192 10.7759C98.4725 10.4756 98.6845 10.0693 98.7551 9.55699H100.424C100.371 10.1046 100.239 10.5727 100.027 10.9614C99.815 11.35 99.5412 11.668 99.2056 11.9153C98.8788 12.1538 98.4945 12.3304 98.0529 12.4453C97.6201 12.5601 97.152 12.6175 96.6485 12.6175Z" fill="#1A2F75"/>
<path d="M104.288 4.57539H101.175V3.1975H108.992V4.57539H105.878V12.4718H104.288V4.57539Z" fill="#1A2F75"/>
<path d="M110.577 3.1975H113.955C115.201 3.1975 116.119 3.46689 116.711 4.00568C117.303 4.53564 117.599 5.25108 117.599 6.15201C117.599 7.05294 117.303 7.7728 116.711 8.31159C116.119 8.84155 115.201 9.10653 113.955 9.10653H112.167V12.4718H110.577V3.1975ZM113.823 7.72864C114.238 7.72864 114.587 7.69772 114.87 7.63589C115.152 7.56523 115.378 7.46807 115.545 7.34442C115.713 7.21193 115.832 7.04852 115.903 6.85421C115.974 6.65105 116.009 6.41699 116.009 6.15201C116.009 5.88703 115.974 5.65738 115.903 5.46307C115.832 5.26875 115.713 5.10534 115.545 4.97285C115.378 4.84037 115.152 4.74321 114.87 4.68138C114.587 4.61072 114.238 4.57539 113.823 4.57539H112.167V7.72864H113.823Z" fill="#1A2F75"/>
<path d="M67.6991 20.8628H75.251V30.137H73.6611V22.2406H69.2889V30.137H67.6991V20.8628Z" fill="#1A2F75"/>
<path d="M77.7652 20.8628H81.1436C82.389 20.8628 83.3076 21.1322 83.8994 21.6709C84.4912 22.2009 84.7871 22.9163 84.7871 23.8173C84.7871 24.7182 84.4912 25.4381 83.8994 25.9769C83.3076 26.5068 82.389 26.7718 81.1436 26.7718H79.355V30.137H77.7652V20.8628ZM81.0112 25.3939C81.4263 25.3939 81.7752 25.363 82.0578 25.3012C82.3405 25.2305 82.5657 25.1333 82.7335 25.0097C82.9013 24.8772 83.0206 24.7138 83.0912 24.5195C83.1619 24.3163 83.1972 24.0823 83.1972 23.8173C83.1972 23.5523 83.1619 23.3226 83.0912 23.1283C83.0206 22.934 82.9013 22.7706 82.7335 22.6381C82.5657 22.5056 82.3405 22.4085 82.0578 22.3466C81.7752 22.276 81.4263 22.2406 81.0112 22.2406H79.355V25.3939H81.0112Z" fill="#1A2F75"/>
<path d="M90.4169 30.2828C89.8516 30.2828 89.3128 30.1944 88.8005 30.0178C88.2882 29.8411 87.8377 29.5673 87.4491 29.1963C87.0605 28.8165 86.7513 28.3307 86.5217 27.739C86.292 27.1383 86.1772 26.4141 86.1772 25.5661V25.3012C86.1772 24.4886 86.292 23.7952 86.5217 23.2211C86.7513 22.6381 87.0605 22.1612 87.4491 21.7902C87.8377 21.4192 88.2882 21.1498 88.8005 20.982C89.3128 20.8053 89.8516 20.717 90.4169 20.717C90.9822 20.717 91.5209 20.8053 92.0332 20.982C92.5455 21.1498 92.996 21.4192 93.3846 21.7902C93.7733 22.1612 94.0824 22.6381 94.3121 23.2211C94.5417 23.7952 94.6565 24.4886 94.6565 25.3012V25.5661C94.6565 26.4141 94.5417 27.1383 94.3121 27.739C94.0824 28.3307 93.7733 28.8165 93.3846 29.1963C92.996 29.5673 92.5455 29.8411 92.0332 30.0178C91.5209 30.1944 90.9822 30.2828 90.4169 30.2828ZM90.4169 28.8784C90.7437 28.8784 91.0616 28.821 91.3708 28.7061C91.6799 28.5913 91.9537 28.4058 92.1922 28.1497C92.4307 27.8847 92.6206 27.5402 92.7619 27.1163C92.9121 26.6923 92.9872 26.1756 92.9872 25.5661V25.3012C92.9872 24.7182 92.9121 24.228 92.7619 23.8305C92.6206 23.4242 92.4307 23.0974 92.1922 22.8501C91.9537 22.594 91.6799 22.4085 91.3708 22.2936C91.0616 22.1788 90.7437 22.1214 90.4169 22.1214C90.0812 22.1214 89.7588 22.1788 89.4497 22.2936C89.1406 22.4085 88.8667 22.594 88.6283 22.8501C88.3898 23.0974 88.1999 23.4242 88.0586 23.8305C87.9172 24.228 87.8466 24.7182 87.8466 25.3012V25.5661C87.8466 26.1756 87.9172 26.6923 88.0586 27.1163C88.1999 27.5402 88.3898 27.8847 88.6283 28.1497C88.8667 28.4058 89.1406 28.5913 89.4497 28.7061C89.7588 28.821 90.0812 28.8784 90.4169 28.8784Z" fill="#1A2F75"/>
<path d="M96.707 20.8628H102.669V22.2406H98.2969V30.137H96.707V20.8628Z" fill="#1A2F75"/>
<path d="M104.25 20.8628H107.629C108.874 20.8628 109.793 21.1322 110.384 21.6709C110.976 22.2009 111.272 22.9163 111.272 23.8173C111.272 24.7182 110.976 25.4381 110.384 25.9769C109.793 26.5068 108.874 26.7718 107.629 26.7718H105.84V30.137H104.25V20.8628ZM107.496 25.3939C107.911 25.3939 108.26 25.363 108.543 25.3012C108.825 25.2305 109.051 25.1333 109.218 25.0097C109.386 24.8772 109.506 24.7138 109.576 24.5195C109.647 24.3163 109.682 24.0823 109.682 23.8173C109.682 23.5523 109.647 23.3226 109.576 23.1283C109.506 22.934 109.386 22.7706 109.218 22.6381C109.051 22.5056 108.825 22.4085 108.543 22.3466C108.26 22.276 107.911 22.2406 107.496 22.2406H105.84V25.3939H107.496Z" fill="#1A2F75"/>
<path d="M117.4 28.0437H113.637L112.855 30.137H111.265L114.776 20.8628H116.366L119.877 30.137H118.181L117.4 28.0437ZM114.154 26.6658H116.883L115.531 22.8501L114.154 26.6658Z" fill="#1A2F75"/>
<path d="M121.394 20.8628H123.036L125.991 26.3611L128.945 20.8628H130.535V30.137H128.945V23.645L126.494 28.2159H125.434L122.983 23.645V30.137H121.394V20.8628Z" fill="#1A2F75"/>
<path d="M133.051 20.8628H134.694L137.648 26.3611L140.603 20.8628H142.193V30.137H140.603V23.645L138.152 28.2159H137.092L134.641 23.645V30.137H133.051V20.8628Z" fill="#1A2F75"/>
<path d="M144.709 20.8628H146.298V24.6785H150.803V20.8628H152.393V30.137H150.803V26.0563H146.298V30.137H144.709V20.8628Z" fill="#1A2F75"/>
<path d="M158.68 30.2828C158.115 30.2828 157.576 30.1944 157.064 30.0178C156.551 29.8411 156.101 29.5673 155.712 29.1963C155.324 28.8165 155.014 28.3307 154.785 27.739C154.555 27.1383 154.44 26.4141 154.44 25.5661V25.3012C154.44 24.4886 154.555 23.7952 154.785 23.2211C155.014 22.6381 155.324 22.1612 155.712 21.7902C156.101 21.4192 156.551 21.1498 157.064 20.982C157.576 20.8053 158.115 20.717 158.68 20.717C159.245 20.717 159.784 20.8053 160.296 20.982C160.809 21.1498 161.259 21.4192 161.648 21.7902C162.036 22.1612 162.346 22.6381 162.575 23.2211C162.805 23.7952 162.92 24.4886 162.92 25.3012V25.5661C162.92 26.4141 162.805 27.1383 162.575 27.739C162.346 28.3307 162.036 28.8165 161.648 29.1963C161.259 29.5673 160.809 29.8411 160.296 30.0178C159.784 30.1944 159.245 30.2828 158.68 30.2828ZM158.68 28.8784C159.007 28.8784 159.325 28.821 159.634 28.7061C159.943 28.5913 160.217 28.4058 160.455 28.1497C160.694 27.8847 160.884 27.5402 161.025 27.1163C161.175 26.6923 161.25 26.1756 161.25 25.5661V25.3012C161.25 24.7182 161.175 24.228 161.025 23.8305C160.884 23.4242 160.694 23.0974 160.455 22.8501C160.217 22.594 159.943 22.4085 159.634 22.2936C159.325 22.1788 159.007 22.1214 158.68 22.1214C158.344 22.1214 158.022 22.1788 157.713 22.2936C157.404 22.4085 157.13 22.594 156.891 22.8501C156.653 23.0974 156.463 23.4242 156.322 23.8305C156.18 24.228 156.11 24.7182 156.11 25.3012V25.5661C156.11 26.1756 156.18 26.6923 156.322 27.1163C156.463 27.5402 156.653 27.8847 156.891 28.1497C157.13 28.4058 157.404 28.5913 157.713 28.7061C158.022 28.821 158.344 28.8784 158.68 28.8784Z" fill="#1A2F75"/>
<path d="M164.97 20.8628H170.932V22.2406H166.56V30.137H164.97V20.8628Z" fill="#1A2F75"/>
<path d="M176.03 30.2828C175.465 30.2828 174.926 30.1944 174.414 30.0178C173.902 29.8411 173.451 29.5673 173.063 29.1963C172.674 28.8165 172.365 28.3307 172.135 27.739C171.906 27.1383 171.791 26.4141 171.791 25.5661V25.3012C171.791 24.4886 171.906 23.7952 172.135 23.2211C172.365 22.6381 172.674 22.1612 173.063 21.7902C173.451 21.4192 173.902 21.1498 174.414 20.982C174.926 20.8053 175.465 20.717 176.03 20.717C176.596 20.717 177.134 20.8053 177.647 20.982C178.159 21.1498 178.61 21.4192 178.998 21.7902C179.387 22.1612 179.696 22.6381 179.926 23.2211C180.155 23.7952 180.27 24.4886 180.27 25.3012V25.5661C180.27 26.4141 180.155 27.1383 179.926 27.739C179.696 28.3307 179.387 28.8165 178.998 29.1963C178.61 29.5673 178.159 29.8411 177.647 30.0178C177.134 30.1944 176.596 30.2828 176.03 30.2828ZM176.03 28.8784C176.357 28.8784 176.675 28.821 176.984 28.7061C177.293 28.5913 177.567 28.4058 177.806 28.1497C178.044 27.8847 178.234 27.5402 178.375 27.1163C178.526 26.6923 178.601 26.1756 178.601 25.5661V25.3012C178.601 24.7182 178.526 24.228 178.375 23.8305C178.234 23.4242 178.044 23.0974 177.806 22.8501C177.567 22.594 177.293 22.4085 176.984 22.2936C176.675 22.1788 176.357 22.1214 176.03 22.1214C175.695 22.1214 175.372 22.1788 175.063 22.2936C174.754 22.4085 174.48 22.594 174.242 22.8501C174.003 23.0974 173.813 23.4242 173.672 23.8305C173.531 24.228 173.46 24.7182 173.46 25.3012V25.5661C173.46 26.1756 173.531 26.6923 173.672 27.1163C173.813 27.5402 174.003 27.8847 174.242 28.1497C174.48 28.4058 174.754 28.5913 175.063 28.7061C175.372 28.821 175.695 28.8784 176.03 28.8784Z" fill="#1A2F75"/>
<path d="M71.475 47.948C70.9097 47.948 70.3709 47.8597 69.8586 47.683C69.3464 47.5064 68.8959 47.2326 68.5073 46.8616C68.1186 46.4818 67.8095 45.996 67.5798 45.4042C67.3502 44.8036 67.2354 44.0793 67.2354 43.2314V42.9664C67.2354 42.1538 67.3502 41.4605 67.5798 40.8863C67.8095 40.3034 68.1186 39.8264 68.5073 39.4554C68.8959 39.0845 69.3464 38.8151 69.8586 38.6473C70.3709 38.4706 70.9097 38.3823 71.475 38.3823C72.0403 38.3823 72.5791 38.4706 73.0914 38.6473C73.6037 38.8151 74.0541 39.0845 74.4428 39.4554C74.8314 39.8264 75.1406 40.3034 75.3702 40.8863C75.5999 41.4605 75.7147 42.1538 75.7147 42.9664V43.2314C75.7147 44.0793 75.5999 44.8036 75.3702 45.4042C75.1406 45.996 74.8314 46.4818 74.4428 46.8616C74.0541 47.2326 73.6037 47.5064 73.0914 47.683C72.5791 47.8597 72.0403 47.948 71.475 47.948ZM71.475 46.5436C71.8018 46.5436 72.1198 46.4862 72.4289 46.3714C72.7381 46.2566 73.0119 46.0711 73.2504 45.8149C73.4889 45.55 73.6788 45.2055 73.8201 44.7815C73.9702 44.3576 74.0453 43.8408 74.0453 43.2314V42.9664C74.0453 42.3835 73.9702 41.8933 73.8201 41.4958C73.6788 41.0895 73.4889 40.7627 73.2504 40.5154C73.0119 40.2592 72.7381 40.0737 72.4289 39.9589C72.1198 39.8441 71.8018 39.7867 71.475 39.7867C71.1394 39.7867 70.817 39.8441 70.5078 39.9589C70.1987 40.0737 69.9249 40.2592 69.6864 40.5154C69.4479 40.7627 69.258 41.0895 69.1167 41.4958C68.9754 41.8933 68.9047 42.3835 68.9047 42.9664V43.2314C68.9047 43.8408 68.9754 44.3576 69.1167 44.7815C69.258 45.2055 69.4479 45.55 69.6864 45.8149C69.9249 46.0711 70.1987 46.2566 70.5078 46.3714C70.817 46.4862 71.1394 46.5436 71.475 46.5436Z" fill="#1A2F75"/>
<path d="M77.7652 38.528H84.0584V39.9059H79.355V42.0257H81.2761C81.8944 42.0257 82.4332 42.0964 82.8925 42.2377C83.3518 42.3702 83.7316 42.5645 84.0319 42.8207C84.3322 43.068 84.553 43.3727 84.6944 43.7349C84.8445 44.0882 84.9196 44.4812 84.9196 44.914C84.9196 45.3468 84.8445 45.7443 84.6944 46.1064C84.553 46.4597 84.3322 46.7644 84.0319 47.0206C83.7316 47.2679 83.3518 47.4622 82.8925 47.6035C82.4332 47.736 81.8944 47.8023 81.2761 47.8023H77.7652V38.528ZM81.1436 46.4244C81.5588 46.4244 81.9077 46.3935 82.1903 46.3316C82.473 46.261 82.6982 46.1638 82.866 46.0402C83.0338 45.9165 83.1531 45.7619 83.2237 45.5765C83.2944 45.3821 83.3297 45.1569 83.3297 44.9008C83.3297 44.6535 83.2944 44.437 83.2237 44.2516C83.1531 44.0661 83.0338 43.9115 82.866 43.7879C82.6982 43.6642 82.473 43.5715 82.1903 43.5096C81.9077 43.439 81.5588 43.4036 81.1436 43.4036H79.355V46.4244H81.1436Z" fill="#1A2F75"/>
<path d="M86.7703 38.528H92.9973V39.9059H88.3602V42.3437H92.5998V43.7216H88.3602V46.4244H92.9973V47.8023H86.7703V38.528Z" fill="#1A2F75"/>
<path d="M98.5634 47.948C97.9893 47.948 97.4549 47.8597 96.9603 47.683C96.4745 47.5064 96.0505 47.2282 95.6884 46.8484C95.3263 46.4686 95.0392 45.9828 94.8272 45.391C94.6241 44.7904 94.5225 44.0705 94.5225 43.2314V42.9664C94.5225 42.1626 94.6285 41.4737 94.8405 40.8996C95.0524 40.3166 95.3395 39.8397 95.7016 39.4687C96.0726 39.0977 96.501 38.8239 96.9868 38.6473C97.4814 38.4706 98.007 38.3823 98.5634 38.3823C99.0757 38.3823 99.5527 38.4485 99.9943 38.581C100.436 38.7047 100.82 38.8946 101.147 39.1507C101.483 39.4069 101.752 39.7248 101.955 40.1046C102.167 40.4844 102.295 40.9305 102.339 41.4428H100.67C100.555 40.8687 100.308 40.4491 99.9281 40.1841C99.5571 39.9192 99.1022 39.7867 98.5634 39.7867C98.2719 39.7867 97.9849 39.8397 97.7022 39.9457C97.4196 40.0517 97.1634 40.2283 96.9338 40.4756C96.713 40.7229 96.5319 41.0497 96.3906 41.456C96.2581 41.8623 96.1919 42.3658 96.1919 42.9664V43.2314C96.1919 43.8673 96.2625 44.3973 96.4038 44.8213C96.554 45.2452 96.7439 45.5853 96.9735 45.8414C97.2032 46.0976 97.4549 46.2787 97.7287 46.3846C98.0114 46.4906 98.2896 46.5436 98.5634 46.5436C99.1994 46.5436 99.6896 46.3979 100.034 46.1064C100.387 45.8061 100.599 45.3998 100.67 44.8875H102.339C102.286 45.4351 102.154 45.9033 101.942 46.2919C101.73 46.6805 101.456 46.9985 101.12 47.2458C100.794 47.4843 100.409 47.661 99.9678 47.7758C99.535 47.8906 99.0669 47.948 98.5634 47.948Z" fill="#1A2F75"/>
<path d="M104.263 38.528H111.815V47.8023H110.225V39.9059H105.853V47.8023H104.263V38.528Z" fill="#1A2F75"/>
<path d="M114.329 38.528H120.556V39.9059H115.919V42.3437H120.159V43.7216H115.919V46.4244H120.556V47.8023H114.329V38.528Z" fill="#1A2F75"/>
<path d="M127.578 43.9071C127.348 44.0484 127.026 44.1765 126.611 44.2913C126.196 44.4061 125.723 44.4635 125.193 44.4635C124.151 44.4635 123.383 44.2162 122.888 43.7216C122.393 43.227 122.146 42.4453 122.146 41.3765V38.528H123.736V41.2441C123.736 41.88 123.877 42.3437 124.16 42.6352C124.451 42.9178 124.906 43.0592 125.525 43.0592C126.001 43.0592 126.412 43.0062 126.757 42.9002C127.101 42.7853 127.375 42.6617 127.578 42.5292V38.528H129.168V47.8023H127.578V43.9071Z" fill="#1A2F75"/>
<path d="M131.68 38.528H137.907V39.9059H133.269V42.3437H137.509V43.7216H133.269V46.4244H137.907V47.8023H131.68V38.528Z" fill="#1A2F75"/>
<path d="M139.96 38.528H141.55V42.3437H146.055V38.528H147.645V47.8023H146.055V43.7216H141.55V47.8023H139.96V38.528Z" fill="#1A2F75"/>
<path d="M150.156 38.528H151.746V45.285L156.303 38.528H157.84V47.8023H156.25V41.0453L151.693 47.8023H150.156V38.528Z" fill="#1A2F75"/>
<path d="M162.02 44.0661C161.332 43.8629 160.815 43.5317 160.47 43.0724C160.126 42.6043 159.954 42.0522 159.954 41.4163C159.954 40.9923 160.029 40.6037 160.179 40.2504C160.329 39.8971 160.55 39.5924 160.841 39.3362C161.133 39.0801 161.495 38.8813 161.928 38.74C162.369 38.5987 162.882 38.528 163.465 38.528H166.976V47.8023H165.386V44.2516H163.438L161.385 47.8023H159.689L162.02 44.0661ZM161.544 41.4163C161.544 41.8933 161.703 42.2642 162.02 42.5292C162.347 42.7942 162.917 42.9267 163.73 42.9267H165.386V39.9059H163.73C162.917 39.9059 162.347 40.0384 162.02 40.3034C161.703 40.5684 161.544 40.9393 161.544 41.4163Z" fill="#1A2F75"/>
</svg>
