<svg width="96" height="49" viewBox="0 0 96 49" fill="none" xmlns="http://www.w3.org/2000/svg">
<path fill-rule="evenodd" clip-rule="evenodd" d="M0 24.1564C0 10.811 10.811 0 24.1564 0C37.4884 0 48.3041 10.8024 48.3128 24.1403H43.6852C43.6809 13.3571 34.9407 4.61955 24.1564 4.61955C13.3694 4.61955 4.62757 13.3614 4.62757 24.1484C4.62757 34.93 13.3608 43.6686 24.1404 43.6772V48.3128C10.8024 48.3042 0 37.4964 0 24.1564Z" fill="url(#paint0_linear)"/>
<path d="M28.9195 31.4474H31.8028V34.5565H33.0013V27.4004H31.8028V30.3011H28.9195V27.4004H27.7036V34.5565H28.9195V31.4474Z" fill="black"/>
<path d="M39.4975 34.5565H40.696V27.4004H39.3759L36.2842 32.2291V27.4004H35.0684V34.5565H36.1626L39.4975 29.3979V34.5565Z" fill="black"/>
<path d="M47.1745 29.3979V34.5565H48.3904V27.4004H47.0529L43.9612 32.2291V27.4004H42.7627V34.5565H43.857L47.1745 29.3979Z" fill="black"/>
<path d="M33.974 41.6258C34.5993 41.0178 34.9293 40.2883 34.9293 39.4372C34.9293 38.8988 34.7904 38.3777 34.5298 37.8914C34.2693 37.405 33.9045 37.0055 33.4356 36.7103C33.0361 36.4497 32.6192 36.276 32.1676 36.2065C31.7334 36.1371 31.247 36.085 30.6738 36.085H27.6689V48.1045H28.0337H30.6912C31.1775 48.1045 31.5944 48.0871 31.9071 48.0698C32.2371 48.0524 32.5845 47.9829 32.9318 47.8961C33.2966 47.7919 33.644 47.6529 33.974 47.4445C34.4603 47.1318 34.8425 46.715 35.1204 46.1939C35.3983 45.6728 35.5372 45.117 35.5372 44.5612C35.5372 43.8317 35.3462 43.189 34.9814 42.6332C34.7209 42.199 34.3909 41.8689 33.974 41.6258ZM32.8624 40.0973C32.7234 40.3404 32.5497 40.4968 32.3587 40.6183C32.1155 40.7399 31.8549 40.8268 31.577 40.8615C31.2644 40.8963 30.8649 40.9136 30.3959 40.9136H29.5275V37.8393H30.4828C30.9344 37.8393 31.3165 37.8566 31.6291 37.8914C31.9071 37.9261 32.1502 37.9956 32.3413 38.1172C32.5497 38.2561 32.7234 38.4298 32.8624 38.6556C33.0013 38.8814 33.0708 39.1246 33.0708 39.3504C33.0708 39.6109 33.0013 39.8541 32.8624 40.0973ZM33.3487 43.5017C33.5571 43.7969 33.6614 44.1443 33.6614 44.5612C33.6614 44.8565 33.5745 45.1344 33.4008 45.4296C33.2271 45.7076 33.0187 45.916 32.7582 46.0549C32.4976 46.1765 32.2023 46.2634 31.8723 46.2981C31.5076 46.3329 31.056 46.3502 30.5349 46.3502H29.5101V42.6506H30.3438C31.3512 42.6506 32.0807 42.72 32.4976 42.859C32.8624 42.9806 33.1403 43.189 33.3487 43.5017Z" fill="black"/>
<path d="M46.0802 36.7275C45.1076 36.189 44.0654 35.9111 42.9538 35.9111C41.8248 35.9111 40.7652 36.189 39.7926 36.7449C38.8199 37.3007 38.0383 38.0649 37.4824 39.0029C36.9093 39.9582 36.6313 41.0177 36.6313 42.1467C36.6313 43.2583 36.9266 44.3005 37.4998 45.2384C38.073 46.1764 38.8546 46.9233 39.8273 47.4791C40.8 48.0175 41.8421 48.2954 42.9364 48.2954C44.0654 48.2954 45.1249 48.0175 46.0976 47.4617C47.0703 46.9059 47.8519 46.1417 48.4077 45.2037C48.9809 44.2484 49.2588 43.1889 49.2588 42.0599C49.2588 40.9482 48.9636 39.9061 48.3904 38.9681C47.8345 38.0302 47.0529 37.2833 46.0802 36.7275ZM47.4177 42.0599C47.4177 42.6678 47.2961 43.241 47.0703 43.7621C46.8445 44.3005 46.5145 44.7695 46.115 45.169C45.6981 45.5685 45.2292 45.8985 44.6733 46.1243C43.4227 46.6454 41.9637 46.5759 40.7479 45.8811C40.0531 45.499 39.4973 44.9605 39.0804 44.3005C38.6809 43.6405 38.4725 42.911 38.4725 42.1293C38.4725 41.5388 38.5941 40.9656 38.8199 40.4272C39.0457 39.8887 39.3757 39.4197 39.7926 39.0029C40.2094 38.586 40.6958 38.2734 41.2342 38.0476C41.7727 37.8218 42.3632 37.7002 42.9538 37.7002C43.718 37.7002 44.4649 37.8912 45.1597 38.2907C45.8544 38.6729 46.4103 39.2113 46.8098 39.8713C47.2266 40.5661 47.4177 41.2956 47.4177 42.0599Z" fill="black"/>
<path d="M60.4967 44.5784C60.0798 45.1516 59.5414 45.6206 58.8987 45.968C57.5439 46.6975 55.998 46.6454 54.6953 45.8811C54.0179 45.4816 53.4621 44.9258 53.0626 44.2484C52.6631 43.571 52.4547 42.8241 52.4547 42.0425C52.4547 41.313 52.6631 40.5835 53.0453 39.9234C53.4448 39.246 53.9832 38.7076 54.6606 38.3081C55.7375 37.6654 57.0055 37.5438 58.2213 37.926C58.6729 38.0649 59.1072 38.2907 59.5066 38.5686C59.8888 38.8465 60.2188 39.1766 60.462 39.5587L60.5662 39.715H62.5289L62.3552 39.2287C62.1989 38.7944 61.9036 38.3602 61.4867 37.9433C61.0873 37.5265 60.6704 37.1791 60.2535 36.9186C59.2461 36.2412 58.0824 35.9111 56.797 35.9111C55.6854 35.9111 54.6432 36.189 53.6879 36.7449C52.75 37.2833 51.9857 38.0476 51.4299 38.9855C50.8741 39.9234 50.5962 40.9656 50.5962 42.0772C50.5962 42.9283 50.7525 43.7621 51.0825 44.5263C51.3952 45.2906 51.8642 45.968 52.4373 46.5238C53.0105 47.097 53.6879 47.5312 54.4522 47.8438C55.2164 48.1565 56.0328 48.3128 56.8839 48.3128C57.6308 48.3128 58.3603 48.1739 59.0724 47.896C59.7846 47.618 60.4272 47.2186 60.983 46.7322C61.5562 46.2285 62.0252 45.6379 62.3552 44.9779L62.6331 44.4395H60.6009L60.4967 44.5784Z" fill="black"/>
<path d="M73.0725 36.085H70.8839L68.1048 40.3057L65.3084 36.085H63.1372L66.9758 41.9558L62.894 48.0872H65.0999L68.1048 43.5711L71.1097 48.0872H73.3156L69.1817 41.9558L73.0725 36.085Z" fill="black"/>
<path d="M82.3649 36.7275C81.3922 36.189 80.3501 35.9111 79.2384 35.9111C78.1094 35.9111 77.0499 36.189 76.0772 36.7449C75.1045 37.3007 74.3229 38.0649 73.7671 39.0029C73.1939 39.9582 72.916 41.0177 72.916 42.1467C72.916 43.2583 73.2113 44.3005 73.7845 45.2384C74.3577 46.1764 75.1393 46.9233 76.112 47.4791C77.0847 48.0175 78.1268 48.2954 79.2211 48.2954C80.3501 48.2954 81.4096 48.0175 82.3823 47.4617C83.355 46.9059 84.1366 46.1417 84.6924 45.2037C85.2656 44.2484 85.5435 43.1889 85.5435 42.0599C85.5435 40.9482 85.2482 39.9061 84.675 38.9681C84.1018 38.0302 83.3202 37.2833 82.3649 36.7275ZM83.7024 42.0599C83.7024 42.6678 83.5808 43.241 83.355 43.7621C83.1292 44.3005 82.7991 44.7695 82.3997 45.169C81.9828 45.5685 81.5138 45.8985 80.958 46.1243C79.7074 46.6454 78.2484 46.5759 77.0325 45.8811C76.3378 45.4816 75.782 44.9605 75.3651 44.3005C74.9656 43.6405 74.7572 42.911 74.7572 42.1293C74.7572 41.5388 74.8787 40.9656 75.1045 40.4272C75.3303 39.8887 75.6604 39.4197 76.0772 39.0029C76.4941 38.586 76.9804 38.2734 77.5189 38.0476C78.0573 37.8218 78.6479 37.7002 79.2384 37.7002C80.0201 37.7002 80.7496 37.8912 81.4443 38.2907C82.1391 38.6729 82.6949 39.2113 83.0944 39.8713C83.4939 40.5661 83.7024 41.2956 83.7024 42.0599Z" fill="black"/>
<path d="M95.2356 36.085H89.2432L86.3251 46.3502H85.6304V48.1045H95.9998V46.3502H95.2356V36.085ZM93.3771 37.8219V46.3328H88.2531L90.6154 37.8219H93.3771Z" fill="black"/>
<defs>
<linearGradient id="paint0_linear" x1="0" y1="24.1524" x2="48.3049" y2="24.1524" gradientUnits="userSpaceOnUse">
<stop stop-color="#4B78FF"/>
<stop offset="0.5308" stop-color="#5CBFF8"/>
<stop offset="1" stop-color="#5CEEDE"/>
</linearGradient>
</defs>
</svg>
